<?xml version="1.0" encoding="UTF-8"?>
<svg xmlns="http://www.w3.org/2000/svg" xmlns:xlink="http://www.w3.org/1999/xlink" width="50px" height="50px" viewBox="0 0 50 50" version="1.1">
<g id="surface1">
<path style=" stroke:none;fill-rule:nonzero;fill:rgb(10.588235%,15.686275%,29.411765%);fill-opacity:1;" d="M 0.0664062 34.671875 C 0.0820312 34.851562 0.152344 35.019531 0.269531 35.15625 C 0.386719 35.289062 0.546875 35.382812 0.722656 35.421875 L 3.625 36.046875 C 3.726562 36.542969 3.859375 37.03125 4.015625 37.507812 L 1.816406 39.5 C 1.683594 39.621094 1.59375 39.78125 1.558594 39.957031 C 1.523438 40.132812 1.546875 40.3125 1.625 40.476562 C 2.003906 41.285156 2.449219 42.058594 2.953125 42.796875 C 3.058594 42.945312 3.203125 43.054688 3.371094 43.113281 C 3.542969 43.167969 3.726562 43.171875 3.894531 43.117188 L 6.71875 42.207031 C 7.054688 42.585938 7.414062 42.945312 7.792969 43.28125 L 6.882812 46.105469 C 6.828125 46.273438 6.832031 46.457031 6.886719 46.628906 C 6.945312 46.796875 7.054688 46.941406 7.203125 47.042969 C 7.941406 47.550781 8.714844 47.996094 9.523438 48.375 C 9.6875 48.453125 9.867188 48.472656 10.042969 48.441406 C 10.21875 48.40625 10.378906 48.316406 10.5 48.183594 L 12.492188 45.984375 C 12.96875 46.140625 13.457031 46.269531 13.953125 46.375 L 14.578125 49.277344 C 14.65625 49.636719 14.960938 49.902344 15.328125 49.933594 C 15.769531 49.96875 16.214844 50 16.667969 50 C 17.121094 50 17.5625 49.96875 18.007812 49.933594 C 18.183594 49.917969 18.355469 49.847656 18.488281 49.730469 C 18.625 49.613281 18.71875 49.453125 18.753906 49.277344 L 19.382812 46.375 C 19.875 46.273438 20.363281 46.140625 20.84375 45.984375 L 22.835938 48.183594 C 22.953125 48.316406 23.113281 48.40625 23.289062 48.441406 C 23.464844 48.476562 23.648438 48.453125 23.808594 48.375 C 24.617188 47.992188 25.394531 47.550781 26.128906 47.042969 C 26.277344 46.941406 26.386719 46.796875 26.445312 46.628906 C 26.503906 46.457031 26.503906 46.273438 26.449219 46.105469 L 25.539062 43.28125 C 25.917969 42.945312 26.277344 42.585938 26.617188 42.207031 L 29.4375 43.117188 C 29.609375 43.171875 29.792969 43.167969 29.960938 43.113281 C 30.132812 43.054688 30.277344 42.945312 30.378906 42.796875 C 30.882812 42.058594 31.328125 41.285156 31.710938 40.476562 C 31.785156 40.316406 31.808594 40.132812 31.773438 39.957031 C 31.738281 39.78125 31.648438 39.621094 31.515625 39.5 L 29.316406 37.507812 C 29.476562 37.03125 29.605469 36.542969 29.707031 36.046875 L 32.613281 35.421875 C 32.972656 35.34375 33.238281 35.039062 33.265625 34.671875 C 33.300781 34.230469 33.332031 33.785156 33.332031 33.332031 C 33.332031 32.878906 33.300781 32.4375 33.265625 31.992188 C 33.253906 31.8125 33.179688 31.644531 33.0625 31.511719 C 32.945312 31.375 32.785156 31.28125 32.613281 31.246094 L 29.707031 30.617188 C 29.605469 30.125 29.476562 29.636719 29.316406 29.15625 L 31.515625 27.164062 C 31.648438 27.046875 31.738281 26.886719 31.773438 26.710938 C 31.808594 26.535156 31.785156 26.351562 31.707031 26.191406 C 31.328125 25.382812 30.882812 24.605469 30.378906 23.867188 C 30.277344 23.722656 30.128906 23.609375 29.960938 23.554688 C 29.792969 23.496094 29.609375 23.496094 29.4375 23.550781 L 26.613281 24.457031 C 26.277344 24.082031 25.917969 23.722656 25.539062 23.382812 L 26.449219 20.5625 C 26.503906 20.390625 26.503906 20.207031 26.445312 20.039062 C 26.386719 19.867188 26.277344 19.722656 26.128906 19.621094 C 25.394531 19.117188 24.617188 18.671875 23.808594 18.289062 C 23.648438 18.214844 23.464844 18.191406 23.289062 18.226562 C 23.113281 18.257812 22.953125 18.351562 22.832031 18.484375 L 20.839844 20.679688 C 20.363281 20.523438 19.875 20.394531 19.378906 20.292969 L 18.753906 17.386719 C 18.714844 17.210938 18.625 17.054688 18.488281 16.9375 C 18.355469 16.816406 18.183594 16.746094 18.007812 16.730469 C 17.113281 16.660156 16.21875 16.660156 15.324219 16.730469 C 15.148438 16.746094 14.976562 16.816406 14.84375 16.9375 C 14.707031 17.054688 14.617188 17.210938 14.578125 17.386719 L 13.949219 20.292969 C 13.457031 20.394531 12.96875 20.523438 12.492188 20.679688 L 10.5 18.484375 C 10.378906 18.351562 10.21875 18.261719 10.042969 18.226562 C 9.867188 18.191406 9.683594 18.214844 9.523438 18.289062 C 8.714844 18.671875 7.9375 19.117188 7.203125 19.621094 C 7.054688 19.722656 6.945312 19.867188 6.886719 20.039062 C 6.828125 20.207031 6.828125 20.390625 6.882812 20.5625 L 7.792969 23.382812 C 7.414062 23.722656 7.054688 24.082031 6.71875 24.457031 L 3.894531 23.550781 C 3.726562 23.496094 3.542969 23.496094 3.371094 23.554688 C 3.203125 23.609375 3.054688 23.722656 2.953125 23.867188 C 2.449219 24.605469 2.003906 25.382812 1.625 26.191406 C 1.546875 26.351562 1.523438 26.535156 1.558594 26.710938 C 1.59375 26.886719 1.683594 27.046875 1.816406 27.164062 L 4.015625 29.15625 C 3.859375 29.636719 3.726562 30.125 3.625 30.617188 L 0.722656 31.246094 C 0.363281 31.320312 0.0976562 31.625 0.0664062 31.992188 C 0.03125 32.4375 0 32.878906 0 33.332031 C 0 33.785156 0.03125 34.230469 0.0664062 34.671875 Z M 1.683594 32.742188 L 4.519531 32.128906 C 4.683594 32.09375 4.832031 32.011719 4.949219 31.890625 C 5.0625 31.765625 5.140625 31.613281 5.164062 31.449219 C 5.289062 30.679688 5.492188 29.925781 5.765625 29.207031 C 5.824219 29.050781 5.835938 28.878906 5.796875 28.714844 C 5.757812 28.554688 5.667969 28.40625 5.546875 28.292969 L 3.402344 26.355469 C 3.589844 25.996094 3.785156 25.652344 3.988281 25.328125 L 6.734375 26.214844 C 7.058594 26.320312 7.417969 26.214844 7.636719 25.949219 C 8.128906 25.347656 8.679688 24.792969 9.285156 24.300781 C 9.546875 24.085938 9.652344 23.726562 9.546875 23.402344 L 8.664062 20.652344 C 8.988281 20.453125 9.328125 20.257812 9.6875 20.070312 L 11.628906 22.210938 C 11.859375 22.464844 12.222656 22.554688 12.539062 22.433594 C 13.265625 22.15625 14.015625 21.957031 14.78125 21.832031 C 14.949219 21.804688 15.101562 21.730469 15.222656 21.613281 C 15.34375 21.5 15.429688 21.351562 15.464844 21.1875 L 16.074219 18.351562 C 16.46875 18.332031 16.867188 18.328125 17.257812 18.351562 L 17.871094 21.1875 C 17.90625 21.351562 17.988281 21.5 18.109375 21.613281 C 18.230469 21.730469 18.386719 21.804688 18.550781 21.832031 C 19.320312 21.957031 20.074219 22.160156 20.792969 22.433594 C 20.949219 22.492188 21.121094 22.503906 21.285156 22.464844 C 21.445312 22.425781 21.59375 22.335938 21.707031 22.210938 L 23.644531 20.070312 C 24.003906 20.257812 24.347656 20.453125 24.671875 20.65625 L 23.785156 23.402344 C 23.679688 23.726562 23.785156 24.085938 24.050781 24.300781 C 24.652344 24.796875 25.203125 25.347656 25.699219 25.949219 C 25.804688 26.082031 25.945312 26.175781 26.109375 26.222656 C 26.269531 26.269531 26.441406 26.265625 26.597656 26.214844 L 29.347656 25.332031 C 29.546875 25.65625 29.742188 25.996094 29.929688 26.355469 L 27.789062 28.292969 C 27.664062 28.40625 27.574219 28.554688 27.535156 28.714844 C 27.496094 28.878906 27.507812 29.050781 27.566406 29.207031 C 27.839844 29.925781 28.042969 30.679688 28.167969 31.449219 C 28.195312 31.613281 28.269531 31.765625 28.386719 31.890625 C 28.5 32.011719 28.648438 32.09375 28.8125 32.128906 L 31.648438 32.742188 C 31.660156 32.9375 31.667969 33.132812 31.667969 33.332031 C 31.667969 33.53125 31.660156 33.730469 31.648438 33.921875 L 28.8125 34.535156 C 28.652344 34.570312 28.5 34.65625 28.386719 34.777344 C 28.269531 34.898438 28.195312 35.050781 28.167969 35.21875 C 28.042969 35.984375 27.84375 36.734375 27.566406 37.460938 C 27.507812 37.617188 27.5 37.785156 27.539062 37.949219 C 27.578125 38.113281 27.664062 38.261719 27.789062 38.371094 L 29.929688 40.3125 C 29.742188 40.667969 29.546875 41.011719 29.347656 41.335938 L 26.597656 40.453125 C 26.441406 40.398438 26.269531 40.398438 26.109375 40.445312 C 25.945312 40.492188 25.804688 40.585938 25.699219 40.714844 C 25.203125 41.320312 24.652344 41.871094 24.050781 42.363281 C 23.785156 42.582031 23.679688 42.9375 23.785156 43.265625 L 24.671875 46.011719 C 24.347656 46.214844 24.003906 46.410156 23.648438 46.59375 L 21.707031 44.453125 C 21.59375 44.328125 21.445312 44.242188 21.285156 44.203125 C 21.121094 44.164062 20.949219 44.175781 20.792969 44.234375 C 20.074219 44.503906 19.320312 44.707031 18.550781 44.832031 C 18.386719 44.859375 18.234375 44.933594 18.113281 45.050781 C 17.988281 45.164062 17.90625 45.316406 17.871094 45.480469 L 17.257812 48.3125 C 16.867188 48.335938 16.46875 48.335938 16.078125 48.3125 L 15.464844 45.480469 C 15.429688 45.316406 15.34375 45.164062 15.222656 45.050781 C 15.101562 44.933594 14.949219 44.859375 14.785156 44.832031 C 14.019531 44.707031 13.265625 44.507812 12.539062 44.234375 C 12.382812 44.171875 12.214844 44.164062 12.050781 44.203125 C 11.886719 44.242188 11.742188 44.328125 11.628906 44.453125 L 9.6875 46.59375 C 9.339844 46.414062 9 46.21875 8.664062 46.011719 L 9.550781 43.265625 C 9.652344 42.9375 9.550781 42.582031 9.285156 42.363281 C 8.679688 41.871094 8.128906 41.316406 7.636719 40.714844 C 7.53125 40.585938 7.386719 40.488281 7.226562 40.441406 C 7.066406 40.394531 6.894531 40.398438 6.734375 40.449219 L 3.988281 41.335938 C 3.78125 41 3.585938 40.660156 3.40625 40.308594 L 5.546875 38.371094 C 5.671875 38.257812 5.757812 38.109375 5.796875 37.949219 C 5.835938 37.785156 5.824219 37.613281 5.765625 37.457031 C 5.492188 36.730469 5.292969 35.980469 5.167969 35.214844 C 5.140625 35.050781 5.066406 34.898438 4.949219 34.773438 C 4.832031 34.652344 4.683594 34.570312 4.519531 34.535156 L 1.683594 33.925781 C 1.675781 33.730469 1.667969 33.53125 1.667969 33.332031 C 1.667969 33.132812 1.671875 32.9375 1.683594 32.742188 Z M 43.515625 11.863281 C 43.667969 11.8125 43.804688 11.722656 43.90625 11.597656 C 44.011719 11.472656 44.074219 11.324219 44.09375 11.164062 C 44.144531 10.742188 44.167969 10.359375 44.167969 10 C 44.167969 9.636719 44.144531 9.257812 44.09375 8.835938 C 44.074219 8.675781 44.011719 8.523438 43.910156 8.402344 C 43.804688 8.277344 43.671875 8.183594 43.515625 8.136719 L 41.207031 7.410156 C 41.136719 7.222656 41.058594 7.035156 40.976562 6.855469 L 42.097656 4.707031 C 42.171875 4.566406 42.203125 4.40625 42.1875 4.246094 C 42.171875 4.085938 42.109375 3.933594 42.011719 3.804688 C 41.527344 3.195312 40.972656 2.640625 40.363281 2.15625 C 40.234375 2.058594 40.082031 1.996094 39.921875 1.980469 C 39.761719 1.964844 39.601562 1.996094 39.460938 2.070312 L 37.3125 3.191406 C 37.128906 3.109375 36.945312 3.03125 36.753906 2.960938 L 36.027344 0.652344 C 35.980469 0.496094 35.890625 0.363281 35.765625 0.257812 C 35.640625 0.15625 35.488281 0.09375 35.328125 0.0742188 C 34.558594 -0.0234375 33.773438 -0.0234375 33.003906 0.0742188 C 32.84375 0.09375 32.691406 0.15625 32.566406 0.257812 C 32.445312 0.363281 32.351562 0.496094 32.304688 0.652344 L 31.578125 2.960938 C 31.386719 3.03125 31.203125 3.109375 31.019531 3.191406 L 28.875 2.070312 C 28.730469 2 28.570312 1.964844 28.410156 1.980469 C 28.25 1.996094 28.097656 2.058594 27.972656 2.15625 C 27.359375 2.640625 26.808594 3.195312 26.324219 3.804688 C 26.222656 3.933594 26.164062 4.085938 26.148438 4.246094 C 26.132812 4.40625 26.164062 4.566406 26.238281 4.707031 L 27.355469 6.855469 C 27.273438 7.035156 27.195312 7.222656 27.128906 7.410156 L 24.816406 8.136719 C 24.664062 8.183594 24.527344 8.277344 24.425781 8.402344 C 24.320312 8.523438 24.257812 8.675781 24.238281 8.835938 C 24.191406 9.257812 24.167969 9.636719 24.167969 10 C 24.167969 10.359375 24.191406 10.742188 24.238281 11.164062 C 24.257812 11.324219 24.320312 11.472656 24.425781 11.597656 C 24.527344 11.722656 24.664062 11.8125 24.816406 11.863281 L 27.128906 12.589844 C 27.195312 12.777344 27.273438 12.964844 27.359375 13.144531 L 26.238281 15.289062 C 26.085938 15.582031 26.121094 15.933594 26.324219 16.191406 C 26.808594 16.804688 27.359375 17.359375 27.972656 17.84375 C 28.230469 18.046875 28.582031 18.078125 28.875 17.929688 L 31.019531 16.808594 C 31.203125 16.890625 31.386719 16.96875 31.578125 17.039062 L 32.300781 19.347656 C 32.351562 19.503906 32.441406 19.636719 32.566406 19.742188 C 32.691406 19.84375 32.839844 19.90625 33 19.925781 C 33.425781 19.976562 33.804688 20 34.167969 20 C 34.527344 20 34.910156 19.976562 35.328125 19.925781 C 35.488281 19.910156 35.640625 19.84375 35.765625 19.742188 C 35.890625 19.640625 35.980469 19.503906 36.027344 19.347656 L 36.753906 17.039062 C 36.945312 16.96875 37.128906 16.894531 37.3125 16.808594 L 39.457031 17.929688 C 39.601562 18.003906 39.761719 18.035156 39.921875 18.019531 C 40.082031 18.003906 40.234375 17.945312 40.359375 17.84375 C 40.972656 17.359375 41.523438 16.804688 42.007812 16.195312 C 42.109375 16.070312 42.171875 15.917969 42.183594 15.757812 C 42.199219 15.597656 42.167969 15.433594 42.09375 15.292969 L 40.976562 13.144531 C 41.058594 12.964844 41.136719 12.777344 41.203125 12.589844 Z M 40.300781 11.125 C 40.035156 11.207031 39.832031 11.417969 39.75 11.679688 C 39.636719 12.054688 39.488281 12.414062 39.304688 12.757812 C 39.242188 12.878906 39.207031 13.011719 39.207031 13.148438 C 39.207031 13.285156 39.238281 13.417969 39.300781 13.539062 L 40.359375 15.566406 C 40.160156 15.785156 39.953125 15.996094 39.734375 16.191406 L 37.707031 15.132812 C 37.585938 15.070312 37.453125 15.039062 37.316406 15.039062 C 37.179688 15.039062 37.046875 15.074219 36.925781 15.140625 C 36.582031 15.324219 36.222656 15.472656 35.847656 15.582031 C 35.71875 15.621094 35.597656 15.695312 35.503906 15.789062 C 35.40625 15.882812 35.332031 16.003906 35.292969 16.132812 L 34.605469 18.320312 C 34.3125 18.335938 34.019531 18.335938 33.726562 18.320312 L 33.039062 16.132812 C 33 16.003906 32.925781 15.882812 32.832031 15.789062 C 32.734375 15.695312 32.617188 15.621094 32.484375 15.582031 C 32.113281 15.472656 31.75 15.324219 31.40625 15.140625 C 31.289062 15.074219 31.152344 15.039062 31.019531 15.039062 C 30.882812 15.039062 30.746094 15.070312 30.625 15.132812 L 28.601562 16.191406 C 28.382812 15.992188 28.171875 15.785156 27.976562 15.566406 L 29.03125 13.539062 C 29.09375 13.417969 29.128906 13.285156 29.125 13.148438 C 29.125 13.011719 29.09375 12.878906 29.027344 12.757812 C 28.84375 12.414062 28.695312 12.054688 28.582031 11.679688 C 28.542969 11.550781 28.472656 11.433594 28.378906 11.335938 C 28.28125 11.238281 28.164062 11.167969 28.035156 11.125 L 25.847656 10.4375 C 25.828125 10.144531 25.828125 9.851562 25.847656 9.558594 L 28.035156 8.875 C 28.296875 8.789062 28.503906 8.582031 28.582031 8.316406 C 28.695312 7.941406 28.847656 7.578125 29.027344 7.242188 C 29.09375 7.121094 29.125 6.988281 29.128906 6.851562 C 29.128906 6.714844 29.09375 6.582031 29.03125 6.460938 L 27.976562 4.433594 C 28.171875 4.214844 28.382812 4.003906 28.601562 3.808594 L 30.625 4.867188 C 30.871094 4.992188 31.164062 4.992188 31.40625 4.859375 C 31.75 4.675781 32.113281 4.527344 32.484375 4.414062 C 32.75 4.335938 32.957031 4.128906 33.039062 3.867188 L 33.726562 1.679688 C 34.019531 1.660156 34.3125 1.660156 34.605469 1.679688 L 35.292969 3.867188 C 35.375 4.128906 35.582031 4.335938 35.847656 4.414062 C 36.226562 4.527344 36.589844 4.679688 36.925781 4.859375 C 37.046875 4.925781 37.179688 4.960938 37.316406 4.960938 C 37.453125 4.960938 37.585938 4.929688 37.707031 4.867188 L 39.734375 3.808594 C 39.953125 4.003906 40.160156 4.214844 40.359375 4.433594 L 39.300781 6.460938 C 39.238281 6.582031 39.207031 6.714844 39.207031 6.851562 C 39.207031 6.984375 39.242188 7.121094 39.304688 7.238281 C 39.488281 7.578125 39.636719 7.941406 39.75 8.316406 C 39.828125 8.582031 40.035156 8.789062 40.300781 8.875 L 42.484375 9.558594 C 42.503906 9.851562 42.503906 10.144531 42.484375 10.4375 Z M 49.386719 27.46875 L 47.953125 26.960938 C 47.871094 26.730469 47.777344 26.503906 47.671875 26.28125 L 48.324219 24.910156 C 48.390625 24.769531 48.417969 24.613281 48.398438 24.460938 C 48.382812 24.308594 48.324219 24.160156 48.226562 24.039062 C 47.808594 23.503906 47.328125 23.023438 46.792969 22.605469 C 46.671875 22.511719 46.527344 22.453125 46.371094 22.433594 C 46.21875 22.417969 46.0625 22.441406 45.921875 22.507812 L 44.550781 23.160156 C 44.332031 23.054688 44.101562 22.960938 43.871094 22.878906 L 43.363281 21.449219 C 43.308594 21.304688 43.21875 21.175781 43.097656 21.078125 C 42.976562 20.980469 42.832031 20.917969 42.675781 20.902344 C 42.007812 20.8125 41.328125 20.8125 40.65625 20.902344 C 40.5 20.917969 40.355469 20.980469 40.234375 21.078125 C 40.113281 21.175781 40.023438 21.300781 39.96875 21.449219 L 39.460938 22.878906 C 39.230469 22.960938 39 23.054688 38.78125 23.160156 L 37.410156 22.511719 C 37.269531 22.445312 37.113281 22.417969 36.960938 22.433594 C 36.808594 22.453125 36.660156 22.511719 36.539062 22.605469 C 36.007812 23.023438 35.523438 23.503906 35.105469 24.039062 C 35.011719 24.160156 34.953125 24.308594 34.933594 24.460938 C 34.917969 24.613281 34.945312 24.769531 35.011719 24.910156 L 35.660156 26.28125 C 35.554688 26.503906 35.460938 26.730469 35.378906 26.960938 L 33.949219 27.472656 C 33.804688 27.523438 33.675781 27.613281 33.578125 27.734375 C 33.480469 27.855469 33.417969 28.003906 33.402344 28.15625 C 33.355469 28.527344 33.332031 28.855469 33.332031 29.167969 C 33.332031 29.476562 33.355469 29.804688 33.398438 30.175781 C 33.4375 30.492188 33.648438 30.757812 33.949219 30.863281 L 35.378906 31.371094 C 35.460938 31.601562 35.554688 31.832031 35.660156 32.050781 L 35.011719 33.421875 C 34.945312 33.5625 34.917969 33.71875 34.933594 33.871094 C 34.953125 34.023438 35.011719 34.171875 35.105469 34.292969 C 35.523438 34.824219 36.003906 35.308594 36.539062 35.726562 C 36.789062 35.917969 37.125 35.957031 37.410156 35.820312 L 38.78125 35.171875 C 39 35.277344 39.230469 35.371094 39.460938 35.453125 L 39.972656 36.882812 C 40.078125 37.179688 40.34375 37.394531 40.65625 37.429688 C 41.027344 37.476562 41.355469 37.5 41.667969 37.5 C 41.976562 37.5 42.308594 37.476562 42.675781 37.433594 C 42.832031 37.414062 42.976562 37.351562 43.097656 37.257812 C 43.21875 37.160156 43.3125 37.03125 43.363281 36.882812 L 43.871094 35.453125 C 44.101562 35.371094 44.332031 35.277344 44.550781 35.171875 L 45.921875 35.824219 C 46.0625 35.890625 46.21875 35.914062 46.371094 35.898438 C 46.523438 35.882812 46.671875 35.820312 46.792969 35.726562 C 47.324219 35.308594 47.808594 34.828125 48.226562 34.292969 C 48.421875 34.046875 48.457031 33.707031 48.324219 33.421875 L 47.671875 32.050781 C 47.777344 31.832031 47.871094 31.605469 47.953125 31.371094 L 49.382812 30.863281 C 49.679688 30.757812 49.894531 30.492188 49.933594 30.175781 C 49.976562 29.804688 50 29.476562 50 29.167969 C 50 28.855469 49.976562 28.527344 49.933594 28.15625 C 49.914062 28 49.855469 27.855469 49.757812 27.734375 C 49.660156 27.613281 49.53125 27.523438 49.386719 27.46875 Z M 48.324219 29.46875 L 47.003906 29.941406 C 46.878906 29.984375 46.765625 30.058594 46.671875 30.15625 C 46.582031 30.253906 46.515625 30.375 46.480469 30.503906 C 46.371094 30.894531 46.21875 31.269531 46.015625 31.625 C 45.882812 31.859375 45.875 32.148438 45.988281 32.390625 L 46.589844 33.652344 C 46.449219 33.804688 46.304688 33.949219 46.152344 34.085938 L 44.894531 33.488281 C 44.773438 33.433594 44.640625 33.40625 44.507812 33.410156 C 44.371094 33.414062 44.242188 33.449219 44.125 33.515625 C 43.777344 33.714844 43.398438 33.871094 43.003906 33.980469 C 42.875 34.015625 42.757812 34.082031 42.660156 34.171875 C 42.5625 34.261719 42.484375 34.375 42.441406 34.503906 L 41.972656 35.824219 C 41.769531 35.835938 41.566406 35.835938 41.363281 35.824219 L 40.894531 34.503906 C 40.847656 34.375 40.773438 34.261719 40.675781 34.171875 C 40.578125 34.082031 40.460938 34.015625 40.332031 33.980469 C 39.941406 33.871094 39.5625 33.714844 39.210938 33.515625 C 39.09375 33.449219 38.960938 33.414062 38.828125 33.410156 C 38.695312 33.40625 38.5625 33.433594 38.441406 33.488281 L 37.179688 34.085938 C 37.03125 33.949219 36.882812 33.804688 36.746094 33.652344 L 37.34375 32.390625 C 37.402344 32.269531 37.429688 32.136719 37.425781 32.003906 C 37.421875 31.871094 37.382812 31.742188 37.316406 31.625 C 37.117188 31.269531 36.960938 30.894531 36.855469 30.503906 C 36.820312 30.375 36.753906 30.253906 36.660156 30.15625 C 36.570312 30.058594 36.457031 29.984375 36.332031 29.941406 L 35.011719 29.46875 C 34.996094 29.269531 34.996094 29.066406 35.007812 28.863281 L 36.328125 28.390625 C 36.457031 28.347656 36.570312 28.273438 36.660156 28.175781 C 36.75 28.078125 36.816406 27.957031 36.851562 27.828125 C 36.960938 27.4375 37.117188 27.0625 37.316406 26.707031 C 37.449219 26.472656 37.460938 26.183594 37.34375 25.941406 L 36.746094 24.679688 C 36.882812 24.527344 37.027344 24.382812 37.179688 24.246094 L 38.441406 24.84375 C 38.683594 24.960938 38.972656 24.949219 39.207031 24.816406 C 39.558594 24.617188 39.933594 24.460938 40.328125 24.351562 C 40.589844 24.28125 40.800781 24.085938 40.890625 23.828125 L 41.363281 22.507812 C 41.5625 22.496094 41.769531 22.496094 41.96875 22.507812 L 42.4375 23.828125 C 42.484375 23.953125 42.558594 24.066406 42.65625 24.160156 C 42.753906 24.25 42.871094 24.316406 43 24.351562 C 43.394531 24.460938 43.769531 24.617188 44.125 24.816406 C 44.242188 24.882812 44.371094 24.917969 44.503906 24.921875 C 44.636719 24.929688 44.769531 24.902344 44.890625 24.84375 L 46.152344 24.246094 C 46.304688 24.382812 46.449219 24.527344 46.585938 24.679688 L 45.988281 25.941406 C 45.929688 26.058594 45.902344 26.191406 45.910156 26.328125 C 45.914062 26.460938 45.949219 26.589844 46.015625 26.707031 C 46.214844 27.058594 46.371094 27.433594 46.476562 27.828125 C 46.550781 28.089844 46.746094 28.300781 47.003906 28.390625 L 48.324219 28.859375 C 48.335938 29.0625 48.335938 29.265625 48.324219 29.46875 Z M 48.324219 29.46875 "/>
<path style=" stroke:none;fill-rule:nonzero;fill:rgb(24.705882%,74.117647%,63.529412%);fill-opacity:1;" d="M 16.667969 42.5 C 21.722656 42.5 25.832031 38.386719 25.832031 33.332031 C 25.832031 28.277344 21.722656 24.167969 16.667969 24.167969 C 11.613281 24.167969 7.5 28.277344 7.5 33.332031 C 7.5 38.386719 11.613281 42.5 16.667969 42.5 Z M 16.667969 25.832031 C 20.800781 25.832031 24.167969 29.199219 24.167969 33.332031 C 24.167969 37.46875 20.800781 40.832031 16.667969 40.832031 C 12.53125 40.832031 9.167969 37.46875 9.167969 33.332031 C 9.167969 29.199219 12.53125 25.832031 16.667969 25.832031 Z M 0.0195312 19.464844 L 1.296875 20.53125 C 3.171875 18.277344 5.523438 16.460938 8.179688 15.21875 C 10.835938 13.972656 13.734375 13.328125 16.667969 13.332031 C 17.089844 13.332031 17.515625 13.355469 17.9375 13.382812 L 16.910156 14.410156 L 18.089844 15.589844 L 20.589844 13.089844 C 20.667969 13.011719 20.726562 12.917969 20.769531 12.820312 C 20.8125 12.71875 20.832031 12.609375 20.832031 12.5 C 20.832031 12.390625 20.8125 12.28125 20.769531 12.179688 C 20.726562 12.078125 20.667969 11.988281 20.589844 11.910156 L 18.089844 9.410156 L 16.910156 10.589844 L 18.042969 11.722656 C 17.585938 11.6875 17.125 11.671875 16.667969 11.667969 C 13.488281 11.664062 10.351562 12.359375 7.472656 13.707031 C 4.59375 15.054688 2.050781 17.023438 0.0195312 19.464844 Z M 34.167969 5.832031 C 31.871094 5.832031 30 7.703125 30 10 C 30 12.296875 31.871094 14.167969 34.167969 14.167969 C 36.464844 14.167969 38.332031 12.296875 38.332031 10 C 38.332031 7.703125 36.464844 5.832031 34.167969 5.832031 Z M 34.167969 12.5 C 32.789062 12.5 31.667969 11.378906 31.667969 10 C 31.667969 8.621094 32.789062 7.5 34.167969 7.5 C 35.546875 7.5 36.667969 8.621094 36.667969 10 C 36.667969 11.378906 35.546875 12.5 34.167969 12.5 Z M 41.667969 25.832031 C 39.828125 25.832031 38.332031 27.328125 38.332031 29.167969 C 38.332031 31.003906 39.828125 32.5 41.667969 32.5 C 43.503906 32.5 45 31.003906 45 29.167969 C 45 27.328125 43.503906 25.832031 41.667969 25.832031 Z M 41.667969 30.832031 C 40.746094 30.832031 40 30.085938 40 29.167969 C 40 28.246094 40.746094 27.5 41.667969 27.5 C 42.585938 27.5 43.332031 28.246094 43.332031 29.167969 C 43.332031 30.085938 42.585938 30.832031 41.667969 30.832031 Z M 49.328125 2.515625 L 45.164062 1.683594 C 45.054688 1.660156 44.945312 1.660156 44.839844 1.683594 C 44.730469 1.703125 44.628906 1.746094 44.539062 1.804688 C 44.445312 1.867188 44.367188 1.945312 44.308594 2.035156 C 44.246094 2.125 44.203125 2.230469 44.183594 2.335938 L 43.347656 6.503906 L 44.984375 6.832031 L 45.433594 4.585938 C 46.246094 6.277344 46.667969 8.125 46.667969 10 C 46.675781 12.839844 45.710938 15.601562 43.925781 17.8125 L 45.226562 18.855469 C 47.234375 16.339844 48.332031 13.21875 48.332031 10 C 48.332031 7.816406 47.828125 5.664062 46.871094 3.722656 L 49.003906 4.152344 Z M 49.328125 2.515625 "/>
</g>
</svg>
