<?xml version="1.0" encoding="UTF-8"?>
<svg xmlns="http://www.w3.org/2000/svg" xmlns:xlink="http://www.w3.org/1999/xlink" width="50px" height="50px" viewBox="0 0 50 59" version="1.1">
<g id="surface1">
<path style=" stroke:none;fill-rule:nonzero;fill:rgb(24.705882%,74.117647%,63.529412%);fill-opacity:1;" d="M 43.714844 46.707031 C 40.269531 46.707031 37.472656 43.949219 37.472656 40.5625 C 37.472656 37.175781 40.269531 34.417969 43.714844 34.417969 C 47.160156 34.417969 49.960938 37.175781 49.960938 40.5625 C 49.960938 43.949219 47.160156 46.707031 43.714844 46.707031 Z M 43.714844 36.875 C 41.648438 36.875 39.96875 38.53125 39.96875 40.5625 C 39.96875 42.59375 41.648438 44.25 43.714844 44.25 C 45.78125 44.25 47.460938 42.59375 47.460938 40.5625 C 47.460938 38.53125 45.78125 36.875 43.714844 36.875 Z M 43.714844 36.875 "/>
<path style=" stroke:none;fill-rule:nonzero;fill:rgb(10.588235%,15.686275%,29.411765%);fill-opacity:1;" d="M 48.710938 59 C 48.519531 59 48.328125 58.953125 48.152344 58.871094 L 43.714844 56.6875 L 39.277344 58.871094 C 39.070312 58.972656 38.835938 59.015625 38.601562 58.992188 C 38.371094 58.96875 38.148438 58.882812 37.964844 58.746094 C 37.777344 58.605469 37.636719 58.417969 37.554688 58.203125 C 37.46875 57.988281 37.449219 57.753906 37.496094 57.527344 L 39.992188 45.234375 C 40.027344 45.078125 40.089844 44.925781 40.179688 44.792969 C 40.273438 44.660156 40.390625 44.542969 40.527344 44.453125 C 40.664062 44.363281 40.816406 44.300781 40.976562 44.269531 C 41.136719 44.238281 41.304688 44.238281 41.464844 44.269531 C 41.625 44.300781 41.777344 44.363281 41.914062 44.453125 C 42.050781 44.542969 42.167969 44.660156 42.257812 44.792969 C 42.351562 44.929688 42.414062 45.078125 42.445312 45.238281 C 42.476562 45.394531 42.476562 45.558594 42.445312 45.71875 L 40.445312 55.546875 L 43.160156 54.210938 C 43.332031 54.125 43.523438 54.082031 43.71875 54.082031 C 43.910156 54.082031 44.101562 54.125 44.277344 54.210938 L 46.988281 55.546875 L 44.988281 45.71875 C 44.957031 45.558594 44.957031 45.394531 44.988281 45.238281 C 45.019531 45.078125 45.082031 44.929688 45.175781 44.792969 C 45.265625 44.660156 45.382812 44.542969 45.519531 44.453125 C 45.65625 44.363281 45.808594 44.304688 45.972656 44.273438 C 46.296875 44.210938 46.632812 44.277344 46.90625 44.457031 C 47.183594 44.636719 47.375 44.917969 47.441406 45.234375 L 49.9375 57.527344 C 49.972656 57.707031 49.96875 57.890625 49.925781 58.066406 C 49.878906 58.242188 49.796875 58.40625 49.679688 58.546875 C 49.5625 58.6875 49.414062 58.800781 49.246094 58.878906 C 49.078125 58.957031 48.898438 59 48.710938 59 Z M 33.722656 54.082031 L 1.25 54.082031 C 0.917969 54.082031 0.601562 53.953125 0.367188 53.722656 C 0.132812 53.492188 0 53.179688 0 52.855469 L 0 15.980469 C 0 15.652344 0.132812 15.339844 0.363281 15.109375 L 15.351562 0.359375 C 15.589844 0.128906 15.90625 0 16.238281 0 L 43.714844 0 C 44.046875 0 44.363281 0.128906 44.597656 0.359375 C 44.832031 0.589844 44.964844 0.902344 44.964844 1.230469 L 44.964844 30.730469 C 44.964844 31.054688 44.832031 31.367188 44.597656 31.597656 C 44.363281 31.828125 44.046875 31.957031 43.714844 31.957031 C 43.382812 31.957031 43.066406 31.828125 42.832031 31.597656 C 42.597656 31.367188 42.46875 31.054688 42.46875 30.730469 L 42.46875 2.457031 L 16.753906 2.457031 L 2.496094 16.488281 L 2.496094 51.625 L 33.722656 51.625 C 34.054688 51.625 34.371094 51.753906 34.605469 51.984375 C 34.839844 52.214844 34.972656 52.527344 34.972656 52.855469 C 34.972656 53.179688 34.839844 53.492188 34.605469 53.722656 C 34.371094 53.953125 34.054688 54.082031 33.722656 54.082031 Z M 33.722656 54.082031 "/>
<path style=" stroke:none;fill-rule:nonzero;fill:rgb(10.588235%,15.686275%,29.411765%);fill-opacity:1;" d="M 16.238281 17.207031 L 1.25 17.207031 C 0.917969 17.207031 0.601562 17.078125 0.367188 16.847656 C 0.132812 16.617188 0 16.304688 0 15.980469 C 0 15.652344 0.132812 15.339844 0.367188 15.109375 C 0.601562 14.878906 0.917969 14.75 1.25 14.75 L 14.988281 14.75 L 14.988281 1.230469 C 14.988281 0.902344 15.121094 0.589844 15.355469 0.359375 C 15.589844 0.128906 15.90625 0 16.238281 0 C 16.570312 0 16.886719 0.128906 17.121094 0.359375 C 17.355469 0.589844 17.484375 0.902344 17.484375 1.230469 L 17.484375 15.980469 C 17.484375 16.304688 17.355469 16.617188 17.121094 16.847656 C 16.886719 17.078125 16.570312 17.207031 16.238281 17.207031 Z M 31.21875 24.582031 C 27.902344 24.582031 25.222656 22.871094 24.988281 20.597656 C 24.964844 20.433594 24.972656 20.265625 25.015625 20.105469 C 25.058594 19.945312 25.136719 19.796875 25.238281 19.667969 C 25.34375 19.535156 25.472656 19.425781 25.621094 19.347656 C 25.769531 19.265625 25.929688 19.214844 26.097656 19.199219 C 26.265625 19.183594 26.433594 19.199219 26.59375 19.25 C 26.757812 19.296875 26.90625 19.378906 27.035156 19.488281 C 27.160156 19.59375 27.265625 19.726562 27.34375 19.875 C 27.417969 20.023438 27.460938 20.183594 27.472656 20.351562 C 27.558594 21.1875 29.121094 22.121094 31.21875 22.121094 C 33.332031 22.121094 34.972656 21.132812 34.972656 20.28125 C 34.972656 19.707031 34.332031 18.921875 31.285156 18.460938 L 31.019531 18.421875 C 29.355469 18.167969 24.980469 17.507812 24.980469 14.132812 C 24.980469 11.722656 27.726562 9.832031 31.230469 9.832031 C 34.550781 9.832031 37.226562 11.542969 37.464844 13.8125 C 37.488281 13.976562 37.476562 14.140625 37.433594 14.300781 C 37.390625 14.460938 37.316406 14.613281 37.210938 14.742188 C 37.109375 14.875 36.976562 14.980469 36.832031 15.0625 C 36.683594 15.144531 36.519531 15.191406 36.351562 15.210938 C 36.1875 15.226562 36.015625 15.210938 35.855469 15.160156 C 35.695312 15.109375 35.546875 15.03125 35.417969 14.921875 C 35.289062 14.816406 35.183594 14.683594 35.109375 14.535156 C 35.035156 14.386719 34.988281 14.226562 34.980469 14.058594 C 34.894531 13.222656 33.332031 12.285156 31.230469 12.285156 C 29.117188 12.289062 27.480469 13.28125 27.480469 14.132812 C 27.480469 14.707031 28.121094 15.496094 31.171875 15.953125 L 31.441406 15.996094 C 33.101562 16.246094 37.472656 16.910156 37.472656 20.28125 C 37.472656 22.691406 34.726562 24.582031 31.21875 24.582031 Z M 18.734375 27.042969 L 6.246094 27.042969 C 5.914062 27.042969 5.597656 26.914062 5.363281 26.679688 C 5.128906 26.449219 4.996094 26.136719 4.996094 25.8125 C 4.996094 25.488281 5.128906 25.175781 5.363281 24.945312 C 5.597656 24.710938 5.914062 24.582031 6.246094 24.582031 L 18.734375 24.582031 C 19.066406 24.582031 19.382812 24.710938 19.617188 24.945312 C 19.851562 25.175781 19.984375 25.488281 19.984375 25.8125 C 19.984375 26.136719 19.851562 26.449219 19.617188 26.679688 C 19.382812 26.914062 19.066406 27.042969 18.734375 27.042969 Z M 33.722656 36.875 L 6.246094 36.875 C 5.914062 36.875 5.597656 36.746094 5.363281 36.515625 C 5.128906 36.285156 4.996094 35.972656 4.996094 35.644531 C 4.996094 35.320312 5.128906 35.007812 5.363281 34.777344 C 5.597656 34.546875 5.914062 34.417969 6.246094 34.417969 L 33.722656 34.417969 C 34.054688 34.417969 34.371094 34.546875 34.605469 34.777344 C 34.839844 35.007812 34.972656 35.320312 34.972656 35.644531 C 34.972656 35.972656 34.839844 36.285156 34.605469 36.515625 C 34.371094 36.746094 34.054688 36.875 33.722656 36.875 Z M 16.238281 46.707031 L 6.246094 46.707031 C 5.914062 46.707031 5.597656 46.578125 5.363281 46.347656 C 5.128906 46.117188 4.996094 45.804688 4.996094 45.480469 C 4.996094 45.152344 5.128906 44.839844 5.363281 44.609375 C 5.597656 44.378906 5.914062 44.25 6.246094 44.25 L 16.238281 44.25 C 16.570312 44.25 16.886719 44.378906 17.121094 44.609375 C 17.355469 44.839844 17.484375 45.152344 17.484375 45.480469 C 17.484375 45.804688 17.355469 46.117188 17.121094 46.347656 C 16.886719 46.578125 16.570312 46.707031 16.238281 46.707031 Z M 16.238281 46.707031 "/>
<path style=" stroke:none;fill-rule:nonzero;fill:rgb(24.705882%,74.117647%,63.529412%);fill-opacity:1;" d="M 31.226562 27.042969 C 30.894531 27.042969 30.578125 26.914062 30.34375 26.679688 C 30.109375 26.449219 29.976562 26.136719 29.976562 25.8125 L 29.976562 8.605469 C 29.976562 8.277344 30.109375 7.964844 30.34375 7.734375 C 30.578125 7.503906 30.894531 7.375 31.226562 7.375 C 31.558594 7.375 31.875 7.503906 32.109375 7.734375 C 32.34375 7.964844 32.472656 8.277344 32.472656 8.605469 L 32.472656 25.8125 C 32.472656 26.136719 32.34375 26.449219 32.109375 26.679688 C 31.875 26.914062 31.558594 27.042969 31.226562 27.042969 Z M 31.226562 27.042969 "/>
</g>
</svg>
