<?xml version="1.0" encoding="UTF-8"?>
<svg xmlns="http://www.w3.org/2000/svg" xmlns:xlink="http://www.w3.org/1999/xlink" width="50px" height="50px" viewBox="0 0 50 50" version="1.1">
<g id="surface1">
<path style=" stroke:none;fill-rule:nonzero;fill:rgb(24.705882%,74.117647%,63.529412%);fill-opacity:1;" d="M 5.832031 3.332031 L 5 3.332031 C 4.539062 3.332031 4.167969 3.707031 4.167969 4.167969 C 4.167969 4.625 4.539062 5 5 5 L 5.832031 5 C 6.292969 5 6.667969 4.628906 6.667969 4.167969 C 6.667969 3.707031 6.292969 3.332031 5.832031 3.332031 Z M 10 3.332031 L 9.167969 3.332031 C 8.945312 3.332031 8.734375 3.421875 8.578125 3.578125 C 8.421875 3.734375 8.332031 3.945312 8.332031 4.167969 C 8.332031 4.386719 8.421875 4.597656 8.578125 4.753906 C 8.734375 4.914062 8.945312 5 9.167969 5 L 10 5 C 10.460938 5 10.832031 4.625 10.832031 4.167969 C 10.832031 3.707031 10.460938 3.332031 10 3.332031 Z M 14.167969 3.332031 L 13.332031 3.332031 C 12.875 3.332031 12.5 3.707031 12.5 4.167969 C 12.5 4.625 12.875 5 13.332031 5 L 14.167969 5 C 14.386719 5 14.601562 4.914062 14.757812 4.753906 C 14.914062 4.597656 15 4.386719 15 4.167969 C 15 3.945312 14.914062 3.734375 14.757812 3.578125 C 14.601562 3.421875 14.386719 3.332031 14.167969 3.332031 Z M 40 3.332031 L 17.5 3.332031 C 17.039062 3.332031 16.667969 3.707031 16.667969 4.167969 C 16.667969 4.625 17.039062 5 17.5 5 L 40 5 C 40.460938 5 40.832031 4.625 40.832031 4.167969 C 40.832031 3.707031 40.460938 3.332031 40 3.332031 Z M 40 3.332031 "/>
<path style=" stroke:none;fill-rule:nonzero;fill:rgb(10.588235%,15.686275%,29.411765%);fill-opacity:1;" d="M 48.332031 30 L 47.5 30 L 47.5 25.832031 C 47.5 23.5 46.605469 21.253906 45 19.5625 L 45 4.167969 C 44.996094 1.867188 43.132812 0.00390625 40.832031 0 L 4.167969 0 C 1.867188 0.00390625 0.00390625 1.867188 0 4.167969 L 0 37.5 C 0.00390625 39.800781 1.867188 41.664062 4.167969 41.667969 L 26.667969 41.667969 L 26.667969 44.167969 C 26.671875 47.386719 29.28125 49.996094 32.5 50 L 44.167969 50 C 47.386719 49.996094 49.996094 47.386719 50 44.167969 L 50 31.667969 C 50 30.746094 49.253906 30 48.332031 30 Z M 45.832031 25.832031 L 45.832031 30 L 30.832031 30 L 30.832031 25.832031 C 30.832031 21.691406 34.191406 18.332031 38.332031 18.332031 C 42.476562 18.332031 45.832031 21.691406 45.832031 25.832031 Z M 1.667969 4.167969 C 1.667969 2.785156 2.785156 1.667969 4.167969 1.667969 L 40.832031 1.667969 C 42.214844 1.667969 43.332031 2.785156 43.332031 4.167969 L 43.332031 6.667969 L 1.667969 6.667969 Z M 26.667969 31.667969 L 26.667969 40 L 4.167969 40 C 2.785156 40 1.667969 38.878906 1.667969 37.5 L 1.667969 8.332031 L 43.332031 8.332031 L 43.332031 18.160156 C 40.519531 16.320312 36.917969 16.167969 33.960938 17.769531 C 31.003906 19.375 29.164062 22.46875 29.167969 25.832031 L 29.167969 30 L 28.332031 30 C 27.414062 30 26.667969 30.746094 26.667969 31.667969 Z M 48.332031 33.332031 L 45.832031 33.332031 C 45.375 33.332031 45 33.707031 45 34.167969 C 45 34.625 45.375 35 45.832031 35 L 48.332031 35 L 48.332031 36.667969 L 45.832031 36.667969 C 45.375 36.667969 45 37.039062 45 37.5 C 45 37.960938 45.375 38.332031 45.832031 38.332031 L 48.332031 38.332031 L 48.332031 40 L 45.832031 40 C 45.375 40 45 40.371094 45 40.832031 C 45 41.292969 45.375 41.667969 45.832031 41.667969 L 48.332031 41.667969 L 48.332031 43.332031 L 45.832031 43.332031 C 45.613281 43.332031 45.398438 43.421875 45.242188 43.578125 C 45.085938 43.734375 45 43.945312 45 44.167969 C 45 44.386719 45.085938 44.597656 45.242188 44.757812 C 45.398438 44.914062 45.613281 45 45.832031 45 L 48.25 45 C 47.851562 46.9375 46.144531 48.332031 44.167969 48.332031 L 32.5 48.332031 C 30.519531 48.332031 28.816406 46.9375 28.417969 45 L 30.832031 45 C 31.054688 45 31.265625 44.914062 31.421875 44.757812 C 31.578125 44.597656 31.667969 44.386719 31.667969 44.167969 C 31.667969 43.945312 31.578125 43.734375 31.421875 43.578125 C 31.265625 43.421875 31.054688 43.332031 30.832031 43.332031 L 28.332031 43.332031 L 28.332031 41.667969 L 30.832031 41.667969 C 31.292969 41.667969 31.667969 41.292969 31.667969 40.832031 C 31.667969 40.371094 31.292969 40 30.832031 40 L 28.332031 40 L 28.332031 38.332031 L 30.832031 38.332031 C 31.292969 38.332031 31.667969 37.960938 31.667969 37.5 C 31.667969 37.039062 31.292969 36.667969 30.832031 36.667969 L 28.332031 36.667969 L 28.332031 35 L 30.832031 35 C 31.292969 35 31.667969 34.625 31.667969 34.167969 C 31.667969 33.707031 31.292969 33.332031 30.832031 33.332031 L 28.332031 33.332031 L 28.332031 31.667969 L 48.332031 31.667969 Z M 48.332031 33.332031 "/>
<path style=" stroke:none;fill-rule:nonzero;fill:rgb(24.705882%,74.117647%,63.529412%);fill-opacity:1;" d="M 37.5 40.679688 L 37.5 42.5 C 37.5 42.722656 37.585938 42.933594 37.742188 43.089844 C 37.898438 43.246094 38.113281 43.332031 38.332031 43.332031 C 38.554688 43.332031 38.765625 43.246094 38.921875 43.089844 C 39.078125 42.933594 39.167969 42.722656 39.167969 42.5 L 39.167969 40.679688 C 40.3125 40.277344 41.003906 39.101562 40.796875 37.90625 C 40.589844 36.707031 39.550781 35.832031 38.332031 35.832031 C 37.117188 35.832031 36.078125 36.707031 35.871094 37.90625 C 35.664062 39.101562 36.351562 40.277344 37.5 40.679688 Z M 38.332031 37.5 C 38.554688 37.5 38.765625 37.585938 38.921875 37.742188 C 39.078125 37.898438 39.167969 38.113281 39.167969 38.332031 C 39.167969 38.554688 39.078125 38.765625 38.921875 38.921875 C 38.765625 39.078125 38.554688 39.167969 38.332031 39.167969 C 38.113281 39.167969 37.898438 39.078125 37.742188 38.921875 C 37.585938 38.765625 37.5 38.554688 37.5 38.332031 C 37.5 38.113281 37.585938 37.898438 37.742188 37.742188 C 37.898438 37.585938 38.113281 37.5 38.332031 37.5 Z M 14.167969 16.667969 C 13.945312 16.667969 13.734375 16.753906 13.578125 16.910156 C 13.421875 17.066406 13.332031 17.277344 13.332031 17.5 L 13.332031 20 L 6.667969 20 L 6.667969 13.332031 L 10 13.332031 C 10.460938 13.332031 10.832031 12.960938 10.832031 12.5 C 10.832031 12.039062 10.460938 11.667969 10 11.667969 L 6.667969 11.667969 C 5.746094 11.667969 5 12.414062 5 13.332031 L 5 20 C 5 20.921875 5.746094 21.667969 6.667969 21.667969 L 13.332031 21.667969 C 14.253906 21.667969 15 20.921875 15 20 L 15 17.5 C 15 17.277344 14.914062 17.066406 14.757812 16.910156 C 14.601562 16.753906 14.386719 16.667969 14.167969 16.667969 Z M 14.167969 16.667969 "/>
<path style=" stroke:none;fill-rule:nonzero;fill:rgb(24.705882%,74.117647%,63.529412%);fill-opacity:1;" d="M 8.921875 15.242188 C 8.765625 15.09375 8.554688 15.007812 8.335938 15.011719 C 8.117188 15.011719 7.910156 15.101562 7.753906 15.253906 C 7.601562 15.410156 7.511719 15.617188 7.511719 15.835938 C 7.507812 16.054688 7.59375 16.265625 7.742188 16.421875 L 9.410156 18.089844 C 9.566406 18.246094 9.777344 18.332031 10 18.332031 L 10.039062 18.332031 C 10.152344 18.328125 10.265625 18.300781 10.371094 18.246094 C 10.472656 18.195312 10.566406 18.125 10.640625 18.035156 L 14.808594 13.035156 C 14.875 12.949219 14.929688 12.855469 14.960938 12.75 C 14.996094 12.644531 15.007812 12.535156 14.996094 12.425781 C 14.988281 12.316406 14.957031 12.210938 14.90625 12.113281 C 14.855469 12.015625 14.785156 11.929688 14.699219 11.859375 C 14.617188 11.789062 14.519531 11.738281 14.414062 11.703125 C 14.3125 11.671875 14.199219 11.660156 14.09375 11.671875 C 13.984375 11.679688 13.875 11.710938 13.78125 11.761719 C 13.683594 11.8125 13.597656 11.882812 13.527344 11.964844 L 9.945312 16.265625 Z M 14.167969 30.832031 C 13.945312 30.832031 13.734375 30.921875 13.578125 31.078125 C 13.421875 31.234375 13.332031 31.445312 13.332031 31.667969 L 13.332031 34.167969 L 6.667969 34.167969 L 6.667969 27.5 L 10 27.5 C 10.222656 27.5 10.433594 27.414062 10.589844 27.257812 C 10.746094 27.101562 10.832031 26.886719 10.832031 26.667969 C 10.832031 26.445312 10.746094 26.234375 10.589844 26.078125 C 10.433594 25.921875 10.222656 25.832031 10 25.832031 L 6.667969 25.832031 C 5.746094 25.832031 5 26.578125 5 27.5 L 5 34.167969 C 5 35.085938 5.746094 35.832031 6.667969 35.832031 L 13.332031 35.832031 C 14.253906 35.832031 15 35.085938 15 34.167969 L 15 31.667969 C 15 31.445312 14.914062 31.234375 14.757812 31.078125 C 14.601562 30.921875 14.386719 30.832031 14.167969 30.832031 Z M 14.167969 30.832031 "/>
<path style=" stroke:none;fill-rule:nonzero;fill:rgb(24.705882%,74.117647%,63.529412%);fill-opacity:1;" d="M 8.921875 29.410156 C 8.765625 29.257812 8.554688 29.175781 8.335938 29.175781 C 8.117188 29.179688 7.910156 29.265625 7.753906 29.421875 C 7.601562 29.574219 7.511719 29.785156 7.511719 30.003906 C 7.507812 30.222656 7.59375 30.433594 7.742188 30.589844 L 9.410156 32.257812 C 9.566406 32.414062 9.777344 32.5 10 32.5 L 10.039062 32.5 C 10.152344 32.496094 10.265625 32.464844 10.371094 32.414062 C 10.472656 32.363281 10.566406 32.289062 10.640625 32.203125 L 14.808594 27.203125 C 14.902344 27.089844 14.964844 26.953125 14.988281 26.808594 C 15.011719 26.664062 15 26.519531 14.949219 26.378906 C 14.898438 26.242188 14.8125 26.121094 14.699219 26.027344 C 14.589844 25.933594 14.453125 25.871094 14.308594 25.847656 C 14.164062 25.820312 14.015625 25.835938 13.878906 25.886719 C 13.742188 25.933594 13.621094 26.019531 13.527344 26.132812 L 9.945312 30.433594 Z M 18.332031 14.167969 L 25 14.167969 C 25.460938 14.167969 25.832031 13.792969 25.832031 13.332031 C 25.832031 12.875 25.460938 12.5 25 12.5 L 18.332031 12.5 C 18.113281 12.503906 17.902344 12.589844 17.75 12.746094 C 17.59375 12.902344 17.507812 13.113281 17.507812 13.332031 C 17.507812 13.554688 17.59375 13.761719 17.75 13.917969 C 17.902344 14.074219 18.113281 14.164062 18.332031 14.167969 Z M 30 17.5 C 30 17.277344 29.914062 17.066406 29.757812 16.910156 C 29.601562 16.753906 29.386719 16.667969 29.167969 16.667969 L 18.332031 16.667969 C 17.875 16.667969 17.5 17.039062 17.5 17.5 C 17.5 17.960938 17.875 18.332031 18.332031 18.332031 L 29.167969 18.332031 C 29.277344 18.332031 29.382812 18.3125 29.484375 18.269531 C 29.585938 18.226562 29.679688 18.167969 29.757812 18.089844 C 29.832031 18.011719 29.894531 17.921875 29.9375 17.820312 C 29.976562 17.71875 30 17.609375 30 17.5 Z M 25 26.667969 L 18.332031 26.667969 C 18.113281 26.667969 17.898438 26.753906 17.742188 26.910156 C 17.585938 27.066406 17.5 27.277344 17.5 27.5 C 17.5 27.722656 17.585938 27.933594 17.742188 28.089844 C 17.898438 28.246094 18.113281 28.332031 18.332031 28.332031 L 25 28.332031 C 25.460938 28.332031 25.832031 27.960938 25.832031 27.5 C 25.832031 27.039062 25.460938 26.667969 25 26.667969 Z M 24.167969 30.832031 L 18.332031 30.832031 C 17.875 30.832031 17.5 31.207031 17.5 31.667969 C 17.5 32.125 17.875 32.5 18.332031 32.5 L 24.167969 32.5 C 24.625 32.5 25 32.125 25 31.667969 C 25 31.207031 24.625 30.832031 24.167969 30.832031 Z M 24.167969 30.832031 "/>
</g>
</svg>
