<?xml version="1.0" encoding="UTF-8"?>
<svg xmlns="http://www.w3.org/2000/svg" xmlns:xlink="http://www.w3.org/1999/xlink" width="50px" height="50px" viewBox="0 0 50 51" version="1.1">
<g id="surface1">
<path style=" stroke:none;fill-rule:nonzero;fill:rgb(24.705882%,74.117647%,63.529412%);fill-opacity:1;" d="M 15.59375 12.519531 C 15.65625 12.613281 15.671875 12.699219 15.648438 12.808594 L 15.117188 15.277344 C 15.023438 15.710938 15.09375 16.164062 15.320312 16.546875 C 15.542969 16.929688 15.902344 17.21875 16.328125 17.355469 L 18.753906 18.136719 C 18.863281 18.171875 18.925781 18.226562 18.980469 18.324219 L 20.175781 20.550781 C 20.386719 20.945312 20.738281 21.246094 21.15625 21.398438 C 21.578125 21.550781 22.042969 21.539062 22.457031 21.375 L 24.820312 20.429688 C 24.925781 20.386719 25.011719 20.386719 25.117188 20.429688 L 27.480469 21.375 C 27.894531 21.539062 28.359375 21.550781 28.78125 21.398438 C 29.203125 21.246094 29.550781 20.945312 29.761719 20.550781 L 30.957031 18.324219 C 31.011719 18.226562 31.074219 18.171875 31.183594 18.136719 L 33.609375 17.355469 C 34.035156 17.21875 34.394531 16.929688 34.617188 16.546875 C 34.84375 16.164062 34.914062 15.710938 34.820312 15.277344 L 34.292969 12.808594 C 34.269531 12.699219 34.28125 12.613281 34.34375 12.519531 L 35.695312 10.378906 C 35.933594 10.003906 36.019531 9.550781 35.941406 9.117188 C 35.863281 8.679688 35.625 8.285156 35.273438 8.011719 L 33.261719 6.460938 C 33.175781 6.390625 33.132812 6.316406 33.117188 6.207031 L 32.761719 3.707031 C 32.632812 2.792969 31.832031 2.128906 30.902344 2.164062 L 28.355469 2.25 C 28.242188 2.253906 28.160156 2.226562 28.074219 2.152344 L 26.183594 0.460938 C 25.847656 0.164062 25.417969 0 24.96875 0 C 24.519531 0 24.089844 0.164062 23.757812 0.460938 L 21.863281 2.152344 C 21.777344 2.226562 21.695312 2.253906 21.582031 2.25 L 19.035156 2.164062 C 18.109375 2.132812 17.308594 2.792969 17.175781 3.707031 L 16.824219 6.207031 C 16.808594 6.316406 16.765625 6.390625 16.675781 6.460938 L 14.664062 8.011719 C 14.3125 8.285156 14.074219 8.679688 13.996094 9.117188 C 13.917969 9.550781 14.007812 10.003906 14.246094 10.378906 Z M 15.539062 9.117188 L 17.546875 7.566406 C 17.925781 7.273438 18.160156 6.871094 18.226562 6.402344 L 18.582031 3.902344 C 18.609375 3.699219 18.777344 3.558594 18.988281 3.566406 L 21.535156 3.652344 C 22.011719 3.667969 22.453125 3.511719 22.808594 3.191406 L 24.703125 1.503906 C 24.859375 1.367188 25.082031 1.367188 25.234375 1.503906 L 27.128906 3.191406 C 27.484375 3.511719 27.925781 3.667969 28.40625 3.652344 L 30.953125 3.566406 C 31.15625 3.558594 31.328125 3.699219 31.359375 3.902344 L 31.710938 6.402344 C 31.777344 6.871094 32.015625 7.273438 32.390625 7.566406 L 34.398438 9.117188 C 34.5625 9.246094 34.601562 9.460938 34.492188 9.636719 L 33.140625 11.773438 C 32.886719 12.175781 32.804688 12.636719 32.90625 13.097656 L 33.433594 15.566406 C 33.476562 15.765625 33.367188 15.957031 33.171875 16.019531 L 30.746094 16.800781 C 30.289062 16.949219 29.929688 17.246094 29.707031 17.664062 L 28.507812 19.894531 C 28.414062 20.074219 28.203125 20.148438 28.011719 20.074219 L 25.648438 19.128906 C 25.425781 19.039062 25.199219 18.992188 24.96875 18.992188 C 24.742188 18.992188 24.511719 19.039062 24.289062 19.128906 L 21.925781 20.074219 C 21.734375 20.148438 21.527344 20.074219 21.429688 19.894531 L 20.230469 17.664062 C 20.007812 17.246094 19.648438 16.949219 19.191406 16.800781 L 16.765625 16.019531 C 16.570312 15.957031 16.460938 15.765625 16.503906 15.566406 L 17.03125 13.097656 C 17.132812 12.636719 17.050781 12.175781 16.796875 11.773438 L 15.445312 9.636719 C 15.335938 9.460938 15.375 9.246094 15.539062 9.117188 Z M 24.96875 16.777344 C 28.324219 16.777344 31.054688 14.074219 31.054688 10.753906 C 31.054688 7.429688 28.324219 4.726562 24.96875 4.726562 C 21.613281 4.726562 18.882812 7.429688 18.882812 10.753906 C 18.882812 14.074219 21.613281 16.777344 24.96875 16.777344 Z M 24.96875 6.128906 C 27.542969 6.128906 29.640625 8.203125 29.640625 10.753906 C 29.640625 13.300781 27.542969 15.375 24.96875 15.375 C 22.394531 15.375 20.296875 13.300781 20.296875 10.753906 C 20.296875 8.203125 22.394531 6.128906 24.96875 6.128906 Z M 22.304688 11.066406 C 22.1875 10.917969 22.136719 10.734375 22.160156 10.550781 C 22.179688 10.363281 22.277344 10.195312 22.425781 10.082031 C 22.496094 10.023438 22.582031 9.980469 22.671875 9.957031 C 22.761719 9.933594 22.855469 9.925781 22.945312 9.9375 C 23.039062 9.945312 23.128906 9.976562 23.207031 10.019531 C 23.289062 10.066406 23.363281 10.125 23.417969 10.199219 L 24.214844 11.199219 L 26.5625 8.75 C 26.691406 8.617188 26.871094 8.542969 27.054688 8.539062 C 27.242188 8.535156 27.421875 8.605469 27.558594 8.730469 C 27.695312 8.859375 27.773438 9.03125 27.777344 9.21875 C 27.785156 9.402344 27.71875 9.582031 27.589844 9.71875 L 24.675781 12.753906 C 24.605469 12.828125 24.523438 12.882812 24.425781 12.921875 C 24.332031 12.960938 24.230469 12.976562 24.128906 12.972656 C 24.027344 12.964844 23.929688 12.941406 23.839844 12.894531 C 23.75 12.847656 23.667969 12.785156 23.605469 12.703125 Z M 22.304688 11.066406 "/>
<path style=" stroke:none;fill-rule:nonzero;fill:rgb(10.588235%,15.686275%,29.411765%);fill-opacity:1;" d="M 42.960938 38.347656 C 44.667969 37.292969 45.804688 35.421875 45.804688 33.289062 C 45.804688 30 43.101562 27.328125 39.78125 27.328125 C 36.460938 27.328125 33.761719 30 33.761719 33.289062 C 33.761719 35.421875 34.902344 37.296875 36.609375 38.347656 C 35.152344 38.820312 33.824219 39.609375 32.71875 40.652344 C 32.625 40.578125 32.53125 40.507812 32.4375 40.433594 C 32.414062 40.414062 32.394531 40.398438 32.371094 40.378906 C 32.347656 40.363281 32.320312 40.347656 32.292969 40.332031 C 31.632812 39.851562 30.921875 39.433594 30.179688 39.09375 C 30.136719 39.070312 30.089844 39.046875 30.046875 39.03125 C 29.546875 38.8125 29.03125 38.621094 28.503906 38.46875 C 30.71875 37.246094 32.21875 34.90625 32.21875 32.222656 C 32.21875 28.28125 28.980469 25.078125 25 25.078125 C 21.019531 25.078125 17.78125 28.28125 17.78125 32.222656 C 17.78125 34.90625 19.28125 37.246094 21.496094 38.46875 C 20.96875 38.621094 20.453125 38.8125 19.953125 39.03125 C 19.910156 39.046875 19.863281 39.070312 19.820312 39.09375 C 19.078125 39.433594 18.367188 39.851562 17.707031 40.332031 C 17.679688 40.347656 17.652344 40.363281 17.628906 40.378906 C 17.605469 40.398438 17.585938 40.414062 17.5625 40.433594 C 17.464844 40.507812 17.371094 40.582031 17.273438 40.65625 C 16.167969 39.613281 14.839844 38.824219 13.386719 38.355469 C 15.09375 37.300781 16.234375 35.425781 16.234375 33.292969 C 16.234375 30.007812 13.53125 27.335938 10.214844 27.335938 C 6.894531 27.335938 4.195312 30.007812 4.195312 33.292969 C 4.195312 35.425781 5.332031 37.296875 7.035156 38.351562 C 2.957031 39.675781 0 43.484375 0 47.960938 C 0 48.148438 0.0742188 48.324219 0.207031 48.457031 C 0.339844 48.589844 0.519531 48.660156 0.707031 48.660156 L 12.738281 48.660156 C 12.671875 49.171875 12.640625 49.6875 12.640625 50.203125 C 12.640625 50.386719 12.714844 50.566406 12.847656 50.699219 C 12.980469 50.828125 13.160156 50.902344 13.347656 50.902344 L 36.652344 50.902344 C 36.839844 50.902344 37.019531 50.828125 37.152344 50.699219 C 37.285156 50.566406 37.359375 50.386719 37.359375 50.203125 C 37.359375 49.679688 37.328125 49.167969 37.261719 48.660156 L 49.292969 48.660156 C 49.480469 48.660156 49.660156 48.589844 49.792969 48.457031 C 49.925781 48.324219 50 48.148438 50 47.960938 C 50 43.480469 47.042969 39.671875 42.960938 38.347656 Z M 35.179688 33.289062 C 35.179688 30.773438 37.242188 28.730469 39.78125 28.730469 C 42.320312 28.730469 44.386719 30.773438 44.386719 33.289062 C 44.386719 35.800781 42.324219 37.84375 39.789062 37.847656 L 39.777344 37.847656 C 37.242188 37.84375 35.179688 35.800781 35.179688 33.289062 Z M 25.25 45.554688 L 26.308594 49.5 L 23.691406 49.5 L 24.75 45.554688 C 24.78125 45.4375 24.78125 45.3125 24.75 45.191406 C 24.71875 45.074219 24.65625 44.964844 24.566406 44.878906 L 24.007812 44.328125 L 25 43.53125 L 25.992188 44.328125 L 25.433594 44.878906 C 25.347656 44.964844 25.28125 45.074219 25.25 45.191406 C 25.21875 45.3125 25.21875 45.4375 25.25 45.554688 Z M 20.144531 40.496094 L 23.777344 42.707031 L 21.609375 44.449219 L 19.066406 41.105469 C 19.414062 40.882812 19.773438 40.679688 20.144531 40.496094 Z M 26.222656 42.707031 L 29.859375 40.496094 C 30.226562 40.679688 30.585938 40.882812 30.933594 41.105469 L 28.390625 44.449219 Z M 19.199219 32.222656 C 19.199219 29.054688 21.800781 26.480469 25 26.480469 C 28.199219 26.480469 30.800781 29.054688 30.800781 32.222656 C 30.800781 35.390625 28.203125 37.964844 25.003906 37.964844 L 24.996094 37.964844 C 21.796875 37.964844 19.199219 35.386719 19.199219 32.222656 Z M 25 39.371094 L 25.003906 39.367188 C 26.09375 39.367188 27.175781 39.53125 28.21875 39.847656 L 25 41.804688 L 21.78125 39.847656 C 22.824219 39.53125 23.90625 39.367188 24.996094 39.367188 Z M 5.613281 33.292969 C 5.613281 30.78125 7.675781 28.738281 10.214844 28.738281 C 12.75 28.738281 14.816406 30.78125 14.816406 33.292969 C 14.816406 35.804688 12.753906 37.847656 10.21875 37.851562 L 10.207031 37.851562 C 7.671875 37.847656 5.613281 35.804688 5.613281 33.292969 Z M 1.445312 47.257812 C 1.808594 42.785156 5.601562 39.253906 10.210938 39.253906 L 10.21875 39.253906 C 12.449219 39.253906 14.597656 40.101562 16.21875 41.597656 C 14.675781 43.140625 13.546875 45.085938 13.003906 47.257812 Z M 17.929688 41.941406 L 20.921875 45.875 C 20.976562 45.949219 21.050781 46.011719 21.132812 46.058594 C 21.214844 46.105469 21.304688 46.136719 21.402344 46.148438 C 21.496094 46.160156 21.589844 46.152344 21.683594 46.125 C 21.773438 46.097656 21.859375 46.054688 21.933594 45.996094 L 22.902344 45.214844 L 23.277344 45.585938 L 22.222656 49.5 L 14.078125 49.5 C 14.277344 46.476562 15.730469 43.789062 17.929688 41.941406 Z M 27.777344 49.5 L 26.722656 45.585938 L 27.097656 45.214844 L 28.066406 45.996094 C 28.140625 46.054688 28.226562 46.097656 28.316406 46.125 C 28.410156 46.152344 28.503906 46.160156 28.597656 46.148438 C 28.695312 46.136719 28.785156 46.105469 28.867188 46.058594 C 28.949219 46.011719 29.023438 45.949219 29.078125 45.875 L 32.070312 41.941406 C 34.269531 43.789062 35.726562 46.476562 35.921875 49.5 Z M 37 47.257812 C 36.453125 45.085938 35.320312 43.136719 33.777344 41.59375 C 35.398438 40.097656 37.546875 39.25 39.777344 39.25 L 39.785156 39.25 C 44.398438 39.25 48.191406 42.785156 48.554688 47.257812 Z M 37 47.257812 "/>
</g>
</svg>
