<svg xmlns="http://www.w3.org/2000/svg" xmlns:xlink="http://www.w3.org/1999/xlink" width="200.839" height="47.773" viewBox="0 0 200.839 47.773">
  <defs>
    <clipPath id="clip-path">
      <path id="Path_82" data-name="Path 82" d="M0,29.021H200.839V-18.752H0Z" transform="translate(0 18.752)" fill="none"/>
    </clipPath>
  </defs>
  <g id="Group_233" data-name="Group 233" transform="translate(0 18.752)">
    <g id="Group_107" data-name="Group 107" transform="translate(0 -18.752)" clip-path="url(#clip-path)">
      <g id="Group_103" data-name="Group 103" transform="translate(193.653 0.331)">
        <path id="Path_78" data-name="Path 78" d="M.8,2.14h.313a.2.2,0,0,0,.211-.214V-.754h.9a.2.2,0,0,0,.217-.209v-.189a.19.19,0,0,0-.217-.2H-.311a.185.185,0,0,0-.209.2v.189a.189.189,0,0,0,.209.209H.6v2.68A.191.191,0,0,0,.8,2.14m5.857-.209L6.216-1.2a.2.2,0,0,0-.209-.183H5.964a.259.259,0,0,0-.245.183L4.675,1.188,3.592-1.2a.253.253,0,0,0-.237-.183H3.312A.191.191,0,0,0,3.1-1.2L2.644,1.931a.171.171,0,0,0,.191.209h.308c.135,0,.2-.076.217-.209L3.587.026l.808,1.941a.273.273,0,0,0,.26.2H4.7a.282.282,0,0,0,.257-.2l.8-1.941.232,1.906c.018.132.076.209.211.209h.27c.135,0,.211-.076.191-.209" transform="translate(0.52 1.383)" fill="#1c284a"/>
      </g>
      <g id="Group_104" data-name="Group 104" transform="translate(65.89 0.732)">
        <path id="Path_79" data-name="Path 79" d="M8.023,0A11.516,11.516,0,0,0,.107,3.118V2.14A1.621,1.621,0,0,0-1.673.372H-3.406A1.621,1.621,0,0,0-5.184,2.14V30.956a1.621,1.621,0,0,0,1.778,1.768H-.69a1.587,1.587,0,0,0,1.735-1.768v-8.8a11.312,11.312,0,0,0,6.978,2.329c6.886,0,11.8-5.447,11.8-12.244C19.826,5.4,14.909,0,8.023,0M7.085,19.084C3.526,19.084.67,16.618.67,12.241c0-4.42,2.9-6.889,6.415-6.889,3.936,0,6.512,3.072,6.512,6.889s-2.576,6.843-6.512,6.843M46.242.232H44.51A1.622,1.622,0,0,0,42.729,2v1.07A11.693,11.693,0,0,0,34.814,0C27.927,0,23.056,5.353,23.056,12.241c0,6.843,4.871,12.244,11.757,12.244a10.416,10.416,0,0,0,7.915-3.493v1.073a1.656,1.656,0,0,0,1.781,1.814h1.732a1.655,1.655,0,0,0,1.778-1.814V2A1.621,1.621,0,0,0,46.242.232M35.751,19.084c-3.936,0-6.512-3.024-6.512-6.843s2.576-6.889,6.512-6.889c3.511,0,6.415,2.469,6.415,6.889,0,4.331-2.9,6.843-6.415,6.843M74.342.372H71.907c-1.124,0-1.732.652-2.153,1.768L64.18,16.152,58.606,2.14A2.232,2.232,0,0,0,56.4.372H53.36c-1.123,0-1.781.746-1.312,1.768l9.087,20.065L59.543,25.7c-.843,1.862-1.827,2.188-2.9,2.188A4.654,4.654,0,0,1,55,27.558c-1.172-.42-1.781-.094-2.061.79l-.517,1.816c-.326,1.024.329,1.49.938,1.816a8.23,8.23,0,0,0,3.559.744c3.233,0,5.949-1.3,7.964-5.959L75.654,2.14c.469-1.022-.186-1.768-1.312-1.768M94.107.418A9.638,9.638,0,0,0,91.157,0a7.376,7.376,0,0,0-6.275,3.584V2.14A1.623,1.623,0,0,0,83.1.372H81.32A1.621,1.621,0,0,0,79.542,2.14V22.065a1.655,1.655,0,0,0,1.778,1.814h2.718a1.621,1.621,0,0,0,1.732-1.814V10.985c0-3.35,1.732-5.679,4.825-5.679a6.462,6.462,0,0,1,2.061.372,1.338,1.338,0,0,0,1.872-1.07l.609-2.329A1.331,1.331,0,0,0,94.107.418m14.707,24.067c7.4,0,12.786-5.261,12.786-12.244S116.215,0,108.814,0,95.982,5.261,95.982,12.241s5.432,12.244,12.832,12.244m0-5.4a6.512,6.512,0,0,1-6.649-6.843,6.631,6.631,0,1,1,13.253,0,6.5,6.5,0,0,1-6.6,6.843" transform="translate(5.184 0)" fill="#fff"/>
      </g>
      <g id="Group_105" data-name="Group 105" transform="translate(4.301 0)">
        <path id="Path_80" data-name="Path 80" d="M3.473,3.994a9.461,9.461,0,0,1,9-6.575H28.338c9.561,0,17.951,7.161,18.524,16.646A17.8,17.8,0,0,1,29.036,32.912H17.019a.1.1,0,0,0-.089.061L-2.244,21.28Z" transform="translate(2.244 2.581)" fill="#4a2e98"/>
      </g>
      <g id="Group_106" data-name="Group 106" transform="translate(0.001 6.468)">
        <path id="Path_81" data-name="Path 81" d="M6.107,0a10.031,10.031,0,0,0-.474,2.94,9.424,9.424,0,0,0,9.436,9.4l6.5.033A2.314,2.314,0,0,1,23.8,15.344L17.574,35.055A8.966,8.966,0,0,1,9.032,41.3L5.49,41.3a9.422,9.422,0,0,1-9.436-9.4,10.031,10.031,0,0,1,.474-2.94Z" transform="translate(3.946)" fill="#b77fbe"/>
      </g>
    </g>
  </g>
</svg>
