<svg id="Group_1171" data-name="Group 1171" xmlns="http://www.w3.org/2000/svg" width="180.17" height="46.281" viewBox="0 0 180.17 46.281">
  <path id="Path_1466" data-name="Path 1466" d="M183.876,65.7c.447,2.121,2.149,3.293,4.465,3.293a4.133,4.133,0,0,0,3.6-1.73l2.484,1.451a6.867,6.867,0,0,1-6.112,3.042,7.542,7.542,0,0,1-5.5-2.065,7.659,7.659,0,0,1-.028-10.493,7.043,7.043,0,0,1,5.3-2.121,6.54,6.54,0,0,1,5.023,2.149,7.462,7.462,0,0,1,1.982,5.219,8.172,8.172,0,0,1-.112,1.256Zm8.177-2.456a3.888,3.888,0,0,0-3.991-3.433,4.053,4.053,0,0,0-4.214,3.433Z" transform="translate(-130.383 -41.175)" fill="rgba(0,0,0,0.65)"/>
  <path id="Path_1467" data-name="Path 1467" d="M247.981,72.33h-3.489l-3.461-4.772-3.488,4.772h-3.516l5.247-7.173-4.968-6.781h3.488L241,62.785l3.209-4.409h3.516l-4.968,6.81Z" transform="translate(-168.84 -42.115)" fill="rgba(0,0,0,0.65)"/>
  <path id="Path_1468" data-name="Path 1468" d="M287.118,69.631a7.155,7.155,0,0,1-2.093-5.219,7.066,7.066,0,0,1,2.093-5.219,7.153,7.153,0,0,1,5.275-2.121,6.873,6.873,0,0,1,6.224,3.6l-2.6,1.507a3.883,3.883,0,0,0-3.656-2.149,4.209,4.209,0,0,0-3.1,1.256,4.593,4.593,0,0,0,0,6.251,4.209,4.209,0,0,0,3.1,1.256,4.075,4.075,0,0,0,3.712-2.149l2.6,1.479a7.026,7.026,0,0,1-6.279,3.628,7.153,7.153,0,0,1-5.275-2.121" transform="translate(-205.633 -41.175)" fill="rgba(0,0,0,0.65)"/>
  <path id="Path_1469" data-name="Path 1469" d="M341.383,65.7c.447,2.121,2.149,3.293,4.465,3.293a4.133,4.133,0,0,0,3.6-1.73l2.484,1.451a6.867,6.867,0,0,1-6.112,3.042,7.542,7.542,0,0,1-5.5-2.065,7.659,7.659,0,0,1-.028-10.493,7.043,7.043,0,0,1,5.3-2.121,6.54,6.54,0,0,1,5.023,2.149,7.462,7.462,0,0,1,1.982,5.219,8.172,8.172,0,0,1-.112,1.256Zm8.177-2.456a3.888,3.888,0,0,0-3.991-3.433,4.053,4.053,0,0,0-4.214,3.433Z" transform="translate(-244.017 -41.175)" fill="rgba(0,0,0,0.65)"/>
  <rect id="Rectangle_376" data-name="Rectangle 376" width="3.014" height="20.373" transform="translate(111.236 9.841)" fill="rgba(0,0,0,0.65)"/>
  <path id="Path_1470" data-name="Path 1470" d="M427.111,39.884c-2.2-.2-3.293.725-3.293,2.763v.279h3.293v2.9h-3.293V56.88H420.8V45.828h-2.121v-2.9H420.8v-.279c0-3.823,2.177-5.917,6.308-5.665Z" transform="translate(-302.06 -26.666)" fill="rgba(0,0,0,0.65)"/>
  <path id="Path_1471" data-name="Path 1471" d="M452.294,69.631a7.481,7.481,0,1,1,5.219,2.121,7.1,7.1,0,0,1-5.219-2.121m5.219-.809a4.208,4.208,0,0,0,3.1-1.256,4.586,4.586,0,0,0,0-6.307,4.447,4.447,0,0,0-6.2,0,4.588,4.588,0,0,0,0,6.307,4.208,4.208,0,0,0,3.1,1.256" transform="translate(-324.759 -41.175)" fill="rgba(0,0,0,0.65)"/>
  <path id="Path_1472" data-name="Path 1472" d="M515.881,60.068a4.269,4.269,0,0,1,4.3-2.6v3.265a4.357,4.357,0,0,0-3.014.838,3.506,3.506,0,0,0-1.284,3.07v7.033h-3.014V57.724h3.014Z" transform="translate(-370.01 -41.464)" fill="rgba(0,0,0,0.65)"/>
  <path id="Path_1473" data-name="Path 1473" d="M544.115,69.631a7.156,7.156,0,0,1-2.093-5.219,7.067,7.067,0,0,1,2.093-5.219,7.154,7.154,0,0,1,5.275-2.121,6.873,6.873,0,0,1,6.224,3.6l-2.6,1.507a3.883,3.883,0,0,0-3.656-2.149,4.209,4.209,0,0,0-3.1,1.256,4.592,4.592,0,0,0,0,6.251,4.209,4.209,0,0,0,3.1,1.256,4.075,4.075,0,0,0,3.712-2.149l2.6,1.479a7.025,7.025,0,0,1-6.279,3.628,7.154,7.154,0,0,1-5.275-2.121" transform="translate(-391.044 -41.175)" fill="rgba(0,0,0,0.65)"/>
  <path id="Path_1474" data-name="Path 1474" d="M598.38,65.7c.446,2.121,2.148,3.293,4.465,3.293a4.133,4.133,0,0,0,3.6-1.73l2.484,1.451a6.867,6.867,0,0,1-6.112,3.042,7.543,7.543,0,0,1-5.5-2.065,7.659,7.659,0,0,1-.028-10.493,7.045,7.045,0,0,1,5.3-2.121,6.542,6.542,0,0,1,5.024,2.149,7.461,7.461,0,0,1,1.981,5.219,8.2,8.2,0,0,1-.111,1.256Zm8.177-2.456a3.889,3.889,0,0,0-3.991-3.433,4.052,4.052,0,0,0-4.214,3.433Z" transform="translate(-429.429 -41.175)" fill="rgba(0,0,0,0.65)"/>
  <path id="Path_1475" data-name="Path 1475" d="M55.395,126.2l15.427-15.427H55.395Z" transform="translate(-39.965 -79.914)" fill="rgba(0,0,0,0.65)"/>
  <path id="Path_1476" data-name="Path 1476" d="M110.8,70.811l15.427-15.427H110.8Z" transform="translate(-79.937 -39.957)" fill="rgba(0,0,0,0.65)"/>
  <path id="Path_1477" data-name="Path 1477" d="M70.832,0,55.405,15.426H70.832Z" transform="translate(-39.972 0.001)" fill="rgba(0,0,0,0.65)"/>
  <path id="Path_1478" data-name="Path 1478" d="M15.427,55.384,0,70.811H15.427Z" transform="translate(0 -39.957)" fill="rgba(0,0,0,0.65)"/>
  <g id="Group_1159" data-name="Group 1159" transform="translate(50.909 35.575)">
    <path id="Path_1479" data-name="Path 1479" d="M186.057,128.535h.7v5.319h-.7v-2.394h-2.584v2.394h-.707v-5.319h.707v2.257h2.584Z" transform="translate(-182.767 -128.307)" fill="rgba(0,0,0,0.65)"/>
    <path id="Path_1480" data-name="Path 1480" d="M204.609,133.854l-1.193-2.036h-1.254v2.036h-.707v-5.319h2.128a1.589,1.589,0,0,1,1.17.486,1.561,1.561,0,0,1,.486,1.163,1.576,1.576,0,0,1-.311.942,1.631,1.631,0,0,1-.791.6l1.254,2.128Zm-2.447-4.658v1.984h1.421a.892.892,0,0,0,.669-.289.981.981,0,0,0,.281-.707.951.951,0,0,0-.281-.7.892.892,0,0,0-.669-.289Z" transform="translate(-196.25 -128.307)" fill="rgba(0,0,0,0.65)"/>
    <path id="Path_1481" data-name="Path 1481" d="M229.355,133.378l-.593.342-.54-.577a2.129,2.129,0,0,1-1.52.555,1.951,1.951,0,0,1-1.292-.41,1.409,1.409,0,0,1-.494-1.125,1.667,1.667,0,0,1,.973-1.535,1.513,1.513,0,0,1-.342-.965A1.374,1.374,0,0,1,226,128.59a1.617,1.617,0,0,1,1.109-.41,1.666,1.666,0,0,1,1.588,1.087l-.593.342a1.017,1.017,0,0,0-.98-.745.816.816,0,0,0-.874.79,1.293,1.293,0,0,0,.471.9l1.452,1.55a3.233,3.233,0,0,0,.274-.965l.608.35a3.105,3.105,0,0,1-.411,1.132Zm-1.589-.722-1.436-1.543a1.073,1.073,0,0,0-.707,1c0,.57.4.912,1.094.912A1.515,1.515,0,0,0,227.767,132.656Z" transform="translate(-213.176 -128.051)" fill="rgba(0,0,0,0.65)"/>
    <path id="Path_1482" data-name="Path 1482" d="M252.791,128.535a1.71,1.71,0,1,1,0,3.42h-1.224v1.9h-.707v-5.319Zm0,2.758a.968.968,0,0,0,.73-.3,1.071,1.071,0,0,0,.289-.753,1,1,0,0,0-1.018-1.049h-1.224v2.1Z" transform="translate(-231.894 -128.307)" fill="rgba(0,0,0,0.65)"/>
    <path id="Path_1483" data-name="Path 1483" d="M269.58,133.735h.661v3.8h-.661v-.653a1.607,1.607,0,0,1-1.436.752,1.816,1.816,0,0,1-1.36-.577,2.067,2.067,0,0,1,0-2.835,1.822,1.822,0,0,1,1.36-.585,1.607,1.607,0,0,1,1.436.753Zm-.388,2.873a1.335,1.335,0,0,0,.388-.973,1.306,1.306,0,0,0-.388-.965,1.366,1.366,0,0,0-1.922,0,1.306,1.306,0,0,0-.388.965,1.335,1.335,0,0,0,.388.973,1.386,1.386,0,0,0,1.922,0Z" transform="translate(-242.975 -131.987)" fill="rgba(0,0,0,0.65)"/>
    <path id="Path_1484" data-name="Path 1484" d="M286.037,133.991h.707l-1.55,4.035a1.7,1.7,0,0,1-1.687,1.284V138.7q.7.056,1.026-.775l.069-.144-1.657-3.785h.707l1.292,2.979Z" transform="translate(-255.04 -132.243)" fill="rgba(0,0,0,0.65)"/>
    <path id="Path_1485" data-name="Path 1485" d="M299.484,134.453a1.2,1.2,0,0,1,1.185-.707v.691a1.185,1.185,0,0,0-.836.258,1.085,1.085,0,0,0-.35.9v2.014h-.661v-3.8h.661Z" transform="translate(-266.496 -132.066)" fill="rgba(0,0,0,0.65)"/>
    <path id="Path_1486" data-name="Path 1486" d="M309.278,137.633a1.985,1.985,0,1,1,1.421-.577A1.938,1.938,0,0,1,309.278,137.633Zm.958-1.033a1.368,1.368,0,1,0-.958.387A1.307,1.307,0,0,0,310.235,136.6Z" transform="translate(-272.597 -131.987)" fill="rgba(0,0,0,0.65)"/>
    <path id="Path_1487" data-name="Path 1487" d="M324.739,133.264v-5.548h.661v5.548Z" transform="translate(-285.193 -127.716)" fill="rgba(0,0,0,0.65)"/>
    <path id="Path_1488" data-name="Path 1488" d="M331.014,133.264v-5.548h.661v5.548Z" transform="translate(-289.721 -127.716)" fill="rgba(0,0,0,0.65)"/>
    <path id="Path_1489" data-name="Path 1489" d="M345.481,128.8q-1-.079-1,.867v.114h1v.638h-1v3.161h-.661v-3.161h-.608v-.638h.608v-.114a1.383,1.383,0,0,1,1.664-1.5Z" transform="translate(-298.519 -128.036)" fill="rgba(0,0,0,0.65)"/>
    <path id="Path_1490" data-name="Path 1490" d="M354.675,137.633a1.985,1.985,0,1,1,1.421-.577A1.938,1.938,0,0,1,354.675,137.633Zm.957-1.033a1.368,1.368,0,1,0-.957.387A1.306,1.306,0,0,0,355.632,136.6Z" transform="translate(-305.349 -131.987)" fill="rgba(0,0,0,0.65)"/>
    <path id="Path_1491" data-name="Path 1491" d="M370.8,134.453a1.2,1.2,0,0,1,1.186-.707v.691a1.185,1.185,0,0,0-.836.258,1.084,1.084,0,0,0-.35.9v2.014h-.661v-3.8h.661Z" transform="translate(-317.945 -132.066)" fill="rgba(0,0,0,0.65)"/>
    <path id="Path_1492" data-name="Path 1492" d="M391.07,130.962v.319a2.311,2.311,0,0,1-.714,1.733,2.63,2.63,0,0,1-1.892.684,2.714,2.714,0,0,1-2.8-2.758,2.779,2.779,0,0,1,4.142-2.4,2.473,2.473,0,0,1,.95.927l-.608.357a1.909,1.909,0,0,0-1.7-.958,1.986,1.986,0,0,0-1.5.6,2.15,2.15,0,0,0,0,2.949,2.068,2.068,0,0,0,1.528.593,1.748,1.748,0,0,0,1.892-1.406H388.41v-.638Z" transform="translate(-329.144 -128.051)" fill="rgba(0,0,0,0.65)"/>
    <path id="Path_1493" data-name="Path 1493" d="M408.854,134.453a1.2,1.2,0,0,1,1.186-.707v.691a1.185,1.185,0,0,0-.836.258,1.086,1.086,0,0,0-.35.9v2.014h-.661v-3.8h.661Z" transform="translate(-345.402 -132.066)" fill="rgba(0,0,0,0.65)"/>
    <path id="Path_1494" data-name="Path 1494" d="M418.649,137.633a1.985,1.985,0,1,1,1.421-.577A1.938,1.938,0,0,1,418.649,137.633Zm.958-1.033a1.368,1.368,0,1,0-.958.387A1.307,1.307,0,0,0,419.606,136.6Z" transform="translate(-351.503 -131.987)" fill="rgba(0,0,0,0.65)"/>
    <path id="Path_1495" data-name="Path 1495" d="M437.76,133.991h.691l-1.178,3.8H436.6l-.889-2.812-.889,2.812h-.676l-1.178-3.8h.691l.836,2.888.9-2.888h.638l.9,2.9Z" transform="translate(-363.273 -132.243)" fill="rgba(0,0,0,0.65)"/>
    <path id="Path_1496" data-name="Path 1496" d="M454.98,128.764a.445.445,0,1,1,.889,0,.445.445,0,0,1-.889,0Zm.114,4.932v-3.8h.661v3.8Z" transform="translate(-379.156 -128.149)" fill="rgba(0,0,0,0.65)"/>
    <path id="Path_1497" data-name="Path 1497" d="M465.03,135.2v2.333h-.661V135.24a.879.879,0,0,0-.943-.973c-.661,0-1.1.4-1.1,1.254v2.014h-.661v-3.8h.661v.547a1.341,1.341,0,0,1,1.231-.646A1.422,1.422,0,0,1,465.03,135.2Z" transform="translate(-383.979 -131.987)" fill="rgba(0,0,0,0.65)"/>
    <path id="Path_1498" data-name="Path 1498" d="M479.926,133.735h.653v3.64a1.593,1.593,0,0,1-.57,1.307,2.092,2.092,0,0,1-1.368.471,1.891,1.891,0,0,1-1.8-.927l.578-.327a1.241,1.241,0,0,0,1.238.638,1.125,1.125,0,0,0,1.269-1.163v-.539a1.61,1.61,0,0,1-1.429.76,1.836,1.836,0,0,1-1.376-.578,1.95,1.95,0,0,1-.562-1.406,1.92,1.92,0,0,1,.562-1.4,1.836,1.836,0,0,1,1.376-.578,1.6,1.6,0,0,1,1.429.753Zm-.388.92a1.385,1.385,0,1,0,.388.957A1.306,1.306,0,0,0,479.539,134.655Z" transform="translate(-394.725 -131.987)" fill="rgba(0,0,0,0.65)"/>
    <path id="Path_1499" data-name="Path 1499" d="M501.951,132.9a2.759,2.759,0,0,1,2-4.719,2.629,2.629,0,0,1,2.3,1.292l-.616.357a1.873,1.873,0,0,0-1.68-.965,2.072,2.072,0,1,0,0,4.142,1.881,1.881,0,0,0,1.68-.958l.616.35a2.48,2.48,0,0,1-.95.95,2.651,2.651,0,0,1-1.345.35A2.692,2.692,0,0,1,501.951,132.9Z" transform="translate(-412.479 -128.051)" fill="rgba(0,0,0,0.65)"/>
    <path id="Path_1500" data-name="Path 1500" d="M523.574,137.633a1.985,1.985,0,1,1,1.421-.577A1.939,1.939,0,0,1,523.574,137.633Zm.957-1.033a1.367,1.367,0,1,0-.957.387A1.306,1.306,0,0,0,524.531,136.6Z" transform="translate(-427.202 -131.987)" fill="rgba(0,0,0,0.65)"/>
    <path id="Path_1501" data-name="Path 1501" d="M544.567,135.171v2.363h-.661v-2.341a.818.818,0,0,0-.836-.927c-.57,0-.935.372-.935,1.155v2.113h-.661v-2.341c0-.585-.312-.927-.806-.927-.555,0-.973.388-.973,1.155v2.113h-.661v-3.8h.661v.509a1.269,1.269,0,0,1,1.133-.608,1.18,1.18,0,0,1,1.117.646,1.3,1.3,0,0,1,1.193-.646A1.4,1.4,0,0,1,544.567,135.171Z" transform="translate(-439.798 -131.987)" fill="rgba(0,0,0,0.65)"/>
    <path id="Path_1502" data-name="Path 1502" d="M565.928,134.221a2.067,2.067,0,0,1,0,2.835,1.816,1.816,0,0,1-1.36.577,1.607,1.607,0,0,1-1.436-.752v2.174h-.661v-5.32h.661v.654a1.607,1.607,0,0,1,1.436-.753A1.822,1.822,0,0,1,565.928,134.221Zm-.486,2.386a1.336,1.336,0,0,0,.388-.973,1.306,1.306,0,0,0-.388-.965,1.367,1.367,0,0,0-1.923,0,1.306,1.306,0,0,0-.387.965,1.336,1.336,0,0,0,.387.973,1.386,1.386,0,0,0,1.923,0Z" transform="translate(-456.706 -131.987)" fill="rgba(0,0,0,0.65)"/>
    <path id="Path_1503" data-name="Path 1503" d="M582.607,133.735h.661v3.8h-.661v-.653a1.606,1.606,0,0,1-1.436.752,1.816,1.816,0,0,1-1.36-.577,2.067,2.067,0,0,1,0-2.835,1.822,1.822,0,0,1,1.36-.585,1.606,1.606,0,0,1,1.436.753Zm-.388,2.873a1.335,1.335,0,0,0,.388-.973,1.306,1.306,0,0,0-.388-.965,1.367,1.367,0,0,0-1.923,0,1.306,1.306,0,0,0-.388.965,1.335,1.335,0,0,0,.388.973,1.386,1.386,0,0,0,1.923,0Z" transform="translate(-468.81 -131.987)" fill="rgba(0,0,0,0.65)"/>
    <path id="Path_1504" data-name="Path 1504" d="M600.893,135.2v2.333h-.661V135.24a.879.879,0,0,0-.943-.973c-.661,0-1.1.4-1.1,1.254v2.014h-.661v-3.8h.661v.547a1.341,1.341,0,0,1,1.231-.646A1.422,1.422,0,0,1,600.893,135.2Z" transform="translate(-481.997 -131.987)" fill="rgba(0,0,0,0.65)"/>
    <path id="Path_1505" data-name="Path 1505" d="M612.75,128.764a.444.444,0,1,1,.889,0,.444.444,0,0,1-.889,0Zm.114,4.932v-3.8h.661v3.8Z" transform="translate(-492.98 -128.149)" fill="rgba(0,0,0,0.65)"/>
    <path id="Path_1506" data-name="Path 1506" d="M619.346,135.939a1.3,1.3,0,0,0,1.375,1.072,1.184,1.184,0,0,0,1.094-.555l.562.319a1.864,1.864,0,0,1-1.672.859,2.024,2.024,0,0,1-1.474-.562,2.117,2.117,0,0,1-.008-2.865,1.924,1.924,0,0,1,1.436-.57,1.735,1.735,0,0,1,1.36.593,2.008,2.008,0,0,1,.532,1.414,1.931,1.931,0,0,1-.023.3Zm0-.577h2.538a1.2,1.2,0,0,0-1.224-1.1A1.265,1.265,0,0,0,619.346,135.361Z" transform="translate(-497.251 -131.987)" fill="rgba(0,0,0,0.65)"/>
    <path id="Path_1507" data-name="Path 1507" d="M636.3,135.331c.593.129,1.383.35,1.376,1.163a1,1,0,0,1-.4.828,1.611,1.611,0,0,1-1.018.311,1.541,1.541,0,0,1-1.512-.889l.57-.327a.931.931,0,0,0,.942.593c.433,0,.752-.16.752-.517,0-.3-.334-.464-.752-.562-.6-.16-1.375-.357-1.375-1.163a1.027,1.027,0,0,1,.38-.813,1.593,1.593,0,0,1,2.333.471l-.555.311a.8.8,0,0,0-.813-.486c-.372,0-.677.183-.677.509C635.543,135.057,635.878,135.217,636.3,135.331Z" transform="translate(-508.844 -131.987)" fill="rgba(0,0,0,0.65)"/>
  </g>
</svg>
