<svg id="Group_1170" data-name="Group 1170" xmlns="http://www.w3.org/2000/svg" width="239.861" height="46.281" viewBox="0 0 239.861 46.281">
  <g id="Group_1154" data-name="Group 1154" transform="translate(56.064 12.001)">
    <path id="Path_1425" data-name="Path 1425" d="M209.956,149.789h13.025c2.884,0,4.524.611,4.524,4.3,0,3.519-.285,5.289-4.94,5.289H212.1v6.227h-2.142Zm15.407,4.086c0-1.879-1.027-2.338-2.885-2.338H212.1v6.1h10.555c1.7,0,2.71-.613,2.71-2.252Z" transform="translate(-209.956 -149.613)" fill="rgba(0,0,0,0.65)"/>
    <path id="Path_1426" data-name="Path 1426" d="M242.681,149.789h2.666l9.4,15.822h-2.427l-1.966-3.343H237.677l-1.967,3.343h-2.426Zm1.333,1.749-5.311,8.98h10.621Z" transform="translate(-217.632 -149.613)" fill="rgba(0,0,0,0.65)"/>
    <path id="Path_1427" data-name="Path 1427" d="M267.086,158.923l-9.07-9.134H260.9l7.256,7.342,7.255-7.342H278.3l-9.07,9.134v6.688h-2.14Z" transform="translate(-225.769 -149.613)" fill="rgba(0,0,0,0.65)"/>
    <path id="Path_1428" data-name="Path 1428" d="M290.329,149.789h7.452l5.485,10.184,5.487-10.184H316.2v15.822h-4.721V154.248h-.044l-6.359,11.363h-3.627l-6.361-11.363h-.044v11.363h-4.72Z" transform="translate(-236.401 -149.613)" fill="rgba(0,0,0,0.65)"/>
    <path id="Path_1429" data-name="Path 1429" d="M339.09,149.789h6.315l8.7,15.822h-5.4l-1.507-2.8h-9.835l-1.419,2.8h-5.421Zm.087,9.615h6.206l-3.146-5.943Z" transform="translate(-249.626 -149.613)" fill="rgba(0,0,0,0.65)"/>
    <path id="Path_1430" data-name="Path 1430" d="M365.932,160.344h4.851c.022,1.683.7,1.816,2.1,1.816h5.944c1.028,0,2.076-.11,2.076-1.333,0-1.377-.569-1.465-6.818-1.465-7.3,0-8.13-.873-8.13-4.764,0-2.862.263-5.071,6.382-5.071h6.775c5.593,0,6.119,1.9,6.119,4.677v.5h-4.85c0-1.158-.134-1.638-2.362-1.638H372.64c-1.092,0-1.835.372-1.835,1.223,0,1.378.59,1.422,5.791,1.4,7.539-.022,9.288.436,9.288,5.048,0,4.262-1.442,4.961-7.889,4.961h-5.879c-4.414,0-6.184-.829-6.184-4.261Z" transform="translate(-261.276 -149.527)" fill="rgba(0,0,0,0.65)"/>
    <path id="Path_1431" data-name="Path 1431" d="M396.519,149.789h18.489v3.933h-6.818v11.889h-4.851V153.722h-6.819Z" transform="translate(-271.34 -149.613)" fill="rgba(0,0,0,0.65)"/>
    <path id="Path_1432" data-name="Path 1432" d="M426.289,149.789H443.6v3.672H431.141V156h11.8v3.278h-11.8v2.536h12.742v3.8H426.289Z" transform="translate(-281.135 -149.613)" fill="rgba(0,0,0,0.65)"/>
    <path id="Path_1433" data-name="Path 1433" d="M454.99,149.789h14.642c3.738,0,4.743,1.857,4.743,4.7v1.005c0,2.12-.481,3.366-2.71,3.891v.042c1.443.264,2.644.9,2.644,3.5v2.689h-4.851v-1.9c0-1.661-.481-2.207-1.989-2.207h-7.626v4.108H454.99Zm4.853,7.781h8.019c1.312,0,1.793-.525,1.793-1.662v-.525c0-1.4-.7-1.661-2.23-1.661h-7.582Z" transform="translate(-290.578 -149.613)" fill="rgba(0,0,0,0.65)"/>
    <path id="Path_1434" data-name="Path 1434" d="M213.388,179.779h.855l3.017,5.079h-.778l-.632-1.072h-4.068l-.631,1.072h-.779Zm.428.561-1.7,2.883h3.409Z" transform="translate(-210.093 -159.481)" fill="rgba(0,0,0,0.65)"/>
    <path id="Path_1435" data-name="Path 1435" d="M238.337,179.779h4.335c1.053,0,1.347.548,1.347,1.13v.433c0,.366-.2.738-.821.8v.028c.541.028,1.018.232,1.018,1v.6c0,.709-.631,1.08-1.473,1.08h-4.406Zm5,1.094c0-.462-.512-.533-.723-.533h-3.584v1.62h3.549c.371,0,.758-.117.758-.623Zm.2,2.379c0-.633-.351-.73-.975-.73h-3.528V184.3h3.633c.638,0,.87-.234.87-.683Z" transform="translate(-219.294 -159.481)" fill="rgba(0,0,0,0.65)"/>
    <path id="Path_1436" data-name="Path 1436" d="M254.667,179.779h4.987v.561h-4.3v1.62h4.131v.562h-4.131V184.3h4.328v.56h-5.016Z" transform="translate(-224.667 -159.481)" fill="rgba(0,0,0,0.65)"/>
    <path id="Path_1437" data-name="Path 1437" d="M271.191,180.34h-2.568v-.561h5.823v.561h-2.567v4.518h-.688Z" transform="translate(-229.259 -159.481)" fill="rgba(0,0,0,0.65)"/>
    <path id="Path_1438" data-name="Path 1438" d="M285.972,180.34H283.4v-.561h5.822v.561H286.66v4.518h-.688Z" transform="translate(-234.123 -159.481)" fill="rgba(0,0,0,0.65)"/>
    <path id="Path_1439" data-name="Path 1439" d="M299.014,179.779H304v.561h-4.3v1.62h4.131v.562H299.7V184.3h4.327v.56h-5.015Z" transform="translate(-239.258 -159.481)" fill="rgba(0,0,0,0.65)"/>
    <path id="Path_1440" data-name="Path 1440" d="M313.734,179.779H317.8c1.465,0,1.7.485,1.7,1.438v.414c0,.716-.407.912-.933.962v.013c.7.127.87.492.87.954v1.3h-.646v-1.114c0-.793-.386-.893-1.009-.893h-3.355v2.007h-.687Zm3.984,2.512c.765,0,1.089-.2,1.089-.737v-.463c0-.567-.246-.751-1.257-.751h-3.129v1.951Z" transform="translate(-244.102 -159.481)" fill="rgba(0,0,0,0.65)"/>
    <path id="Path_1441" data-name="Path 1441" d="M339.715,179.779h.674l1.774,4.441,1.739-4.441h.884l1.72,4.461,1.8-4.461h.672l-2.02,5.079h-.885l-1.726-4.461-1.724,4.461h-.883Z" transform="translate(-252.65 -159.481)" fill="rgba(0,0,0,0.65)"/>
    <path id="Path_1442" data-name="Path 1442" d="M362.115,179.779h.855l3.017,5.079h-.778l-.633-1.072h-4.068l-.63,1.072H359.1Zm.428.561-1.7,2.883h3.41Z" transform="translate(-259.028 -159.481)" fill="rgba(0,0,0,0.65)"/>
    <path id="Path_1443" data-name="Path 1443" d="M377.21,182.712l-2.911-2.933h.925l2.328,2.358,2.329-2.358h.927l-2.911,2.933v2.146h-.688Z" transform="translate(-264.029 -159.481)" fill="rgba(0,0,0,0.65)"/>
    <path id="Path_1444" data-name="Path 1444" d="M403.472,180.34H400.9v-.561h5.823v.561H404.16v4.518h-.687Z" transform="translate(-272.783 -159.481)" fill="rgba(0,0,0,0.65)"/>
    <path id="Path_1445" data-name="Path 1445" d="M416.316,181.6c0-1.284.435-1.9,1.81-1.9h2.925c1.375,0,1.81.617,1.81,1.9v1.39c0,1.284-.435,1.9-1.81,1.9h-2.925c-1.375,0-1.81-.617-1.81-1.9Zm5.857-.26c0-.882-.533-1.079-1.192-1.079H418.2c-.659,0-1.192.2-1.192,1.079v1.909c0,.884.533,1.08,1.192,1.08h2.784c.659,0,1.192-.2,1.192-1.08Z" transform="translate(-277.854 -159.453)" fill="rgba(0,0,0,0.65)"/>
    <path id="Path_1446" data-name="Path 1446" d="M444.418,179.779h4.18c.925,0,1.452.2,1.452,1.383,0,1.129-.09,1.7-1.586,1.7H445.1v2h-.686Zm4.944,1.312c0-.6-.329-.751-.927-.751H445.1V182.3h3.389c.547,0,.869-.2.869-.723Z" transform="translate(-287.1 -159.481)" fill="rgba(0,0,0,0.65)"/>
    <path id="Path_1447" data-name="Path 1447" d="M461.579,179.779h.855l3.017,5.079h-.78l-.631-1.072h-4.069l-.631,1.072h-.779Zm.427.561-1.7,2.883h3.41Z" transform="translate(-291.754 -159.481)" fill="rgba(0,0,0,0.65)"/>
    <path id="Path_1448" data-name="Path 1448" d="M476.674,182.712l-2.912-2.933h.927l2.33,2.358,2.329-2.358h.925l-2.911,2.933v2.146h-.688Z" transform="translate(-296.755 -159.481)" fill="rgba(0,0,0,0.65)"/>
  </g>
  <g id="Group_1157" data-name="Group 1157" transform="translate(0 0)">
    <g id="Group_1155" data-name="Group 1155">
      <path id="Path_1449" data-name="Path 1449" d="M159.387,142.671c-5.094-2.633.586-7.737-2.667-11.03,1.66.16,4.4,1.145,5.193,3.9a7.382,7.382,0,0,1,.21,4.045,4.526,4.526,0,0,1-.948,1.965C160.9,141.887,159.958,142.966,159.387,142.671Z" transform="translate(-136.376 -131.641)" fill="rgba(0,0,0,0.65)"/>
      <path id="Path_1450" data-name="Path 1450" d="M150.523,144.888c-5.713-.484-2.419-7.375-6.686-9.171,1.6-.488,4.5-.627,6.29,1.615a7.387,7.387,0,0,1,1.744,3.656,4.538,4.538,0,0,1-.125,2.178C151.619,143.583,151.163,144.94,150.523,144.888Z" transform="translate(-132.137 -132.884)" fill="rgba(0,0,0,0.65)"/>
      <path id="Path_1451" data-name="Path 1451" d="M143.239,149.853c-5.463,1.741-5.054-5.886-9.686-5.913,1.287-1.061,3.922-2.3,6.431-.915a7.4,7.4,0,0,1,3.009,2.71,4.563,4.563,0,0,1,.72,2.061C143.752,148.23,143.851,149.658,143.239,149.853Z" transform="translate(-128.754 -135.184)" fill="rgba(0,0,0,0.65)"/>
      <path id="Path_1452" data-name="Path 1452" d="M138.641,156.9c-4.381,3.7-6.923-3.5-11.211-1.757.783-1.473,2.742-3.629,5.589-3.306a7.4,7.4,0,0,1,3.82,1.353,4.538,4.538,0,0,1,1.451,1.628C138.494,155.206,139.134,156.488,138.641,156.9Z" transform="translate(-126.739 -138.276)" fill="rgba(0,0,0,0.65)"/>
      <path id="Path_1453" data-name="Path 1453" d="M137.431,164.888c-2.634,5.093-7.737-.587-11.031,2.667.159-1.661,1.145-4.4,3.9-5.193a7.389,7.389,0,0,1,4.045-.211,4.527,4.527,0,0,1,1.965.949C136.644,163.376,137.726,164.317,137.431,164.888Z" transform="translate(-126.4 -141.617)" fill="rgba(0,0,0,0.65)"/>
      <path id="Path_1454" data-name="Path 1454" d="M139.647,172.518c-.484,5.711-7.375,2.418-9.17,6.684-.489-1.595-.628-4.5,1.615-6.29a7.377,7.377,0,0,1,3.655-1.742,4.531,4.531,0,0,1,2.179.125C138.341,171.421,139.7,171.876,139.647,172.518Z" transform="translate(-127.643 -144.621)" fill="rgba(0,0,0,0.65)"/>
      <path id="Path_1455" data-name="Path 1455" d="M144.613,178.781c1.738,5.464-5.885,5.056-5.913,9.686-1.061-1.288-2.3-3.921-.916-6.431a7.385,7.385,0,0,1,2.711-3.009,4.507,4.507,0,0,1,2.059-.719C142.989,178.267,144.418,178.168,144.613,178.781Z" transform="translate(-129.943 -146.985)" fill="rgba(0,0,0,0.65)"/>
      <path id="Path_1456" data-name="Path 1456" d="M151.663,182.79c3.7,4.381-3.5,6.922-1.759,11.21-1.472-.782-3.628-2.74-3.3-5.591a7.412,7.412,0,0,1,1.353-3.817,4.533,4.533,0,0,1,1.628-1.451C149.964,182.935,151.248,182.3,151.663,182.79Z" transform="translate(-133.036 -148.41)" fill="rgba(0,0,0,0.65)"/>
    </g>
    <g id="Group_1156" data-name="Group 1156" transform="translate(20.344 1.676)">
      <path id="Path_1457" data-name="Path 1457" d="M159.387,195.132c-5.094-2.633.586-7.737-2.667-11.03,1.66.161,4.4,1.145,5.193,3.9a7.385,7.385,0,0,1,.21,4.045,4.525,4.525,0,0,1-.948,1.966C160.9,194.347,159.958,195.428,159.387,195.132Z" transform="translate(-156.72 -150.578)" fill="rgba(0,0,0,0.65)"/>
      <path id="Path_1458" data-name="Path 1458" d="M170.6,193.354c-5.712-.484-2.42-7.373-6.685-9.171,1.595-.487,4.5-.625,6.291,1.616a7.407,7.407,0,0,1,1.743,3.658,4.508,4.508,0,0,1-.127,2.177C171.695,192.051,171.241,193.407,170.6,193.354Z" transform="translate(-159.087 -150.507)" fill="rgba(0,0,0,0.65)"/>
      <path id="Path_1459" data-name="Path 1459" d="M180.335,186.949c-5.464,1.738-5.058-5.886-9.686-5.915,1.287-1.06,3.923-2.3,6.429-.913a7.365,7.365,0,0,1,3.009,2.71,4.5,4.5,0,0,1,.719,2.06C180.848,185.326,180.948,186.755,180.335,186.949Z" transform="translate(-161.303 -149.066)" fill="rgba(0,0,0,0.65)"/>
      <path id="Path_1460" data-name="Path 1460" d="M187.109,176.98c-4.381,3.7-6.924-3.5-11.213-1.759.784-1.471,2.744-3.626,5.592-3.3a7.391,7.391,0,0,1,3.817,1.353,4.505,4.505,0,0,1,1.452,1.628C186.962,175.282,187.6,176.564,187.109,176.98Z" transform="translate(-163.029 -146.558)" fill="rgba(0,0,0,0.65)"/>
      <path id="Path_1461" data-name="Path 1461" d="M189.891,164.888c-2.633,5.093-7.736-.587-11.029,2.667.16-1.661,1.145-4.4,3.9-5.193a7.39,7.39,0,0,1,4.045-.211,4.519,4.519,0,0,1,1.963.949C189.108,163.376,190.187,164.317,189.891,164.888Z" transform="translate(-164.005 -143.293)" fill="rgba(0,0,0,0.65)"/>
      <path id="Path_1462" data-name="Path 1462" d="M188.114,152.442c-.484,5.711-7.372,2.418-9.17,6.684-.488-1.6-.626-4.5,1.616-6.29a7.387,7.387,0,0,1,3.656-1.743,4.494,4.494,0,0,1,2.177.124C186.811,151.344,188.167,151.8,188.114,152.442Z" transform="translate(-163.934 -139.691)" fill="rgba(0,0,0,0.65)"/>
      <path id="Path_1463" data-name="Path 1463" d="M181.71,141.686c1.739,5.463-5.888,5.056-5.916,9.684-1.06-1.287-2.3-3.921-.914-6.429a7.375,7.375,0,0,1,2.711-3.009,4.526,4.526,0,0,1,2.059-.719C180.085,141.172,181.514,141.073,181.71,141.686Z" transform="translate(-162.492 -136.456)" fill="rgba(0,0,0,0.65)"/>
      <path id="Path_1464" data-name="Path 1464" d="M171.739,134.321c3.7,4.382-3.5,6.924-1.758,11.211-1.473-.784-3.628-2.742-3.306-5.591a7.38,7.38,0,0,1,1.353-3.816,4.5,4.5,0,0,1,1.627-1.452C170.041,134.468,171.324,133.83,171.739,134.321Z" transform="translate(-159.985 -134.139)" fill="rgba(0,0,0,0.65)"/>
    </g>
    <path id="Path_1465" data-name="Path 1465" d="M161.838,157.622H151.41v12.914H153.7V165.7h7.814c3.95,0,4.151-1.679,4.151-4.421C165.666,158.221,164.263,157.622,161.838,157.622Zm-.254,6.093H153.7v-4.108h7.748c1.457,0,1.926.366,1.926,1.5v1.172C163.375,163.286,162.839,163.715,161.585,163.715Z" transform="translate(-134.629 -140.189)" fill="rgba(0,0,0,0.65)"/>
  </g>
</svg>
