<svg id="Group_1173" data-name="Group 1173" xmlns="http://www.w3.org/2000/svg" width="106.956" height="68.493" viewBox="0 0 106.956 68.493">
  <path id="Path_1524" data-name="Path 1524" d="M146.163,396.874a3.971,3.971,0,0,0-.861-.194q-9.169-.017-18.339-.006c-.268,0-.535.042-.86.069-.114.416-.222.792-.319,1.17a23.885,23.885,0,0,1-4.684,9.232,24.309,24.309,0,0,1-7.787,6.276,20.971,20.971,0,0,1-7.572,2.324,25.86,25.86,0,0,1-3.546.285,26.256,26.256,0,0,1-5.783-.788,24.719,24.719,0,0,1-9.731-5.089,24.385,24.385,0,0,1-5.068-6.089,23.14,23.14,0,0,1-3.114-9.03,23.785,23.785,0,0,1,2.359-13.955,22.756,22.756,0,0,1,4.86-6.608,23.948,23.948,0,0,1,11.4-6.1,16.623,16.623,0,0,1,3.887-.512c-.012.243,0,.488-.038.728q-.71,4.961-1.43,9.92a7.44,7.44,0,0,0-.9.152,13.6,13.6,0,0,0-7.963,6.079,13.742,13.742,0,0,0,13.648,20.746A13.8,13.8,0,0,0,116.2,391.9a11.883,11.883,0,0,0-.934-4.911c-.152-.35-.4-.713-.146-1.125l.562.169c1.228.5,2.441,1.049,3.69,1.495.874.312,1.8.488,2.7.724l.88.241c.416.4.76.794,1.162,1.111.467.369.984.674,1.48,1.007a7.529,7.529,0,0,0,4.457.571,16.6,16.6,0,0,0,10.046-4.944c.167.249.326.5.5.747a3.534,3.534,0,0,0,1.465,1.435,2.761,2.761,0,0,0,2.326.434,10.984,10.984,0,0,0,4.9-2.815l.34-.171a3.415,3.415,0,0,0,.691.148c1.794.012,3.589.01,5.383,0a3.718,3.718,0,0,0,.6-.1l.249-1.914c-.053,1.518-.106,3.035-.159,4.563-.31.221-.578.417-.852.605-.754.518-1.519,1.021-2.266,1.549A51.892,51.892,0,0,0,146.163,396.874Z" transform="translate(-78.28 -347.542)" fill="#bebebe"/>
  <path id="Path_1525" data-name="Path 1525" d="M179.056,323.26l-.562-.169c-1.7-.816-3.424-1.587-5.093-2.461-1.449-.759-2.837-1.636-4.253-2.46l-.726-.373c-.2,1.123-.393,2.092-.545,3.067-.1.654-.151,1.317-.22,1.976-.053.509-.1,1.018-.148,1.527,0,1.128,0,2.255-.011,3.383a3.234,3.234,0,0,1-2.193,3.047c-.6.2-1.216.34-1.825.507a2.582,2.582,0,0,1-1.317-2.406c.021-1.269.013-2.539.017-3.808q.151-1.951.3-3.9.212-2.723.425-5.446.716-4.96,1.43-9.92c.034-.24.027-.485.038-.728q.375-1.739.749-3.478a122.141,122.141,0,0,1,3.68-13.671,17.227,17.227,0,0,1,.809-1.838,2.2,2.2,0,0,1,2.21-1.331c1.285.052,2.585.128,3.4,1.374a10.268,10.268,0,0,1-.683,4c-.627,1.793-1.274,3.579-1.837,5.393-.439,1.413-.764,2.861-1.135,4.3-.136.526-.275,1.053-.381,1.586-.165.829-.3,1.663-.455,2.495q-.481,2.609-.966,5.217l.151.06.7-1.137a13.906,13.906,0,0,0,1.1-1.083q7.187-8.778,14.355-17.573c.135-.165.272-.329.415-.488,1.291-1.44,2.638-1.424,3.933.043a11.119,11.119,0,0,1-.75,1.746c-1.2,1.866-2.372,3.759-3.713,5.522-1.985,2.609-4.089,5.127-6.17,7.661-2.142,2.609-4.325,5.186-6.474,7.789-.512.621-.964,1.292-1.486,2l.506.25a3.061,3.061,0,0,0,.426.461,42.447,42.447,0,0,0,11.59,5.762,1.916,1.916,0,0,0,.318.042c.087-.759.129-1.514.265-2.253.9-4.88,2.72-9.3,6.443-12.754a6.388,6.388,0,0,1,4.374-1.811,3.918,3.918,0,0,1,3.809,2.473c-.047.508-.085,1.017-.146,1.523a10.047,10.047,0,0,1-.2,1.246,10.807,10.807,0,0,1-1.739,3.488,18.332,18.332,0,0,1-6.909,6.328.91.91,0,0,0-.467.406,8.944,8.944,0,0,0-.114,3.7l.194.01.085-.424.216,1.1a2.223,2.223,0,0,0,1.987,1.481,8.025,8.025,0,0,0,5.682-1.437,9.925,9.925,0,0,0,2.958-2.261,19.674,19.674,0,0,0,1.94-2.306,2.909,2.909,0,0,0,.527-1.236,45.476,45.476,0,0,1,1.792-6.705,13.916,13.916,0,0,1,.51-1.562A10.018,10.018,0,0,1,207,307.132a2.465,2.465,0,0,1,3.516-.366,10.369,10.369,0,0,1,1.019,1.035,5.358,5.358,0,0,1-.825,3.9,5.4,5.4,0,0,0-.614,1.318c-.721,2.215-1.448,4.429-2.1,6.665a3.919,3.919,0,0,0-.064,2.491l.254-.749.11.875c.616-.454,1.138-.806,1.624-1.2a47.334,47.334,0,0,0,7.119-7.579c1.336-1.7,2.724-3.361,4.122-5.011,1.193-1.407,2.316-1.38,3.579.025a18.354,18.354,0,0,1,.351,4.985q0,2.514,0,5.028c0,.273-.013.548-.035.82-.106,1.3-.216,2.6-.325,3.895-.135,1.632-.2,3.274-.425,4.892-.255,1.8-.656,3.578-1.009,5.362-.182.922-.4,1.838-.6,2.756a2.5,2.5,0,0,0-.16.321c-.413,1.236-.751,2.5-1.247,3.7a28.521,28.521,0,0,1-3.323,6.043,13.757,13.757,0,0,1-4.364,4.068,8,8,0,0,1-4.764,1.289,4.088,4.088,0,0,0-.973.131,5.889,5.889,0,0,1-3.477-4.2,11.306,11.306,0,0,1,1.242-8.125,29.534,29.534,0,0,1,3.9-5.4,51.893,51.893,0,0,1,7.118-6.155c.747-.529,1.511-1.032,2.266-1.549.274-.188.542-.385.852-.605.053-1.528.106-3.046.159-4.563.009-1.523.023-3.047.018-4.57a2.115,2.115,0,0,0-.171-.574l.184-.889c-1.114,1.083-2.037,2.244-3.064,3.3-1.2,1.242-2.5,2.4-3.755,3.589-.351.332-.711.655-1.067.983-.8.535-1.6,1.079-2.414,1.6a5.066,5.066,0,0,1-3.228.972c-.33-.029-.664,0-1,0a3.534,3.534,0,0,1-1.465-1.434c-.175-.243-.334-.5-.5-.747l-.1-.639c-.31.256-.545.447-.777.642a20.9,20.9,0,0,1-4.94,3.239,13.469,13.469,0,0,1-8.1,1.115,2.73,2.73,0,0,0-.593.017c-.5-.333-1.013-.638-1.48-1.007-.4-.318-.746-.708-1.162-1.111l-.88-.241.6-.087a.7.7,0,0,0-.443-.294c-.855-.189-1.732-.3-2.563-.564-1.155-.366-2.273-.848-3.413-1.26A1.813,1.813,0,0,0,179.056,323.26Zm39.8,7.154c.239-.27.528-.525.211-1.013l-5.16,4.311a6.37,6.37,0,0,1-.48.546,23.634,23.634,0,0,0-4.839,6.232,10.263,10.263,0,0,0-1.275,5.418,7.065,7.065,0,0,0,.3,1.418c.013.051.171.066.261.1l.581,1.042a2.776,2.776,0,0,0,2.736-.624,13.525,13.525,0,0,0,3.813-4.5,31.133,31.133,0,0,0,2.573-6.535c.277-.962.484-1.943.723-2.916s.5-1.934.713-2.909C219.061,330.815,218.92,330.605,218.861,330.414Zm-22.743-23.3-.318-.536a2.981,2.981,0,0,0-2.028,1.6,21.355,21.355,0,0,0-2.938,7.1l.707-.848a1.6,1.6,0,0,0,.487-.179,13.305,13.305,0,0,0,3.89-5.114A2.376,2.376,0,0,0,196.118,307.111Z" transform="translate(-141.651 -284.772)" fill="#535353"/>
  <path id="Path_1526" data-name="Path 1526" d="M427.159,465a5.848,5.848,0,0,1-.189-1.034c-.014-3.356-.009-6.713-.009-10.07v-1a4.438,4.438,0,0,0-2.132-.081c-.023.366-.065.718-.066,1.07-.005,3.357,0,6.713-.011,10.07a5.989,5.989,0,0,1-.184,1.038q.006-3.019.011-6.038c0-2.032,0-4.064,0-6.224h-4.591l-2.167,0-3.488-.01c.018-.12.03-.241.054-.36a58.455,58.455,0,0,0,1.232-8.952l.2-1.334h22.851a77.1,77.1,0,0,1,.125,10.58c-.356.025-.736.054-1.116.079l-2.432.16a10.677,10.677,0,0,0-1.26-.156c-1.948-.017-3.9-.01-5.844,0-.293,0-.586.041-.979.071Z" transform="translate(-332.151 -403.607)" fill="#bebebe"/>
  <path id="Path_1527" data-name="Path 1527" d="M415.983,485.618h4.591c0,2.16,0,4.192,0,6.224q0,3.019-.011,6.038h-4.475c-.252-1.612.044-3.226-.172-4.873h-2.106v4.832H409.26c-.019-.352-.05-.676-.051-1-.005-1.923,0-3.846-.011-5.769a4.691,4.691,0,0,0-.167-.859l.323-.954.973-3.647,3.488.01v4.138h2.167Z" transform="translate(-328.146 -436.495)" fill="#969696"/>
  <path id="Path_1528" data-name="Path 1528" d="M466.784,497.913v-12.2c.392-.03.686-.07.979-.071,1.948-.006,3.9-.012,5.844,0a10.684,10.684,0,0,1,1.26.156,4.469,4.469,0,0,1,2.523,1.705,3.253,3.253,0,0,1-1.136,4.863l-.746.411c.951,1.748,2.176,3.295,3.225,5.086h-4.986l-2.487-4.849a34.162,34.162,0,0,1-.028,4.893c-.807.005-1.527.013-2.248.013S467.517,497.918,466.784,497.913Zm4.509-6.839a1.649,1.649,0,0,0,1.878-.727,1.19,1.19,0,0,0-.019-1.449,1.774,1.774,0,0,0-1.86-.588Z" transform="translate(-371.776 -436.516)" fill="#969696"/>
  <path id="Path_1529" data-name="Path 1529" d="M202.189,326.871l-.506-.25c.523-.707.974-1.378,1.486-2,2.149-2.6,4.331-5.18,6.474-7.789,2.081-2.534,4.186-5.052,6.17-7.661,1.341-1.763,2.513-3.656,3.713-5.522a11.118,11.118,0,0,0,.75-1.746,1.419,1.419,0,0,1,.017,1.558c-.373.731-.774,1.453-1.217,2.143a96.452,96.452,0,0,1-6.613,8.754q-5.06,6.2-10.139,12.39A1.16,1.16,0,0,1,202.189,326.871Z" transform="translate(-171.505 -297.714)" fill="#454545"/>
  <path id="Path_1530" data-name="Path 1530" d="M364.044,496.628l-.323.954a28.305,28.305,0,0,1-3.994,8.161,13.651,13.651,0,0,1-5.608,4.819,6.958,6.958,0,0,1-5.065.36,4.088,4.088,0,0,1,.973-.131,8,8,0,0,0,4.764-1.289,13.755,13.755,0,0,0,4.364-4.068,28.522,28.522,0,0,0,3.323-6.043c.5-1.2.834-2.468,1.247-3.7a2.5,2.5,0,0,1,.16-.321Z" transform="translate(-282.836 -443.866)" fill="#454545"/>
  <path id="Path_1531" data-name="Path 1531" d="M194.108,312.314l-.7,1.137-.151-.06q.483-2.608.966-5.217c.153-.831.289-1.666.455-2.495.106-.533.245-1.06.381-1.586.37-1.434.7-2.882,1.135-4.3.563-1.813,1.21-3.6,1.837-5.393a10.269,10.269,0,0,0,.683-4,1.97,1.97,0,0,1,.388,1.806,33.132,33.132,0,0,1-1.025,3.787,91.834,91.834,0,0,0-3.948,15.491C194.085,311.739,193.739,312.034,194.108,312.314Z" transform="translate(-165.139 -289.024)" fill="#454545"/>
  <path id="Path_1532" data-name="Path 1532" d="M275.78,387.23l-.085.424-.194-.01a8.944,8.944,0,0,1,.114-3.7.91.91,0,0,1,.467-.406,18.332,18.332,0,0,0,6.909-6.328,10.807,10.807,0,0,0,1.739-3.488,10.044,10.044,0,0,0,.2-1.246c.061-.506.1-1.015.146-1.523a5.209,5.209,0,0,1-.07,3.836,16.517,16.517,0,0,1-3.659,5.524,15.157,15.157,0,0,1-5.176,3.828A9.442,9.442,0,0,0,275.78,387.23Z" transform="translate(-227.167 -349.879)" fill="#464646"/>
  <path id="Path_1533" data-name="Path 1533" d="M285.617,442.064a8.025,8.025,0,0,1-5.682,1.437,2.223,2.223,0,0,1-1.987-1.481Z" transform="translate(-229.119 -403.565)" fill="#bdbdbd"/>
  <path id="Path_1534" data-name="Path 1534" d="M349.036,392.57l-.254.749a3.919,3.919,0,0,1,.064-2.491c.65-2.236,1.377-4.45,2.1-6.665a5.4,5.4,0,0,1,.614-1.318,5.358,5.358,0,0,0,.825-3.9,3.215,3.215,0,0,1,.115,3.438c-.67,1.5-1.38,3-1.9,4.555C349.982,388.783,349.549,390.69,349.036,392.57Z" transform="translate(-282.497 -355.915)" fill="#464646"/>
  <path id="Path_1535" data-name="Path 1535" d="M418.6,396.645l-.2,1.335a3.7,3.7,0,0,0-.042-.789,1.955,1.955,0,0,0-.343-.523c.109-1.3.22-2.6.325-3.895.022-.273.034-.547.035-.82q.005-2.514,0-5.028a18.354,18.354,0,0,0-.351-4.985,3.6,3.6,0,0,1,.526,1.02,21.208,21.208,0,0,1,.355,3.448c-.043,2.926-.2,5.85-.3,8.775C418.59,395.67,418.6,396.158,418.6,396.645Z" transform="translate(-334.936 -358.177)" fill="#474747"/>
  <path id="Path_1536" data-name="Path 1536" d="M271.759,445.394a2.733,2.733,0,0,1,.593-.017,13.469,13.469,0,0,0,8.1-1.115,20.9,20.9,0,0,0,4.94-3.239c.232-.195.467-.386.777-.642l.1.639a16.6,16.6,0,0,1-10.046,4.944A7.529,7.529,0,0,1,271.759,445.394Z" transform="translate(-224.444 -402.328)" fill="#2d2d2d"/>
  <path id="Path_1537" data-name="Path 1537" d="M373.951,410.078a44.186,44.186,0,0,1-5.614,5.974c-.384.347-.772.689-1.157,1.033l-.34.171-.589-.192c.356-.327.716-.65,1.067-.983,1.257-1.191,2.55-2.346,3.755-3.589,1.027-1.06,1.95-2.221,3.064-3.3Z" transform="translate(-295.827 -378.763)" fill="#464646"/>
  <path id="Path_1538" data-name="Path 1538" d="M345.743,441.393l.589.192a10.985,10.985,0,0,1-4.9,2.815,2.761,2.761,0,0,1-2.326-.434c.332,0,.667-.029,1,0a5.066,5.066,0,0,0,3.228-.972C344.141,442.472,344.938,441.928,345.743,441.393Z" transform="translate(-275.32 -403.091)" fill="#2e2e2e"/>
  <path id="Path_1539" data-name="Path 1539" d="M231.237,442.1a1.814,1.814,0,0,1,.571.013c1.141.412,2.258.895,3.413,1.26.83.263,1.708.376,2.563.564a.7.7,0,0,1,.443.294l-.6.087c-.9-.237-1.824-.412-2.7-.724C233.678,443.153,232.465,442.607,231.237,442.1Z" transform="translate(-193.832 -403.615)" fill="#363636"/>
  <path id="Path_1540" data-name="Path 1540" d="M160.69,448.16a5.5,5.5,0,0,1,2.839,3.855,5.392,5.392,0,0,1-1.32,4.84,5.885,5.885,0,0,1-3.478,1.873,5.087,5.087,0,0,1-3.894-1.006,5.3,5.3,0,0,1-2.207-3.062,5.474,5.474,0,0,1,1.256-5.275c.288-.312.628-.577.944-.863,0,1.269,0,2.539-.017,3.808a2.582,2.582,0,0,0,1.317,2.406,3.246,3.246,0,0,0,4.388-2.971c.015-1.068.014-2.136.021-3.2Z" transform="translate(-134.298 -408.204)" fill="#d3d3d3"/>
  <path id="Path_1541" data-name="Path 1541" d="M354.115,485.085c-1.078,1.162-2.234,2.262-3.213,3.5a28.168,28.168,0,0,0-2.515,3.812,9.685,9.685,0,0,0-1.043,6.209c-.091-.031-.248-.046-.261-.1a7.067,7.067,0,0,1-.3-1.418,10.263,10.263,0,0,1,1.275-5.418,23.634,23.634,0,0,1,4.839-6.232,6.372,6.372,0,0,0,.48-.546Z" transform="translate(-281.111 -435.957)" fill="#474747"/>
  <path id="Path_1542" data-name="Path 1542" d="M411.734,442.167a1.955,1.955,0,0,1,.343.523,3.7,3.7,0,0,1,.042.789,58.454,58.454,0,0,1-1.232,8.952c-.023.119-.036.24-.054.36l-.973,3.647-.159-1.261c.2-.918.418-1.834.6-2.756.353-1.784.754-3.563,1.009-5.362C411.539,445.441,411.6,443.8,411.734,442.167Z" transform="translate(-328.652 -403.676)" fill="#2c2c2c"/>
  <path id="Path_1543" data-name="Path 1543" d="M380.933,474.892l-3.5-.014c.256-.254.5-.529.771-.759,1.088-.909,2.187-1.8,3.282-2.706.059.191.2.4.162.57C381.432,472.958,381.176,473.924,380.933,474.892Z" transform="translate(-304.274 -425.77)" fill="#bcbcbc"/>
  <path id="Path_1544" data-name="Path 1544" d="M284.683,374.465a1.665,1.665,0,0,0-1.4.9c-.773,1.27-1.538,2.549-2.213,3.871a23.389,23.389,0,0,0-.965,2.552l-.707.848a21.356,21.356,0,0,1,2.938-7.1,2.981,2.981,0,0,1,2.028-1.6Z" transform="translate(-230.216 -352.126)" fill="#464646"/>
  <path id="Path_1545" data-name="Path 1545" d="M171.962,447.443c-.007,1.068-.006,2.137-.021,3.2a3.246,3.246,0,0,1-4.388,2.971c.609-.167,1.227-.307,1.825-.507a3.234,3.234,0,0,0,2.193-3.047c.012-1.128.008-2.255.011-3.383Z" transform="translate(-145.721 -407.086)" fill="#303030"/>
  <path id="Path_1546" data-name="Path 1546" d="M378.717,468.283c-1.095.9-2.194,1.8-3.282,2.706-.276.231-.515.505-.771.759l-.153.02-.743-.188,5.16-4.311C379.246,467.758,378.956,468.014,378.717,468.283Z" transform="translate(-301.507 -422.64)" fill="#2d2d2d"/>
  <path id="Path_1547" data-name="Path 1547" d="M184.4,427.147l-.381-.762c.049-.509.1-1.018.148-1.527.068-.659.118-1.322.22-1.976.152-.975.343-1.943.545-3.067l.726.373c-.109.13-.287.246-.316.391a36.283,36.283,0,0,0-.79,6.168Z" transform="translate(-158.164 -386.79)" fill="#474747"/>
</svg>
