<svg id="Group_1172" data-name="Group 1172" xmlns="http://www.w3.org/2000/svg" width="120.646" height="35.702" viewBox="0 0 120.646 35.702">
  <g id="Group_1161" data-name="Group 1161" transform="translate(31.805 2.186)">
    <path id="Path_1508" data-name="Path 1508" d="M255.118,81.162a2.775,2.775,0,1,0,5.549,0,3.274,3.274,0,0,0-3.567-3.347,5.429,5.429,0,0,0-3.963,1.825,4.03,4.03,0,0,1,2.279-.2l.2.1-.1.2a2.181,2.181,0,0,0-.4,1.42" transform="translate(-228.107 -69.193)" fill="rgba(0,0,0,0.65)"/>
    <path id="Path_1509" data-name="Path 1509" d="M457.5,48.582l.216.051-.05.22a3.321,3.321,0,0,1-1.6,1.669,5.436,5.436,0,0,0,3.9-1.964c1.136-1.407,1.509-3.46-.248-4.947a2.669,2.669,0,0,0-3.907.38,2.817,2.817,0,0,0,.371,4,2.08,2.08,0,0,0,1.322.592" transform="translate(-380.183 -42.933)" fill="rgba(0,0,0,0.65)"/>
    <path id="Path_1510" data-name="Path 1510" d="M257.552,111.3c0,2.434,1.684,3.854,4.459,3.854a5.755,5.755,0,0,0,3.667-1.42c-1.678.674-2.874-.281-2.874-2.84a4.363,4.363,0,0,1,2.775-3.956c-4.855-.1-8.026,1.42-8.026,4.361" transform="translate(-231.432 -91.111)" fill="rgba(0,0,0,0.65)"/>
    <path id="Path_1511" data-name="Path 1511" d="M396.234,88.255c0,4.773,2.676,3.962,2.973,3.862a4.218,4.218,0,0,1-2.874,1.115c-.892,0-5.45-.415-5.45-5.883V83.7c0-5.468,4.559-5.883,5.45-5.883a4.217,4.217,0,0,1,2.874,1.115c-.3-.1-2.973-.912-2.973,3.862Z" transform="translate(-331.805 -69.192)" fill="rgba(0,0,0,0.65)"/>
    <path id="Path_1512" data-name="Path 1512" d="M461.041,77.885c-3.007,0-4.616,1.941-4.616,4.073,0,4.15,7.078,5.32,9.052,7.738a2.259,2.259,0,0,1-.721,3.589c2.212-.246,4.712-1.324,5.187-4.354.792-5.052-9.286-6.321-9.718-9.176A1.647,1.647,0,0,1,461.041,77.885Z" transform="translate(-381.146 -69.245)" fill="rgba(0,0,0,0.65)"/>
    <path id="Path_1513" data-name="Path 1513" d="M483.6,77.705" transform="translate(-401.605 -69.11)" fill="rgba(0,0,0,0.65)"/>
    <path id="Path_1514" data-name="Path 1514" d="M457.1,117.538V110.19a77.019,77.019,0,0,0,6.944,7.415s-2.9-.547-4.078-.7A3.34,3.34,0,0,0,457.1,117.538Z" transform="translate(-381.654 -93.565)" fill="rgba(0,0,0,0.65)"/>
    <path id="Path_1515" data-name="Path 1515" d="M182.141,79.031h1.981c4.262.1,7.135-1.623,7.135-5.173,0-5.071-5.846-5.478-5.846-5.478s4.624-.338,4.624-4.395c0-2.841-2.146-4.632-5.515-4.632h-2.577a4.872,4.872,0,0,1,2.973,4.666,4.76,4.76,0,0,1-3.369,4.361c1.09.2,3.829,1.468,3.829,5.777,0,2.517-1.288,4.306-3.234,4.874" transform="translate(-174.214 -55.294)" fill="rgba(0,0,0,0.65)"/>
    <path id="Path_1516" data-name="Path 1516" d="M352.684,92.928h7.532a3.334,3.334,0,0,1-1.289-2.637l0-7.81c0-3.145-1.387-4.666-4.162-4.666a4.7,4.7,0,0,0-3.567,1.623,1.943,1.943,0,0,1,2.774,1.927l0,8.926a3.334,3.334,0,0,1-1.289,2.637" transform="translate(-301.928 -69.193)" fill="rgba(0,0,0,0.65)"/>
    <path id="Path_1517" data-name="Path 1517" d="M322.416,91.217h0a3.334,3.334,0,0,1-1.289,2.637h7.532a3.334,3.334,0,0,1-1.289-2.637V79.046h-6.243a3.333,3.333,0,0,1,1.289,2.637Z" transform="translate(-279.292 -70.119)" fill="rgba(0,0,0,0.65)"/>
    <path id="Path_1518" data-name="Path 1518" d="M224.757,91.217h0a3.334,3.334,0,0,1-1.289,2.637H231a3.334,3.334,0,0,1-1.289-2.637V79.046h-6.243a3.333,3.333,0,0,1,1.289,2.637Z" transform="translate(-205.773 -70.119)" fill="rgba(0,0,0,0.65)"/>
    <path id="Path_1519" data-name="Path 1519" d="M151.88,59.36A3.333,3.333,0,0,1,153.169,62V76.4a3.334,3.334,0,0,1-1.289,2.637h6.569V59.36Z" transform="translate(-151.88 -55.299)" fill="rgba(0,0,0,0.65)"/>
    <path id="Path_1520" data-name="Path 1520" d="M429.6,64.959V44.166h-6.243a3.334,3.334,0,0,1,1.289,2.637V67.6h6.243a3.334,3.334,0,0,1-1.288-2.637" transform="translate(-356.251 -43.861)" fill="rgba(0,0,0,0.65)"/>
    <path id="Path_1521" data-name="Path 1521" d="M288.8,92.618h6.243a3.334,3.334,0,0,1-1.289-2.637V82.474c0-3.449-2.08-4.969-6.936-5.071a3.471,3.471,0,0,1,1.981,3.144Z" transform="translate(-253.464 -68.882)" fill="rgba(0,0,0,0.65)"/>
  </g>
  <path id="Path_1522" data-name="Path 1522" d="M482.636,77.253s2.028.332,3.208.481a3.34,3.34,0,0,0,2.867-.63l.148,6.435A30.119,30.119,0,0,0,482.636,77.253Z" transform="translate(-369.073 -66.472)" fill="rgba(0,0,0,0.65)"/>
  <path id="Path_1523" data-name="Path 1523" d="M36.153,34.088a13.079,13.079,0,0,0-12.942,13.1A12.939,12.939,0,0,0,38.295,59.957l.034.052a15.121,15.121,0,0,1-1.817,4.507,20.113,20.113,0,0,1-4.1,5.064.119.119,0,0,0,.1.206c7.011-1.681,12.4-5.5,15.793-11.558a20.1,20.1,0,0,0,2.252-9.934C50.386,41.262,45.668,34.088,36.153,34.088Z" transform="translate(-23.211 -34.088)" fill="rgba(0,0,0,0.65)"/>
</svg>
