<svg xmlns="http://www.w3.org/2000/svg" width="73.396" height="33.102" viewBox="0 0 73.396 33.102">
  <g id="Group_1176" data-name="Group 1176" transform="translate(-21.8 -185.8)">
    <path id="Path_1632" data-name="Path 1632" d="M27.537,186.8l4.159,9.419H29.788l-.979-2.288h-4.2l-.905,2.288H21.8l3.89-9.419Zm-2.373,5.749H28.21l-1.59-3.731Z" transform="translate(0 -0.878)" fill="#f5f5f5"/>
    <path id="Path_1633" data-name="Path 1633" d="M113.439,186.8l3.095,3.719,3.095-3.719h1.627v9.419h-1.823V189.6h-.049l-2.728,3.327H116.4l-2.728-3.327h-.049v6.618H111.8V186.8Z" transform="translate(-78.991 -0.878)" fill="#f5f5f5"/>
    <path id="Path_1634" data-name="Path 1634" d="M212.192,186.8v1.419h-4.269V190.7h4.086v1.419h-4.086V194.8h4.355v1.419H206.1V186.8Z" transform="translate(-161.755 -0.878)" fill="#f5f5f5"/>
    <path id="Path_1635" data-name="Path 1635" d="M273.988,186.712a3.18,3.18,0,0,1,2.165.734,2.408,2.408,0,0,1,.832,1.921,2.322,2.322,0,0,1-.416,1.395,2.736,2.736,0,0,1-1.236.942,2.743,2.743,0,0,1,.807.661,8.4,8.4,0,0,1,.868,1.407c.575,1.138,1,1.933,1.284,2.361h-2.031c-.135-.208-.33-.538-.563-.991a23.094,23.094,0,0,0-1.15-2.031,2.983,2.983,0,0,0-.7-.746,1.357,1.357,0,0,0-.771-.22h-.661v3.976H270.6V186.7h3.388Zm-.416,4.025a1.676,1.676,0,0,0,1.125-.355,1.229,1.229,0,0,0,.4-.979,1.155,1.155,0,0,0-.4-.966,1.838,1.838,0,0,0-1.15-.318H272.41v2.618Z" transform="translate(-218.365 -0.79)" fill="#f5f5f5"/>
    <rect id="Rectangle_377" data-name="Rectangle 377" width="1.823" height="9.419" transform="translate(61.165 185.922)" fill="#f5f5f5"/>
    <path id="Path_1636" data-name="Path 1636" d="M375.133,185.8a6.787,6.787,0,0,1,1.578.184,8.071,8.071,0,0,1,1.664.624v1.713a7.576,7.576,0,0,0-1.615-.722,5.336,5.336,0,0,0-1.541-.22,3.834,3.834,0,0,0-1.81.416,3.154,3.154,0,0,0-1.26,1.174,3.391,3.391,0,0,0-.012,3.364,2.977,2.977,0,0,0,1.26,1.162,4.032,4.032,0,0,0,1.823.4,4.925,4.925,0,0,0,1.48-.22,10.293,10.293,0,0,0,1.774-.807v1.713a8.292,8.292,0,0,1-1.688.685,7.123,7.123,0,0,1-1.8.208,5.743,5.743,0,0,1-2.667-.6,4.455,4.455,0,0,1-1.847-1.713,4.6,4.6,0,0,1-.673-2.447,4.876,4.876,0,0,1,.685-2.557,4.674,4.674,0,0,1,1.9-1.749,6.185,6.185,0,0,1,2.752-.612" transform="translate(-305.43 0)" fill="#f5f5f5"/>
    <path id="Path_1637" data-name="Path 1637" d="M455.537,186.8l4.159,9.419h-1.921l-.979-2.288h-4.184l-.905,2.288H449.8l3.89-9.419Zm-2.373,5.749h3.046l-1.59-3.731Z" transform="translate(-375.644 -0.878)" fill="#f5f5f5"/>
    <path id="Path_1638" data-name="Path 1638" d="M544.2,186.8l5.59,6.569V186.8h1.786v9.419h-1.566l-5.639-6.679v6.679H542.6V186.8Z" transform="translate(-457.092 -0.878)" fill="#f5f5f5"/>
    <path id="Path_1639" data-name="Path 1639" d="M28.2,396.4l3.2,7.23h-1.48l-.746-1.761H25.965l-.7,1.761H23.8l2.985-7.23Zm-1.823,4.4h2.336l-1.223-2.862Z" transform="translate(-1.755 -184.838)" fill="#f5f5f5"/>
    <path id="Path_1640" data-name="Path 1640" d="M92.371,395.6a4.155,4.155,0,0,1,2.031.526v1.248a3.97,3.97,0,0,0-1.994-.673,1.493,1.493,0,0,0-.832.208.634.634,0,0,0-.294.55.961.961,0,0,0,.55.758,13.246,13.246,0,0,0,1.2.575,3.45,3.45,0,0,1,1.284.93,2.013,2.013,0,0,1,.391,1.236,1.861,1.861,0,0,1-.673,1.5,2.609,2.609,0,0,1-1.737.575,4.342,4.342,0,0,1-1.2-.147,5.3,5.3,0,0,1-1.125-.526v-1.382a3.555,3.555,0,0,0,2.19.966,1.451,1.451,0,0,0,.832-.22.691.691,0,0,0,.318-.587.937.937,0,0,0-.55-.82c-.306-.171-.7-.367-1.174-.6a3.4,3.4,0,0,1-1.272-.905,1.834,1.834,0,0,1-.416-1.2,1.765,1.765,0,0,1,.673-1.456,2.705,2.705,0,0,1,1.8-.563" transform="translate(-59.77 -184.136)" fill="#f5f5f5"/>
    <path id="Path_1641" data-name="Path 1641" d="M138.583,395.6a4.155,4.155,0,0,1,2.031.526v1.248a3.97,3.97,0,0,0-1.994-.673,1.493,1.493,0,0,0-.832.208.634.634,0,0,0-.294.55.961.961,0,0,0,.55.758c.11.073.5.257,1.2.575a3.351,3.351,0,0,1,1.284.93,2.013,2.013,0,0,1,.391,1.236,1.861,1.861,0,0,1-.673,1.5,2.608,2.608,0,0,1-1.737.575,4.342,4.342,0,0,1-1.2-.147,5.3,5.3,0,0,1-1.125-.526v-1.382a3.555,3.555,0,0,0,2.19.966,1.424,1.424,0,0,0,.832-.22.691.691,0,0,0,.318-.587.937.937,0,0,0-.55-.82c-.306-.171-.7-.367-1.174-.6a3.4,3.4,0,0,1-1.272-.905,1.845,1.845,0,0,1-.428-1.2,1.765,1.765,0,0,1,.673-1.456,2.762,2.762,0,0,1,1.81-.563" transform="translate(-100.318 -184.136)" fill="#f5f5f5"/>
    <path id="Path_1642" data-name="Path 1642" d="M187.2,395.6a4.38,4.38,0,0,1,2.018.465,3.575,3.575,0,0,1,1.431,1.333,3.63,3.63,0,0,1,.538,1.908,3.648,3.648,0,0,1-1.957,3.229,4.338,4.338,0,0,1-2.043.477,4.237,4.237,0,0,1-2.043-.489,3.674,3.674,0,0,1-1.431-1.333,3.572,3.572,0,0,1-.514-1.884,3.656,3.656,0,0,1,.514-1.872,3.45,3.45,0,0,1,1.419-1.358,4.3,4.3,0,0,1,2.067-.477m-2.557,3.719a2.588,2.588,0,0,0,.33,1.3,2.351,2.351,0,0,0,.905.893,2.775,2.775,0,0,0,1.321.318,2.52,2.52,0,0,0,1.835-.7,2.4,2.4,0,0,0,.722-1.8,2.678,2.678,0,0,0-.318-1.3,2.3,2.3,0,0,0-.917-.893,2.9,2.9,0,0,0-2.642,0,2.2,2.2,0,0,0-.905.893,2.339,2.339,0,0,0-.33,1.284" transform="translate(-141.657 -184.136)" fill="#f5f5f5"/>
    <path id="Path_1643" data-name="Path 1643" d="M260.886,395.6a5.741,5.741,0,0,1,1.211.135,6.612,6.612,0,0,1,1.272.477v1.321a5.585,5.585,0,0,0-1.236-.551,4.217,4.217,0,0,0-1.187-.171,3.077,3.077,0,0,0-1.395.318,2.3,2.3,0,0,0-.966.905,2.465,2.465,0,0,0-.342,1.284,2.376,2.376,0,0,0,1.309,2.19,3.078,3.078,0,0,0,1.395.318,3.941,3.941,0,0,0,1.138-.171,7.984,7.984,0,0,0,1.37-.612v1.309a6.712,6.712,0,0,1-1.3.526,5.172,5.172,0,0,1-1.382.159,4.44,4.44,0,0,1-2.043-.453,3.49,3.49,0,0,1-1.419-1.309,3.592,3.592,0,0,1-.514-1.872,3.637,3.637,0,0,1,.526-1.957,3.676,3.676,0,0,1,1.456-1.346,4.281,4.281,0,0,1,2.1-.5" transform="translate(-206.253 -184.136)" fill="#f5f5f5"/>
    <rect id="Rectangle_378" data-name="Rectangle 378" width="1.395" height="7.229" transform="translate(58.559 211.562)" fill="#f5f5f5"/>
    <path id="Path_1644" data-name="Path 1644" d="M345.316,396.4l3.193,7.23h-1.48l-.746-1.761h-3.217l-.7,1.761H340.9l2.985-7.23Zm-1.823,4.4h2.336l-1.223-2.862Z" transform="translate(-280.066 -184.838)" fill="#f5f5f5"/>
    <path id="Path_1645" data-name="Path 1645" d="M405.245,396.4v1.089h-2.569v6.141h-1.407v-6.141H398.7V396.4Z" transform="translate(-330.795 -184.838)" fill="#f5f5f5"/>
    <rect id="Rectangle_379" data-name="Rectangle 379" width="1.395" height="7.229" transform="translate(75.538 211.562)" fill="#f5f5f5"/>
    <path id="Path_1646" data-name="Path 1646" d="M487.4,395.6a4.38,4.38,0,0,1,2.018.465,3.575,3.575,0,0,1,1.431,1.333,3.63,3.63,0,0,1,.538,1.908,3.648,3.648,0,0,1-1.957,3.229,4.3,4.3,0,0,1-2.043.477,4.237,4.237,0,0,1-2.043-.489,3.674,3.674,0,0,1-1.431-1.333,3.573,3.573,0,0,1-.514-1.884,3.656,3.656,0,0,1,.514-1.872,3.451,3.451,0,0,1,1.419-1.358,4.367,4.367,0,0,1,2.067-.477m-2.544,3.719a2.589,2.589,0,0,0,.33,1.3,2.351,2.351,0,0,0,.905.893,2.775,2.775,0,0,0,1.321.318,2.52,2.52,0,0,0,1.835-.7,2.4,2.4,0,0,0,.722-1.8,2.678,2.678,0,0,0-.318-1.3,2.226,2.226,0,0,0-.917-.893,2.9,2.9,0,0,0-2.642,0,2.2,2.2,0,0,0-.905.893,2.339,2.339,0,0,0-.33,1.284" transform="translate(-405.134 -184.136)" fill="#f5f5f5"/>
    <path id="Path_1647" data-name="Path 1647" d="M560.723,396.4l4.294,5.04V396.4h1.37v7.23h-1.2l-4.33-5.126v5.126H559.5V396.4Z" transform="translate(-471.925 -184.838)" fill="#f5f5f5"/>
    <path id="Path_1648" data-name="Path 1648" d="M38.859,291.781a3.073,3.073,0,0,1-.2,1.1,3.038,3.038,0,0,1-.624,1,2.984,2.984,0,0,1-1.162.746,4.629,4.629,0,0,1-1.725.294H33.158v3.792H30.1V288.6h5.052a4.63,4.63,0,0,1,1.725.294,3.146,3.146,0,0,1,1.162.758,3.042,3.042,0,0,1,.624,1.015,3.187,3.187,0,0,1,.2,1.113m-3.107.012a1.1,1.1,0,0,0-.428-.991,3.03,3.03,0,0,0-1.529-.269h-.636v2.434h.661a5.532,5.532,0,0,0,1.162-.1.949.949,0,0,0,.587-.355,1.136,1.136,0,0,0,.183-.722" transform="translate(-7.285 -90.225)" fill="#f5f5f5"/>
    <path id="Path_1649" data-name="Path 1649" d="M107.594,298.716h-3.119l-.82-2.055H99.263l-.844,2.055H95.3L99.777,288.6h3.376Zm-4.648-3.817-1.48-3.682-1.492,3.694h2.973Z" transform="translate(-64.509 -90.225)" fill="#f5f5f5"/>
    <path id="Path_1650" data-name="Path 1650" d="M195.946,288.6l-3.963,5.48v4.636h-3.046v-4.575L184.9,288.6h3.168l2.324,3.181,2.324-3.181Z" transform="translate(-143.149 -90.225)" fill="#f5f5f5"/>
    <path id="Path_1651" data-name="Path 1651" d="M296.186,298.716h-3.278l-.8-1.8a7.625,7.625,0,0,0-.783-1.443,1.708,1.708,0,0,0-.685-.587,2.4,2.4,0,0,0-.856-.122h-.342v3.951H286.4V288.6h5.187a3.764,3.764,0,0,1,2.055.514,3.184,3.184,0,0,1,1.162,1.235,3.261,3.261,0,0,1,.355,1.382,2.639,2.639,0,0,1-.294,1.3,2.308,2.308,0,0,1-.624.771,6.883,6.883,0,0,1-.734.465,2.757,2.757,0,0,1,.807.673,8.554,8.554,0,0,1,.869,1.578Zm-4.147-6.924a1.054,1.054,0,0,0-.465-.979,3.032,3.032,0,0,0-1.492-.281h-.636v2.434h.661a3.326,3.326,0,0,0,1.529-.245.972.972,0,0,0,.4-.93" transform="translate(-232.232 -90.225)" fill="#f5f5f5"/>
    <path id="Path_1652" data-name="Path 1652" d="M383.774,292.687a5.412,5.412,0,0,1-.648,2.606,4.842,4.842,0,0,1-1.945,1.9,6.525,6.525,0,0,1-3.144.7,6.322,6.322,0,0,1-3.168-.734,4.788,4.788,0,0,1-1.933-1.921,5.478,5.478,0,0,1-.012-5.1,4.616,4.616,0,0,1,1.933-1.908,6.371,6.371,0,0,1,3.18-.722,6.934,6.934,0,0,1,2.5.416,5.067,5.067,0,0,1,1.81,1.125,4.763,4.763,0,0,1,1.076,1.651,5.751,5.751,0,0,1,.355,1.994m-3.107,0a3.139,3.139,0,0,0-.171-1.04,2.245,2.245,0,0,0-.5-.82,2.177,2.177,0,0,0-.832-.538,2.933,2.933,0,0,0-1.125-.2,2.425,2.425,0,0,0-2.618,2.581,2.461,2.461,0,0,0,2.63,2.606,2.879,2.879,0,0,0,1.431-.33,2.152,2.152,0,0,0,.893-.917,2.982,2.982,0,0,0,.294-1.346" transform="translate(-307.625 -89.259)" fill="#f5f5f5"/>
    <path id="Path_1653" data-name="Path 1653" d="M489.382,298.716H481.7V288.6h3.046v7.694h4.636Z" transform="translate(-403.642 -90.225)" fill="#f5f5f5"/>
    <path id="Path_1654" data-name="Path 1654" d="M566.682,298.716H559V288.6h3.046v7.694h4.636Z" transform="translate(-471.486 -90.225)" fill="#f5f5f5"/>
  </g>
</svg>
