<svg width="32" height="32" viewBox="0 0 32 32" fill="none" xmlns="http://www.w3.org/2000/svg">
<g id="Objects" clip-path="url(#clip0_254_339)">
<path id="Vector" d="M4.68639 27.3136C6.15531 28.7825 7.86653 29.9363 9.77179 30.742C11.745 31.5767 13.8405 31.9996 16 31.9996C18.1595 31.9996 20.255 31.5763 22.2282 30.742C24.1335 29.9363 25.8447 28.7825 27.3136 27.3136C28.7825 25.8447 29.9363 24.1335 30.742 22.2282C31.5767 20.255 31.9996 18.1595 31.9996 16C31.9996 14.274 31.726 12.5758 31.1868 10.9523C31.0128 10.4289 30.4476 10.1454 29.9243 10.3194C29.4009 10.4934 29.1174 11.0586 29.2914 11.582C29.7633 13.0019 30.0025 14.4885 30.0025 16C30.0025 19.7401 28.5459 23.2566 25.9014 25.901C23.2566 28.5459 19.7404 30.0021 16.0003 30.0021C12.2603 30.0021 8.74379 28.5455 6.09931 25.901C3.45448 23.2562 1.99824 19.7401 1.99824 16C1.99824 12.2599 3.45483 8.74344 6.09931 6.09896C8.74344 3.45413 12.2596 1.99753 16 1.99753C18.4473 1.99753 20.8551 2.63779 22.9639 3.84892C23.4422 4.12361 24.0528 3.9588 24.3275 3.48054C24.6022 3.00229 24.4374 2.39162 23.9588 2.11692C21.5478 0.732171 18.7956 0 16 0C13.8405 0 11.745 0.423314 9.77179 1.25762C7.86653 2.06339 6.15531 3.21712 4.68639 4.68604C3.21747 6.15496 2.06374 7.86617 1.25797 9.77144C0.423314 11.745 0 13.8405 0 16C0 18.1595 0.423314 20.255 1.25762 22.2282C2.06339 24.1335 3.21712 25.8447 4.68604 27.3136H4.68639Z" fill="#38BB9F"/>
<path id="Vector_2" d="M13.3917 18.201C13.3917 18.201 11.4917 16.9941 9.19693 15.1413C8.70459 14.7437 7.98052 14.8335 7.60087 15.3392C7.32477 15.7069 7.30223 16.2056 7.54312 16.5968C8.70424 18.4838 10.7102 21.4597 12.2616 23.4146C12.9937 24.3373 14.2932 24.4225 15.1473 23.6118C20.0601 18.949 24.6201 13.0666 30.0798 4.92154C30.3964 4.44927 30.2373 3.8069 29.7361 3.53784C29.3533 3.33253 28.8803 3.4093 28.582 3.72485C22.525 10.1383 19.4184 13.1864 13.3917 18.2006V18.201Z" fill="#38BB9F"/>
</g>
<defs>
<clipPath id="clip0_254_339">
<rect width="32" height="32" fill="white"/>
</clipPath>
</defs>
</svg>
