<svg width="60" height="60" viewBox="0 0 60 60" fill="none" xmlns="http://www.w3.org/2000/svg">
<g id="Icons">
<path id="Vector" d="M56.9813 38.037C56.9732 37.1278 56.887 36.201 56.6823 35.3156C55.3793 29.6992 50.5943 26.0144 44.607 26.0064C34.8795 25.9953 25.152 26.0001 15.4228 26.0096C14.677 26.0112 13.9232 26.0574 13.1839 26.1593C8.00735 26.8663 3.45473 31.3649 3.16228 36.4685C2.90231 41.0132 3.03392 45.5802 3.02904 50.1377C3.02904 51.1919 3.8788 51.9482 4.95765 51.9833C5.72617 52.0072 6.49794 52.0024 7.26645 51.9881C8.51266 51.9642 9.30392 51.1759 9.32342 49.953C9.32992 49.4418 9.32342 48.9291 9.32342 48.402H51.3856C51.3856 49.0278 51.3579 49.6233 51.3921 50.2125C51.4489 51.1839 52.2126 51.9196 53.2004 51.9769C53.7057 52.0056 54.2127 51.9928 54.7196 51.9912C56.2355 51.9833 56.9927 51.238 56.9943 49.7444C56.9959 45.8414 57.0122 41.94 56.9813 38.037ZM4.61645 35.8284C5.58969 31.005 9.91808 27.3934 14.9224 27.3727C24.9716 27.3313 35.0225 27.3281 45.0717 27.3727C50.4026 27.395 54.9178 31.4636 55.5239 36.6405C55.5417 36.795 55.5255 36.9526 55.5255 37.174H4.44422C4.50271 36.709 4.52871 36.2631 4.61645 35.8284ZM55.5872 40.0466C55.5872 43.2713 55.5889 46.4959 55.5856 49.7221C55.5856 50.5023 55.4491 50.6329 54.6725 50.6377C54.2874 50.6409 53.9023 50.6345 53.5173 50.6377C52.9827 50.6441 52.7439 50.3829 52.7504 49.8638C52.7601 49.2077 52.7585 48.5501 52.752 47.894C52.7439 47.2172 52.5343 47.015 51.8372 46.9959C51.7154 46.9927 51.5935 46.9943 51.4733 46.9943H9.21943C8.02847 46.9943 7.93261 47.0882 7.93261 48.2491C7.93099 48.7857 7.92774 49.324 7.93261 49.8606C7.93586 50.3686 7.71652 50.6457 7.17059 50.6393C6.50119 50.6297 5.83178 50.6345 5.164 50.6377C4.70419 50.6393 4.4231 50.4514 4.42472 49.9705C4.42635 46.2283 4.43122 42.4862 4.43772 38.7441C4.43772 38.709 4.46534 38.674 4.49459 38.6071H55.5872V40.0451V40.0466Z" fill="#1B284B"/>
<path id="Vector_2" d="M53.9545 26.4755C53.7604 26.6959 53.508 26.9816 53.2638 26.9996C53.0664 27.0127 52.7995 26.7008 52.6506 26.4755C52.5552 26.3302 52.6118 26.0788 52.6118 25.8747C52.6102 23.1597 52.615 20.4446 52.6102 17.7296C52.6021 13.4293 49.6141 10.3943 45.3756 10.3926C35.4474 10.3894 25.5177 10.3877 15.5895 10.3926C11.9075 10.3943 9.08614 12.773 8.49404 16.3696C8.41962 16.83 8.42286 17.3051 8.42286 17.7737C8.41639 20.3663 8.42124 22.9589 8.41639 25.5515C8.41639 25.7735 8.44874 26.0462 8.33873 26.2045C8.19799 26.4102 7.92621 26.6437 7.71266 26.6421C7.4975 26.6421 7.25646 26.3923 7.08336 26.1996C6.996 26.1017 7.01541 25.8894 7.01541 25.7278C7.01541 22.9115 6.97497 20.0936 7.02512 17.2774C7.106 12.662 10.7298 9.04082 15.2902 9.01469C17.3092 9.00327 19.3281 9 21.3471 9C24.4127 9 27.48 9.00816 30.5473 9.00653C33.3832 9.00653 36.2207 9.0049 39.0566 9.0049C41.184 9.0049 43.313 9.00653 45.4403 9.00816C49.9037 9.01143 53.267 11.9371 53.9222 16.386C53.9756 16.7468 53.9804 17.119 53.9804 17.4847C53.9853 20.3222 53.9837 23.1597 53.982 25.9972C53.982 26.1604 54.037 26.3808 53.9545 26.4755Z" fill="#1B284B"/>
<path id="Vector_3" d="M47.9201 17.6271C47.434 19.4214 47.2405 21.2351 47.4734 23.0818C47.5237 23.4866 47.4592 23.8463 46.9778 23.9722C46.5326 24.0891 46.196 23.8328 46.1362 23.2812C45.9553 21.6144 46.0135 19.952 46.369 18.3062C46.4351 17.9974 46.5027 17.6901 46.5782 17.3408H34.4194C34.5059 17.771 34.6381 18.1787 34.6632 18.594C34.7545 20.1034 34.8237 21.6144 34.8709 23.1253C34.885 23.5705 34.6459 23.9093 34.1205 23.8583C33.5919 23.8088 33.4849 23.4386 33.5321 22.9949C33.7178 21.1872 33.5557 19.4064 33.0822 17.6481C32.7975 16.5853 33.2568 16.0037 34.3911 16.0022C38.4514 15.9993 42.5117 15.9993 46.5735 16.0022C47.7219 16.0022 48.2049 16.5778 47.9201 17.6271Z" fill="#38BB9F"/>
<path id="Vector_4" d="M27.905 17.737C27.4498 19.4789 27.2702 21.2405 27.4671 23.0325C27.5285 23.5934 27.3065 23.9269 26.8639 23.9572C26.4181 23.9876 26.1582 23.7116 26.111 23.134C25.9661 21.3466 26.0637 19.5759 26.489 17.8264C26.5252 17.6839 26.5488 17.5384 26.5866 17.3549H14.4348C14.5624 18.0902 14.7498 18.8028 14.7955 19.5229C14.8711 20.7493 14.879 21.9803 14.8727 23.2098C14.8696 23.7662 14.5325 24.0664 14.093 23.9876C13.5733 23.8951 13.474 23.5343 13.5229 23.0886C13.7276 21.2784 13.5481 19.4971 13.0944 17.737C12.7873 16.5484 13.2236 16.0011 14.4884 16.0011C18.4954 15.9996 22.5024 15.9996 26.5079 16.0011C27.7758 16.0011 28.2137 16.5515 27.905 17.737Z" fill="#38BB9F"/>
</g>
</svg>
