<svg width="81" height="80" viewBox="0 0 81 80" fill="none" xmlns="http://www.w3.org/2000/svg">
<path fill-rule="evenodd" clip-rule="evenodd" d="M10.8363 10.5311C10.1854 10.5311 9.65833 11.0604 9.65833 11.683V68.1364C9.65833 68.7398 10.1945 69.2883 10.8363 69.2883H49.1584C49.8002 69.2883 50.3364 68.7398 50.3364 68.1364V25.4614H38.6733C36.7701 25.4614 35.2354 23.9163 35.2354 22.0497V10.5311H10.8363ZM37.4953 12.1073L48.7163 23.2015H38.6733C38.0121 23.2015 37.4953 22.6621 37.4953 22.0497V12.1073ZM7.39844 11.683C7.39844 9.7702 8.97982 8.27124 10.8363 8.27124H36.3654C36.6628 8.27124 36.9483 8.38853 37.1598 8.59767L52.2607 23.528C52.4754 23.7402 52.5962 24.0296 52.5962 24.3315V68.1364C52.5962 70.012 51.024 71.5482 49.1584 71.5482H10.8363C8.97069 71.5482 7.39844 70.012 7.39844 68.1364V11.683Z" fill="#1B284B"/>
<path fill-rule="evenodd" clip-rule="evenodd" d="M58.3027 16.1807H59.4327V15.0793H68.7606V21.884H74.0652V39.1108H71.8053V24.1439H68.7606V59.3533C68.7606 63.3928 66.998 66.2398 64.5056 66.8259V70.4181H62.2457V66.7396C59.9195 65.997 58.3027 63.2221 58.3027 59.3533V16.1807ZM66.5007 21.884V17.3392H60.5626V21.884H66.5007ZM60.5626 24.1439H66.5007V59.3533C66.5007 63.4112 64.636 64.6778 63.5317 64.6778C62.4273 64.6778 60.5626 63.4112 60.5626 59.3533V24.1439Z" fill="#38BB9F"/>
<path fill-rule="evenodd" clip-rule="evenodd" d="M17.5684 20.7007C17.5684 20.0767 18.0743 19.5708 18.6983 19.5708H30.5489C31.1729 19.5708 31.6788 20.0767 31.6788 20.7007C31.6788 21.3248 31.1729 21.8307 30.5489 21.8307H18.6983C18.0743 21.8307 17.5684 21.3248 17.5684 20.7007ZM17.5684 32.2031C17.5684 31.579 18.0743 31.0731 18.6983 31.0731H42.4272C43.0512 31.0731 43.5571 31.579 43.5571 32.2031C43.5571 32.8271 43.0512 33.333 42.4272 33.333H18.6983C18.0743 33.333 17.5684 32.8271 17.5684 32.2031ZM17.5684 38.9056C17.5684 38.2816 18.0743 37.7757 18.6983 37.7757H42.4272C43.0512 37.7757 43.5571 38.2816 43.5571 38.9056C43.5571 39.5297 43.0512 40.0356 42.4272 40.0356H18.6983C18.0743 40.0356 17.5684 39.5297 17.5684 38.9056ZM17.5684 45.6366C17.5684 45.0126 18.0743 44.5067 18.6983 44.5067H42.4272C43.0512 44.5067 43.5571 45.0126 43.5571 45.6366C43.5571 46.2607 43.0512 46.7666 42.4272 46.7666H18.6983C18.0743 46.7666 17.5684 46.2607 17.5684 45.6366ZM17.5684 52.3392C17.5684 51.7152 18.0743 51.2093 18.6983 51.2093H30.5489C31.1729 51.2093 31.6788 51.7152 31.6788 52.3392C31.6788 52.9633 31.1729 53.4692 30.5489 53.4692H18.6983C18.0743 53.4692 17.5684 52.9633 17.5684 52.3392Z" fill="#1B284B"/>
</svg>
