<svg width="40" height="40" viewBox="0 0 40 40" fill="none" xmlns="http://www.w3.org/2000/svg">
<path fill-rule="evenodd" clip-rule="evenodd" d="M11.4377 6.23551C13.4327 4.23727 16.4955 2.66669 19.5789 2.66669H21.0081C24.0915 2.66669 27.1543 4.23727 29.1493 6.23551C31.1444 8.23379 32.712 11.3011 32.712 14.3883V24.1677C32.712 27.2367 31.1591 30.6051 29.1493 32.6181L29.1472 32.6203C27.4743 34.2803 25.0474 35.0928 22.7498 35.4424C22.3858 35.4977 22.0458 35.2476 21.9904 34.8835C21.9351 34.5196 22.1853 34.1796 22.5493 34.1242C24.7226 33.7935 26.8232 33.0473 28.2069 31.6749C29.9889 29.8894 31.3787 26.8524 31.3787 24.1677V14.3883C31.3787 11.7213 30.003 8.97764 28.2058 7.17756C26.4085 5.37742 23.6697 4.00002 21.0081 4.00002H19.5789C16.9173 4.00002 14.1785 5.37742 12.3812 7.17756C10.584 8.97764 9.20833 11.7213 9.20833 14.3883V24.1677C9.20833 24.5359 8.90986 24.8344 8.54167 24.8344C8.17348 24.8344 7.875 24.5359 7.875 24.1677V14.3883C7.875 11.3011 9.44258 8.23379 11.4377 6.23551Z" fill="#1B284B"/>
<path fill-rule="evenodd" clip-rule="evenodd" d="M16.1651 17.0662C16.1446 17.0865 16.1419 17.104 16.1419 17.1094C16.1419 17.1127 16.1427 17.1239 16.1587 17.1393C16.1751 17.1551 16.1985 17.1656 16.2252 17.1656C16.2604 17.1656 16.2833 17.1527 16.295 17.1415C16.3008 17.136 16.3038 17.1311 16.3054 17.1275C16.3067 17.1245 16.3085 17.1192 16.3085 17.1094C16.3085 17.0928 16.3029 17.078 16.2886 17.064C16.2733 17.0491 16.2515 17.0391 16.2252 17.0391C16.2072 17.0391 16.185 17.0465 16.1651 17.0662ZM14.8086 17.1094C14.8086 16.3372 15.4539 15.7057 16.2252 15.7057C16.9881 15.7057 17.6419 16.3148 17.6419 17.1094C17.6419 17.9207 16.9709 18.4989 16.2252 18.4989C15.4709 18.4989 14.8086 17.8982 14.8086 17.1094ZM24.2873 17.0662C24.2668 17.0865 24.2642 17.104 24.2642 17.1094C24.2642 17.1127 24.2649 17.1239 24.281 17.1393C24.2974 17.1551 24.3208 17.1656 24.3475 17.1656C24.3826 17.1656 24.4056 17.1527 24.4173 17.1415C24.4231 17.136 24.4261 17.1311 24.4277 17.1275C24.429 17.1245 24.4308 17.1192 24.4308 17.1094C24.4308 17.0928 24.4252 17.078 24.4108 17.064C24.3956 17.0491 24.3738 17.0391 24.3475 17.0391C24.3295 17.0391 24.3073 17.0465 24.2873 17.0662ZM22.9309 17.1094C22.9309 16.3372 23.5762 15.7057 24.3475 15.7057C25.1104 15.7057 25.7641 16.3148 25.7641 17.1094C25.7641 17.9207 25.0931 18.4989 24.3475 18.4989C23.5931 18.4989 22.9309 17.8982 22.9309 17.1094Z" fill="#38BB9F"/>
<path fill-rule="evenodd" clip-rule="evenodd" d="M31.6923 13.1313C31.7212 12.7643 32.0422 12.4901 32.4092 12.519C35.4897 12.7613 37.863 15.4754 37.863 18.7394C37.863 22.0035 35.4897 24.7176 32.4092 24.9599C32.0422 24.9887 31.7212 24.7146 31.6923 24.3475C31.6634 23.9805 31.9376 23.6595 32.3046 23.6306C34.6296 23.4478 36.5297 21.3714 36.5297 18.7394C36.5297 16.1075 34.6296 14.0311 32.3046 13.8482C31.9376 13.8193 31.6634 13.4984 31.6923 13.1313ZM8.85283 13.1316C8.88155 13.4987 8.60727 13.8195 8.2402 13.8482C5.90027 14.0313 4.0013 16.1086 4.0013 18.7394C4.0013 21.3703 5.90027 23.4475 8.2402 23.6306C8.60727 23.6593 8.88155 23.9802 8.85283 24.3473C8.8241 24.7143 8.50325 24.9886 8.13619 24.9599C5.0424 24.7178 2.66797 22.0045 2.66797 18.7394C2.66797 15.4743 5.0424 12.7611 8.13619 12.519C8.50325 12.4902 8.8241 12.7645 8.85283 13.1316Z" fill="#1B284B"/>
<path fill-rule="evenodd" clip-rule="evenodd" d="M15.5989 22.9177C15.9526 22.8155 16.3223 23.0193 16.4245 23.373C16.7874 24.6286 18.2873 25.7261 20.2697 25.7261C22.2594 25.7261 23.7634 24.6381 24.113 23.3797C24.2115 23.0249 24.579 22.8172 24.9338 22.9158C25.2885 23.0144 25.4962 23.3818 25.3977 23.7366C24.8416 25.738 22.6666 27.0594 20.2697 27.0594C17.8655 27.0594 15.7146 25.7191 15.1436 23.7432C15.0413 23.3895 15.2452 23.0199 15.5989 22.9177Z" fill="#38BB9F"/>
<path fill-rule="evenodd" clip-rule="evenodd" d="M20.2695 33.14C19.3414 33.14 18.5872 33.8938 18.5872 34.826C18.5872 35.7582 19.3414 36.5121 20.2695 36.5121C21.1976 36.5121 21.9518 35.7582 21.9518 34.826C21.9518 33.8938 21.1976 33.14 20.2695 33.14ZM17.2539 34.826C17.2539 33.1595 18.603 31.8066 20.2695 31.8066C21.936 31.8066 23.2851 33.1595 23.2851 34.826C23.2851 36.4926 21.936 37.8454 20.2695 37.8454C18.603 37.8454 17.2539 36.4926 17.2539 34.826Z" fill="#1B284B"/>
<path fill-rule="evenodd" clip-rule="evenodd" d="M16.2452 6.83953C16.4551 6.81068 16.6662 6.88328 16.8139 7.03513C18.8446 9.12265 21.6744 10.4191 24.8262 10.4191C26.8165 10.4191 28.6861 9.89764 30.317 8.98715C30.6385 8.80767 31.0446 8.92279 31.2241 9.24428C31.4036 9.56576 31.2885 9.97187 30.967 10.1513C29.1452 11.1684 27.0528 11.7524 24.8262 11.7524C21.6112 11.7524 18.6928 10.545 16.4816 8.56333C14.7034 11.3445 11.8282 13.3749 8.46047 14.0633C8.09974 14.137 7.74753 13.9044 7.67379 13.5436C7.60006 13.1829 7.83271 12.8307 8.19344 12.757C11.4655 12.0881 14.2161 10.0011 15.7504 7.18134C15.8517 6.99527 16.0354 6.86839 16.2452 6.83953Z" fill="#1B284B"/>
</svg>
