<svg width="60" height="60" viewBox="0 0 60 60" fill="none" xmlns="http://www.w3.org/2000/svg">
<g id="Icons">
<path id="Vector" d="M57.9308 51.3407C57.7202 50.0749 56.9576 49.1878 55.7917 48.6413C55.5914 48.5447 55.5144 48.438 55.5195 48.2092C55.5401 47.4594 55.5273 46.7096 55.5273 45.9598H55.5375C55.5375 45.5073 55.5427 45.0524 55.535 44.5999C55.5016 42.536 55.1626 40.5331 54.3152 38.6293C52.1582 33.7669 48.5196 30.6177 43.3042 29.296C42.9576 29.207 42.7881 29.0622 42.6494 28.7292C42.0229 27.2499 40.8622 26.4264 39.2496 26.3552C37.7705 26.2916 36.2837 26.3196 34.802 26.3476C33.251 26.3781 31.8284 27.5041 31.3945 28.9707C31.3662 29.0672 31.2275 29.174 31.1223 29.1994C27.2884 30.0865 24.1711 32.0665 21.7983 35.1802C20.1677 37.3152 19.156 39.7274 18.7426 42.3606C18.4396 44.2847 18.4858 46.2317 18.5705 48.1736C18.5808 48.3719 18.5808 48.532 18.3523 48.6388C16.9836 49.2844 16.2441 50.3672 16.1182 51.8592C15.959 53.7452 17.3071 55.5015 19.1945 55.8065C20.2782 55.9819 21.3746 56.0683 22.4634 56.2107C24.5639 56.4852 26.6644 56.7851 28.7675 57.052C30.827 57.3138 32.8915 57.5629 34.9561 57.7891C35.8523 57.8882 36.7433 58.0865 37.66 57.9569C38.4509 57.845 39.2496 57.7815 40.043 57.6874C41.8534 57.4765 43.6637 57.2731 45.4715 57.0444C48.5144 56.658 51.5548 56.2208 54.6028 55.8752C56.5647 55.6515 58.3776 54.0095 57.9308 51.3407ZM40.9212 47.9957C41.2679 44.8948 41.5992 41.7913 41.9458 38.6903C42.2 36.4053 42.4722 34.1228 42.729 31.8403C42.7496 31.6547 42.8086 31.6065 42.9935 31.6573C46.9917 32.7502 49.9165 35.1268 51.7551 38.8098C52.6846 40.6678 53.1417 42.625 53.1006 44.7016C53.0801 45.7971 53.1006 46.8951 53.1006 47.9932V48.3058C52.8901 48.316 52.7308 48.3312 52.5716 48.3312C48.7866 48.3261 45.0016 48.316 41.214 48.3185C40.9521 48.3185 40.893 48.255 40.9238 47.9957H40.9212ZM35.01 28.7902C36.3864 28.8258 37.7628 28.8029 39.1391 28.8004C39.6193 28.7978 40.0507 28.93 40.2793 29.3621C40.4077 29.6086 40.4873 29.9289 40.4564 30.2009C40.1252 33.3171 39.7606 36.4282 39.4165 39.5418C39.1854 41.6159 38.9774 43.6951 38.7565 45.7717C38.6744 46.5367 38.5768 47.3018 38.4997 48.0669C38.4792 48.2473 38.4227 48.3312 38.2301 48.3312C37.3981 48.3261 36.5687 48.3287 35.6931 48.3287C35.5826 47.3526 35.4825 46.4198 35.3721 45.4895C35.1923 43.9696 34.9972 42.4547 34.8277 40.9347C34.612 38.9852 34.4194 37.0306 34.2063 35.081C34.0342 33.4874 33.8647 31.8937 33.667 30.3025C33.5771 29.5807 33.9546 28.7648 35.01 28.7902ZM21.0203 44.516C21.1718 39.9663 23.0694 36.3189 26.8134 33.6348C28.0973 32.7121 29.5173 32.0843 31.0504 31.7005C31.1505 31.6751 31.2532 31.6725 31.397 31.6522C31.528 32.829 31.6564 33.9474 31.7771 35.0683C32.0595 37.6787 32.3317 40.2916 32.6219 42.902C32.8119 44.6304 33.0225 46.3563 33.2305 48.0847C33.2536 48.2677 33.2151 48.3261 33.0199 48.3261C29.0962 48.3211 25.17 48.3185 21.2463 48.316C21.0819 48.316 20.992 48.2906 20.992 48.0923C21.0074 46.9002 20.9818 45.7081 21.0203 44.516ZM55.5658 52.4336C55.4862 52.9928 55.1395 53.3664 54.572 53.4452C53.4011 53.6104 52.2275 53.7401 51.0515 53.8875C48.7584 54.1696 46.4653 54.4543 44.1696 54.739C42.4157 54.9576 40.6593 55.1787 38.9055 55.3998C38.5665 55.4431 38.2275 55.4863 37.8912 55.5396C36.7074 55.7328 35.5544 55.4532 34.3937 55.3134C31.5074 54.9627 28.6263 54.5738 25.74 54.2078C24.1017 54.0019 22.4609 53.8062 20.8226 53.6054C20.3989 53.5545 19.9726 53.5317 19.5566 53.4478C18.8273 53.3004 18.4935 52.792 18.5346 51.9608C18.5705 51.2771 18.9891 50.8323 19.6876 50.7484C19.8673 50.7256 20.0496 50.7281 20.2319 50.7281H53.7041C53.853 50.7281 54.0019 50.7357 54.1509 50.7306C55.2319 50.6874 55.7044 51.4245 55.5658 52.4336Z" fill="#1B284B"/>
<path id="Vector_2" d="M41.1802 20.377C40.718 20.6541 40.2275 20.893 39.7371 21.1218C39.4623 21.2463 39.3596 21.4268 39.375 21.714C39.393 22.0393 39.3981 22.3672 39.3853 22.6951C39.3622 23.3458 38.9256 23.8186 38.3171 23.8694C37.6879 23.9253 37.1564 23.5339 37.028 22.8908C36.9689 22.5934 36.9689 22.2859 36.9407 21.9809C36.8713 20.4863 37.5955 19.495 38.9128 18.8621C39.2107 18.7198 39.5008 18.5647 39.7961 18.4199C40.0837 18.2801 40.1685 18.0589 40.076 17.7666C39.922 17.2837 39.7474 16.8084 39.6087 16.3204C39.5188 16.0027 39.3185 15.9467 39.0284 15.9874C38.543 16.0535 38.0577 16.1094 37.5698 16.1704C36.422 16.3153 35.495 15.9239 34.7991 15.0165C34.3548 14.4369 33.9286 13.8422 33.5126 13.2423C32.8552 12.2968 32.7268 11.308 33.2969 10.2659C33.5254 9.84906 33.7283 9.41951 33.9491 8.99757C34.0698 8.76627 34.0364 8.56547 33.8284 8.40789C33.397 8.08254 32.9656 7.75465 32.5214 7.4471C32.2723 7.27426 32.0232 7.30222 31.8024 7.53352C31.5096 7.83853 31.2066 8.13846 30.8985 8.42822C29.9766 9.30513 28.9084 9.55676 27.6887 9.15516C27.152 8.97978 26.6153 8.80694 26.0735 8.64935C24.6175 8.22488 23.9113 7.20564 23.7136 5.77208C23.6622 5.40607 23.6006 5.04006 23.5005 4.68675C23.4671 4.57746 23.2925 4.43766 23.1744 4.43004C22.6223 4.39953 22.0676 4.41733 21.5129 4.40716C21.1868 4.40208 21.0199 4.56475 20.9686 4.86722C20.8812 5.35524 20.8145 5.84579 20.7118 6.33127C20.4704 7.46998 19.7822 8.22996 18.6626 8.58835C17.9256 8.82728 17.181 9.05095 16.4311 9.25175C15.5067 9.4983 14.6722 9.24921 13.9531 8.66206C13.55 8.33672 13.2008 7.94529 12.8284 7.58436C12.51 7.27426 12.3097 7.23614 11.9528 7.48269C11.5445 7.76482 11.1567 8.08254 10.7562 8.37993C10.5559 8.52989 10.5148 8.72561 10.6124 8.94166C10.7587 9.26954 10.9 9.59997 11.0771 9.91007C11.8321 11.2445 11.7114 12.4874 10.7356 13.6668C10.4531 14.0099 10.1989 14.3759 9.94985 14.7445C9.14867 15.9467 8.03422 16.3865 6.61419 16.1247C6.23671 16.056 5.8541 15.9976 5.47406 15.9772C5.33026 15.9722 5.08631 16.051 5.04779 16.1501C4.82182 16.7576 4.62923 17.3803 4.45718 18.0056C4.43151 18.0971 4.54706 18.2826 4.64721 18.3411C5.01441 18.5571 5.40216 18.735 5.77707 18.9333C7.01478 19.5764 7.66958 20.5549 7.59768 21.9758C7.56944 22.5324 7.58484 23.0942 7.59255 23.6508C7.60795 24.7743 7.11749 25.6257 6.17252 26.2154C5.72314 26.4976 5.24552 26.734 4.7679 26.9678C4.51111 27.0949 4.36731 27.2754 4.45205 27.5448C4.62923 28.1167 4.82952 28.6809 5.04009 29.2401C5.1351 29.4968 5.38162 29.4536 5.59218 29.4257C6.00304 29.3698 6.4139 29.3062 6.82476 29.235C8.0676 29.0241 9.04339 29.4765 9.79321 30.4348C10.2246 30.9863 10.6226 31.5608 11.0206 32.1352C11.6626 33.0655 11.7474 34.0491 11.2697 35.0735C11.0643 35.5157 10.846 35.9478 10.6278 36.3825C10.484 36.6646 10.5507 36.8908 10.8024 37.0713C11.1824 37.3433 11.5573 37.6228 11.9476 37.8796C12.3303 38.1287 12.4869 38.1058 12.8233 37.7906C13.1494 37.4856 13.4447 37.1501 13.7811 36.8578C14.59 36.1537 15.5144 35.8335 16.5878 36.1563C17.2683 36.3596 17.6201 36.9112 17.5096 37.5491C17.4095 38.1261 16.8651 38.5531 16.1923 38.4921C15.7044 38.4489 15.368 38.5938 15.0496 38.9471C14.7415 39.2902 14.3948 39.6181 14.0148 39.885C12.9799 40.6094 11.8937 40.645 10.8101 39.9867C10.3119 39.6842 9.82916 39.3487 9.36694 38.9954C8.16518 38.0753 7.83393 36.6849 8.47332 35.3226C8.64794 34.9489 8.81999 34.5727 9.02798 34.2194C9.22057 33.8865 9.17692 33.6221 8.94068 33.3247C8.57604 32.8723 8.23451 32.397 7.91353 31.9141C7.72094 31.6192 7.4847 31.5455 7.15344 31.6065C6.70407 31.6878 6.24955 31.7539 5.79504 31.8073C4.58044 31.9547 3.62006 31.4998 2.9935 30.4856C2.46452 29.629 2.11016 28.6759 2.01514 27.6693C1.89959 26.4467 2.44911 25.5266 3.53275 24.9319C3.95902 24.6955 4.39556 24.4743 4.83466 24.2583C5.07347 24.1414 5.18646 23.9609 5.18646 23.7067C5.18646 23.0306 5.18389 22.3571 5.18646 21.6809C5.18646 21.3937 5.04779 21.2107 4.78844 21.0938C4.42123 20.9235 4.05917 20.7456 3.6971 20.5626C2.33099 19.8763 1.72754 18.5622 2.12813 17.0956C2.2668 16.5873 2.44911 16.0916 2.63914 15.6011C3.25799 14.0125 4.53165 13.3211 6.21874 13.6337C6.60649 13.7049 6.9968 13.7735 7.38969 13.7964C7.53092 13.804 7.73121 13.7176 7.81595 13.6058C8.24735 13.0441 8.65821 12.4645 9.05109 11.8748C9.12813 11.7605 9.15124 11.547 9.09988 11.4199C8.93297 11.0005 8.72241 10.5963 8.52211 10.1871C7.81595 8.73832 8.12923 7.37593 9.40803 6.39227C9.81375 6.07964 10.2272 5.78225 10.6483 5.49503C11.9425 4.61813 13.2932 4.73505 14.4231 5.81529C14.7518 6.13047 15.0804 6.44819 15.404 6.76845C15.5812 6.94129 15.7712 6.98704 16.0151 6.90825C16.6417 6.69982 17.2734 6.51428 17.9025 6.31602C18.1696 6.23214 18.3519 6.10505 18.3853 5.77463C18.4392 5.23069 18.5291 4.68675 18.6575 4.15553C18.9451 2.95836 20.1109 2.04841 21.3563 2.01791C21.8904 2.00774 22.4245 1.98995 22.9561 2.0052C24.5405 2.05349 25.5984 2.91261 25.9528 4.4402C26.0632 4.92314 26.112 5.41878 26.2198 5.90171C26.2507 6.03134 26.3662 6.20164 26.4818 6.24231C27.2033 6.49648 27.9326 6.73033 28.6696 6.93875C28.798 6.97434 29.006 6.88792 29.119 6.79133C29.4656 6.49394 29.7789 6.15843 30.1102 5.84579C31.2837 4.73759 32.6344 4.62829 33.9671 5.54078C34.4242 5.85342 34.8761 6.17368 35.3049 6.51936C36.4348 7.43693 36.7275 8.7739 36.101 10.0778C35.9033 10.4845 35.6927 10.8886 35.4821 11.2902C35.3486 11.5419 35.3717 11.7579 35.5515 11.9867C35.9315 12.4823 36.2987 12.9881 36.6556 13.5016C36.8251 13.7481 37.028 13.8498 37.3284 13.799C37.7906 13.7202 38.2529 13.649 38.7202 13.5956C40.1659 13.4279 41.3625 14.1446 41.8658 15.4892C42.0713 16.0408 42.2613 16.6025 42.4333 17.1668C42.7954 18.3589 42.269 19.7238 41.1802 20.377Z" fill="#38BB9F"/>
<path id="Vector_3" d="M33.3817 23.099C33.3612 23.8234 32.8759 24.3978 32.239 24.4411C31.461 24.4944 30.9294 23.953 30.8883 23.1295C30.8498 22.3517 30.8267 21.5663 30.6829 20.8063C30.0769 17.6139 27.2163 14.8586 23.9808 14.3147C23.4056 14.2181 22.8201 14.1901 22.2372 14.1317C19.2251 13.9944 15.6224 16.066 14.2409 19.5228C12.4511 24.0064 14.7519 29.095 19.2431 30.6989C19.5127 30.7955 19.7875 30.887 20.0417 31.014C20.6271 31.3063 20.8583 31.9113 20.6374 32.5137C20.4448 33.0347 19.8106 33.355 19.2174 33.1898C17.425 32.6941 15.8663 31.802 14.5439 30.5031C12.8414 28.8332 11.7475 26.8354 11.352 24.5021C10.7511 20.9283 11.7783 17.802 14.2588 15.1865C16.5288 12.7947 19.3817 11.6077 22.7097 11.7323C26.9364 11.8924 31.104 14.6095 32.6781 19.0119C33.1506 20.3361 33.428 21.6883 33.3817 23.099Z" fill="#38BB9F"/>
</g>
</svg>
