<svg width="50" height="50" viewBox="0 0 50 50" fill="none" xmlns="http://www.w3.org/2000/svg">
<g id="Icons">
<path id="Vector" d="M48.2763 42.7838C48.1008 41.7289 47.4653 40.9897 46.4938 40.5343C46.3269 40.4538 46.2627 40.3649 46.2669 40.1742C46.2841 39.5494 46.2734 38.9245 46.2734 38.2997H46.2819C46.2819 37.9227 46.2862 37.5435 46.2798 37.1665C46.252 35.4466 45.9695 33.7775 45.2633 32.191C43.4658 28.139 40.4336 25.5146 36.0875 24.4132C35.7986 24.3391 35.6574 24.2183 35.5418 23.9409C35.0197 22.7081 34.0525 22.0218 32.7086 21.9625C31.476 21.9096 30.237 21.9329 29.0023 21.9562C27.7098 21.9816 26.5243 22.9199 26.1627 24.1421C26.1392 24.2226 26.0236 24.3115 25.9359 24.3327C22.741 25.0719 20.1432 26.722 18.1659 29.3167C16.8071 31.0959 15.964 33.106 15.6195 35.3004C15.367 36.9038 15.4055 38.5263 15.4761 40.1446C15.4847 40.3098 15.4847 40.4432 15.2942 40.5322C14.1536 41.0702 13.5374 41.9725 13.4325 43.2159C13.2998 44.7875 14.4233 46.2511 15.9961 46.5053C16.8991 46.6515 17.8129 46.7235 18.7202 46.8421C20.4706 47.0709 22.221 47.3208 23.9736 47.5432C25.6898 47.7614 27.4103 47.969 29.1307 48.1575C29.8775 48.2401 30.6201 48.4053 31.384 48.2973C32.0431 48.2041 32.7086 48.1511 33.3698 48.0727C34.8785 47.8969 36.3871 47.7275 37.8936 47.5368C40.4293 47.2149 42.963 46.8506 45.503 46.5625C47.1379 46.3761 48.6486 45.0078 48.2763 42.7838ZM34.1017 39.9963C34.3906 37.4122 34.6666 34.8259 34.9555 32.2418C35.1673 30.3376 35.3942 28.4355 35.6082 26.5335C35.6253 26.3788 35.6745 26.3386 35.8286 26.381C39.1604 27.2918 41.5977 29.2722 43.1299 32.3414C43.9045 33.8897 44.2854 35.5207 44.2512 37.2512C44.2341 38.1641 44.2512 39.0792 44.2512 39.9942V40.2547C44.0757 40.2632 43.943 40.2759 43.8104 40.2759C40.6562 40.2717 37.502 40.2632 34.3456 40.2653C34.1274 40.2653 34.0781 40.2124 34.1038 39.9963H34.1017ZM29.1757 23.9917C30.3226 24.0214 31.4696 24.0023 32.6166 24.0002C33.0168 23.9981 33.3763 24.1082 33.5667 24.4683C33.6737 24.6737 33.74 24.9406 33.7144 25.1673C33.4383 27.7641 33.1345 30.3567 32.8477 32.9514C32.6551 34.6798 32.4818 36.4124 32.2978 38.1429C32.2293 38.7805 32.148 39.4181 32.0838 40.0556C32.0666 40.206 32.0196 40.2759 31.8591 40.2759C31.1658 40.2717 30.4746 40.2738 29.7449 40.2738C29.6529 39.4604 29.5694 38.6831 29.4774 37.9078C29.3276 36.6412 29.165 35.3788 29.0237 34.1121C28.844 32.4875 28.6835 30.8587 28.5059 29.2341C28.3625 27.906 28.2213 26.5779 28.0565 25.252C27.9816 24.6504 28.2962 23.9705 29.1757 23.9917ZM17.5176 37.0966C17.6438 33.3051 19.2252 30.2656 22.3451 28.0289C23.4151 27.26 24.5984 26.7368 25.876 26.417C25.9594 26.3958 26.045 26.3937 26.1648 26.3767C26.274 27.3574 26.381 28.2894 26.4815 29.2235C26.7169 31.3988 26.9438 33.5762 27.1856 35.7516C27.3439 37.1919 27.5194 38.6301 27.6927 40.0704C27.712 40.2229 27.6799 40.2717 27.5172 40.2717C24.2475 40.2674 20.9756 40.2653 17.7059 40.2632C17.5689 40.2632 17.494 40.242 17.494 40.0768C17.5069 39.0834 17.4855 38.09 17.5176 37.0966ZM46.3055 43.6946C46.2391 44.1605 45.9502 44.4719 45.4773 44.5376C44.5015 44.6753 43.5236 44.7833 42.5435 44.9061C40.6326 45.1412 38.7217 45.3785 36.8086 45.6157C35.3471 45.7979 33.8834 45.9821 32.4219 46.1664C32.1394 46.2024 31.8569 46.2384 31.5766 46.2829C30.5901 46.4439 29.6293 46.2109 28.6621 46.0944C26.2569 45.8021 23.8559 45.478 21.4507 45.173C20.0854 45.0014 18.718 44.8384 17.3528 44.671C16.9997 44.6287 16.6445 44.6096 16.2978 44.5397C15.6901 44.4168 15.4119 43.9932 15.4461 43.3006C15.4761 42.7308 15.8249 42.3601 16.407 42.2902C16.5567 42.2712 16.7087 42.2733 16.8606 42.2733H44.754C44.8782 42.2733 45.0023 42.2796 45.1264 42.2754C46.0273 42.2394 46.421 42.8537 46.3055 43.6946Z" fill="#1B284B"/>
<path id="Vector_2" d="M34.3182 16.9808C33.933 17.2117 33.5243 17.4108 33.1155 17.6014C32.8866 17.7052 32.801 17.8556 32.8138 18.0949C32.8288 18.3661 32.8331 18.6393 32.8224 18.9125C32.8031 19.4548 32.4393 19.8488 31.9322 19.8911C31.4079 19.9377 30.9649 19.6115 30.858 19.0756C30.8087 18.8278 30.8087 18.5715 30.7852 18.3174C30.7274 17.0719 31.3309 16.2458 32.4286 15.7184C32.6769 15.5998 32.9187 15.4706 33.1648 15.3498C33.4044 15.2334 33.475 15.0491 33.398 14.8055C33.2696 14.403 33.1241 14.007 33.0085 13.6003C32.9336 13.3355 32.7667 13.2889 32.5249 13.3228C32.1205 13.3779 31.716 13.4245 31.3095 13.4753C30.3529 13.596 29.5804 13.2698 29.0005 12.5137C28.6303 12.0307 28.2751 11.5351 27.9284 11.0352C27.3806 10.2473 27.2736 9.42332 27.7487 8.55489C27.9391 8.20751 28.1082 7.84955 28.2922 7.49794C28.3928 7.30519 28.365 7.13786 28.1917 7.00653C27.8322 6.73541 27.4727 6.46217 27.1025 6.20588C26.8949 6.06184 26.6873 6.08514 26.5033 6.27789C26.2593 6.53207 26.0068 6.78201 25.75 7.02348C24.9818 7.75423 24.0916 7.96393 23.0752 7.62926C22.6279 7.48311 22.1807 7.33908 21.7292 7.20775C20.5159 6.85403 19.9274 6.00466 19.7626 4.81003C19.7198 4.50502 19.6685 4.20001 19.585 3.90559C19.5572 3.81451 19.4117 3.69801 19.3133 3.69166C18.8532 3.66624 18.391 3.68107 17.9288 3.67259C17.657 3.66836 17.5179 3.80392 17.4751 4.05597C17.4023 4.46266 17.3467 4.87145 17.2611 5.27602C17.06 6.22494 16.4865 6.85826 15.5535 7.15692C14.9393 7.35602 14.3188 7.54242 13.6939 7.70975C12.9236 7.91521 12.2281 7.70763 11.6289 7.21834C11.293 6.94722 11.0019 6.62103 10.6917 6.32026C10.4263 6.06184 10.2594 6.03007 9.96195 6.23553C9.62171 6.47064 9.29859 6.73541 8.96477 6.98323C8.79785 7.1082 8.76362 7.2713 8.84493 7.45134C8.96691 7.72458 9.0846 7.99993 9.23225 8.25835C9.86138 9.37037 9.7608 10.4061 8.94765 11.3889C8.71226 11.6749 8.50041 11.9799 8.29284 12.287C7.6252 13.2889 6.69649 13.6553 5.51313 13.4372C5.19856 13.38 4.87972 13.3313 4.56302 13.3143C4.44318 13.3101 4.23989 13.3758 4.2078 13.4584C4.01949 13.9646 3.85899 14.4835 3.71562 15.0046C3.69422 15.0808 3.79052 15.2355 3.87397 15.2842C4.17998 15.4642 4.5031 15.6125 4.81552 15.7777C5.84695 16.3136 6.39262 17.1291 6.3327 18.3131C6.30917 18.777 6.32201 19.2451 6.32842 19.709C6.34126 20.6452 5.93255 21.3548 5.14507 21.8462C4.77059 22.0813 4.37257 22.2783 3.97455 22.4731C3.76056 22.579 3.64073 22.7294 3.71134 22.9539C3.85899 23.4305 4.02591 23.9007 4.20138 24.3667C4.28055 24.5807 4.48598 24.5447 4.66145 24.5214C5.00383 24.4748 5.34622 24.4218 5.6886 24.3625C6.7243 24.1867 7.53746 24.5637 8.16231 25.3623C8.52181 25.8219 8.85349 26.3006 9.18517 26.7793C9.72015 27.5545 9.79076 28.3742 9.39274 29.2278C9.22155 29.5964 9.03966 29.9565 8.85777 30.3187C8.73794 30.5538 8.79357 30.7423 9.00328 30.8927C9.31999 31.1193 9.63241 31.3523 9.95767 31.5663C10.2765 31.7738 10.4071 31.7548 10.6874 31.4921C10.9591 31.238 11.2052 30.9584 11.4856 30.7148C12.1596 30.1281 12.93 29.8612 13.8245 30.1302C14.3915 30.2996 14.6847 30.7593 14.5927 31.2909C14.5092 31.7717 14.0556 32.1276 13.4949 32.0767C13.0883 32.0407 12.808 32.1615 12.5427 32.4559C12.2859 32.7418 11.997 33.0151 11.6803 33.2375C10.8179 33.8411 9.91274 33.8708 9.0097 33.3222C8.59457 33.0701 8.19227 32.7905 7.80709 32.4961C6.80562 31.7294 6.52957 30.5707 7.06241 29.4354C7.20792 29.1241 7.35129 28.8106 7.52462 28.5162C7.68511 28.2387 7.64874 28.0184 7.45187 27.7706C7.148 27.3935 6.8634 26.9975 6.59591 26.595C6.43542 26.3493 6.23855 26.2879 5.9625 26.3387C5.58802 26.4065 5.20926 26.4616 4.8305 26.506C3.81834 26.6289 3.01802 26.2498 2.49589 25.4046C2.05507 24.6908 1.75977 23.8965 1.68059 23.0577C1.58429 22.0389 2.04223 21.2721 2.94526 20.7765C3.30048 20.5795 3.66426 20.3952 4.03019 20.2152C4.2292 20.1178 4.32335 19.9674 4.32335 19.7556C4.32335 19.1921 4.32121 18.6308 4.32335 18.0674C4.32335 17.8281 4.2078 17.6756 3.99167 17.5781C3.68566 17.4362 3.38394 17.2879 3.08222 17.1354C1.9438 16.5635 1.44092 15.4685 1.77474 14.2463C1.8903 13.8227 2.04223 13.4096 2.20058 13.0008C2.71629 11.677 3.77768 11.1009 5.18358 11.3614C5.50671 11.4207 5.83197 11.4779 6.15937 11.497C6.27707 11.5033 6.44398 11.4313 6.51459 11.3381C6.8741 10.87 7.21648 10.3871 7.54388 9.89566C7.60808 9.80035 7.62734 9.62242 7.58454 9.51652C7.44545 9.16703 7.26998 8.83024 7.10306 8.48922C6.51459 7.28189 6.77566 6.14657 7.84133 5.32685C8.17943 5.06632 8.52395 4.8185 8.87489 4.57915C9.95339 3.8484 11.079 3.94583 12.0205 4.84604C12.2944 5.10869 12.5683 5.37345 12.838 5.64034C12.9856 5.78437 13.144 5.8225 13.3473 5.75683C13.8694 5.58315 14.3958 5.42852 14.9201 5.26331C15.1426 5.19341 15.2946 5.0875 15.3224 4.81215C15.3673 4.35887 15.4422 3.90559 15.5492 3.4629C15.7889 2.46526 16.7604 1.70697 17.7982 1.68155C18.2433 1.67308 18.6884 1.65825 19.1314 1.67096C20.4517 1.7112 21.3333 2.42713 21.6286 3.70013C21.7206 4.10257 21.7613 4.51561 21.8512 4.91805C21.8768 5.02608 21.9731 5.16799 22.0694 5.20188C22.6707 5.4137 23.2785 5.60856 23.8926 5.78225C23.9996 5.8119 24.1729 5.73989 24.2671 5.6594C24.556 5.41158 24.8171 5.13199 25.0931 4.87145C26.071 3.94795 27.1966 3.85687 28.3072 4.61728C28.6881 4.87781 29.0647 5.14469 29.4221 5.43276C30.3636 6.1974 30.6076 7.31154 30.0855 8.39814C29.9207 8.73704 29.7452 9.07383 29.5697 9.40849C29.4585 9.61819 29.4777 9.79823 29.6275 9.98886C29.9442 10.4019 30.2502 10.8234 30.5477 11.2513C30.6889 11.4567 30.858 11.5414 31.1083 11.4991C31.4935 11.4334 31.8787 11.3741 32.2681 11.3296C33.4729 11.1898 34.4701 11.7872 34.8895 12.9076C35.0607 13.3673 35.219 13.8354 35.3624 14.3056C35.6641 15.299 35.2255 16.4365 34.3182 16.9808Z" fill="#38BB9F"/>
<path id="Vector_3" d="M27.8179 19.2492C27.8008 19.8529 27.3964 20.3316 26.8657 20.3676C26.2173 20.4121 25.7744 19.9609 25.7401 19.2746C25.708 18.6265 25.6888 17.972 25.5689 17.3387C25.0639 14.6783 22.6801 12.3822 19.9838 11.929C19.5045 11.8485 19.0166 11.8252 18.5308 11.7764C16.0207 11.6621 13.0185 13.3883 11.8672 16.269C10.3757 20.0054 12.2931 24.2459 16.0357 25.5824C16.2604 25.6629 16.4894 25.7392 16.7012 25.8451C17.1891 26.0887 17.3817 26.5928 17.1977 27.0948C17.0372 27.529 16.5086 27.7959 16.0143 27.6582C14.5207 27.2452 13.2218 26.5017 12.1197 25.4193C10.701 24.0277 9.78939 22.3629 9.45985 20.4184C8.95912 17.4403 9.81507 14.835 11.8822 12.6555C13.7739 10.6623 16.1513 9.67314 18.9246 9.77693C22.4468 9.91037 25.9199 12.1747 27.2316 15.8433C27.6254 16.9468 27.8565 18.0737 27.8179 19.2492Z" fill="#38BB9F"/>
</g>
</svg>
