<svg width="37" height="37" viewBox="0 0 37 37" fill="none" xmlns="http://www.w3.org/2000/svg">
<g id="Group 1407">
<path id="Vector (Stroke)" fill-rule="evenodd" clip-rule="evenodd" d="M14.8183 10.7191C10.2738 12.9919 8.43213 18.5184 10.7049 23.063C12.9777 27.6076 18.5042 29.4492 23.0488 27.1764C27.5933 24.9037 29.435 19.3771 27.1622 14.8326C24.8894 10.288 19.3629 8.44636 14.8183 10.7191ZM9.51238 23.6594C6.91024 18.4562 9.01878 12.1288 14.222 9.52662C19.4251 6.92447 25.7526 9.03302 28.3547 14.2362C30.9569 19.4394 28.8483 25.7668 23.6452 28.369C18.442 30.9711 12.1145 28.8626 9.51238 23.6594Z" fill="#1B284B"/>
<path id="Vector (Stroke)_2" fill-rule="evenodd" clip-rule="evenodd" d="M16.3086 18.9581C16.3086 17.5111 17.4845 16.3353 18.9314 16.3353C20.3783 16.3353 21.5542 17.5111 21.5542 18.9581C21.5542 19.4617 21.4117 19.9326 21.1649 20.3324L23.5337 22.4607C23.8076 22.7068 23.8302 23.1283 23.5841 23.4022C23.338 23.6761 22.9165 23.6986 22.6426 23.4525L20.197 21.2552C19.8216 21.4627 19.3901 21.5809 18.9314 21.5809C17.4845 21.5809 16.3086 20.405 16.3086 18.9581ZM18.9314 17.6686C18.2208 17.6686 17.6419 18.2475 17.6419 18.9581C17.6419 19.6686 18.2208 20.2475 18.9314 20.2475C19.642 20.2475 20.2209 19.6686 20.2209 18.9581C20.2209 18.2475 19.642 17.6686 18.9314 17.6686Z" fill="#38BB9F"/>
<path id="Vector (Stroke)_3" fill-rule="evenodd" clip-rule="evenodd" d="M17.0267 1.40606C17.0903 1.09596 17.3632 0.873352 17.6798 0.873352H20.24C20.5657 0.873352 20.8438 1.10871 20.8975 1.42996L21.3848 4.34083C22.222 4.51248 23.2237 4.79199 24.0405 5.04523L26.0257 2.79608C26.2358 2.55816 26.5844 2.50125 26.8591 2.66005L29.0742 3.94017C29.3561 4.10309 29.4791 4.44584 29.365 4.75084L28.3359 7.50338C28.9864 8.07408 29.7206 8.82767 30.305 9.45762L33.1451 8.50253C33.4458 8.40142 33.7761 8.52619 33.9349 8.80085L35.215 11.0159C35.3776 11.2973 35.3136 11.655 35.0634 11.8625L32.805 13.7363C33.079 14.5504 33.3421 15.5732 33.5297 16.4203L36.4663 17.0101C36.7776 17.0727 37.0017 17.3462 37.0017 17.6638V20.224C37.0017 20.5497 36.7663 20.8277 36.4451 20.8815L33.5552 21.3652C33.3841 22.2088 33.1007 23.2259 32.8442 24.0532L35.0933 26.0385C35.3312 26.2485 35.3881 26.5971 35.2294 26.8719L33.9492 29.0869C33.7863 29.3688 33.4436 29.4918 33.1386 29.3778L30.386 28.3487C29.8153 28.9992 29.0617 29.7333 28.4318 30.3178L29.3869 33.1579C29.488 33.4586 29.3632 33.7889 29.0886 33.9476L26.8735 35.2277C26.5915 35.3907 26.233 35.326 26.0257 35.0748L24.1519 32.8038C23.3379 33.0776 22.3158 33.3405 21.4691 33.5281L20.8793 36.4646C20.8167 36.776 20.5432 37 20.2256 37H17.6654C17.3397 37 17.0617 36.7647 17.0079 36.4434L16.5243 33.5543C15.6829 33.3861 14.6667 33.1099 13.8333 32.8458L11.8509 35.0917C11.6409 35.3296 11.2923 35.3865 11.0175 35.2277L8.8025 33.9476C8.52057 33.7847 8.3976 33.4419 8.51163 33.1369L9.54073 30.3844C8.89023 29.8137 8.15611 29.0601 7.57164 28.4301L4.73152 29.3852C4.43083 29.4863 4.10055 29.3616 3.94181 29.0869L2.6617 26.8719C2.49906 26.5904 2.56307 26.2328 2.81322 26.0252L5.07163 24.1515C4.79765 23.3373 4.53457 22.3146 4.34694 21.4674L1.41039 20.8776C1.09902 20.8151 0.875 20.5416 0.875 20.224V17.6638C0.875 17.338 1.11036 17.06 1.43161 17.0062L4.32151 16.5225C4.49254 15.6789 4.77599 14.6619 5.0325 13.8346L2.78335 11.8493C2.54542 11.6393 2.48852 11.2907 2.64731 11.0159L3.92743 8.80085C4.09036 8.51893 4.43311 8.39595 4.7381 8.50998L7.49066 9.53909C8.06214 8.88793 8.81782 8.15316 9.45813 7.56659L8.50418 4.72987C8.40307 4.42919 8.52784 4.0989 8.8025 3.94017L11.0175 2.66005C11.299 2.49741 11.6566 2.56142 11.8642 2.81157L13.7379 5.06998C14.5527 4.7958 15.5764 4.53253 16.4239 4.34487L17.0267 1.40606ZM20.112 4.81332L19.6757 2.20669H18.2236L17.6425 5.03969C17.5889 5.30091 17.3848 5.50507 17.1236 5.55875C16.0859 5.77197 14.6463 6.13727 13.7623 6.47726C13.4953 6.57994 13.1926 6.50086 13.0099 6.2807L11.1974 4.09608L9.94178 4.82173L10.8611 7.55551C10.9461 7.80839 10.8722 8.08762 10.6732 8.2653C9.87282 8.97995 8.81459 9.99938 8.21832 10.7447C8.03833 10.9697 7.73416 11.0536 7.46428 10.9527L4.79957 9.95644L4.07471 11.2107L6.24031 13.1222C6.43934 13.2979 6.51517 13.5749 6.43336 13.8275C6.10497 14.8412 5.70112 16.2682 5.55134 17.2078C5.50625 17.4906 5.28553 17.713 5.00305 17.7603L2.20833 18.2281V19.6779L5.03865 20.2464C5.30107 20.2991 5.50652 20.5036 5.56039 20.7658C5.77362 21.8035 6.13892 23.2431 6.4789 24.1271C6.58159 24.3941 6.5025 24.6968 6.28235 24.8795L4.09772 26.692L4.82338 27.9476L7.55716 27.0283C7.80798 26.9439 8.08495 27.0159 8.26295 27.2117C8.98113 28.0017 10.0003 29.0599 10.7464 29.6567C10.9714 29.8367 11.0552 30.1409 10.9543 30.4107L9.95808 33.0754L11.2123 33.8003L13.1239 31.6347C13.3016 31.4334 13.5828 31.3583 13.8372 31.4443C14.8384 31.7828 16.267 32.1734 17.2094 32.3237C17.4923 32.3688 17.7147 32.5895 17.762 32.872L18.2298 35.6667H19.6796L20.248 32.8364C20.3008 32.5739 20.5053 32.3685 20.7675 32.3146C21.8052 32.1014 23.2448 31.7361 24.1287 31.3961C24.3963 31.2932 24.6998 31.3729 24.8823 31.594L26.695 33.7909L27.9493 33.066L27.0299 30.3322C26.9456 30.0814 27.0176 29.8045 27.2134 29.6264C28.0034 28.9083 29.0615 27.8891 29.6583 27.143C29.8383 26.9181 30.1425 26.8342 30.4124 26.9351L33.0771 27.9313L33.802 26.6771L31.6364 24.7655C31.4373 24.5898 31.3615 24.3128 31.4433 24.0603C31.7717 23.0465 32.1755 21.6195 32.3253 20.68C32.3704 20.3971 32.5911 20.1747 32.8736 20.1274L35.6683 19.6596V18.2098L32.838 17.6414C32.5756 17.5886 32.3701 17.3841 32.3163 17.1219C32.103 16.0842 31.7377 14.6446 31.3978 13.7607C31.2951 13.4937 31.3742 13.1909 31.5943 13.0083L33.7789 11.1958L33.0533 9.94013L30.3195 10.8595C30.0687 10.9438 29.7917 10.8718 29.6137 10.676C28.8955 9.88602 27.8763 8.82787 27.1303 8.23106C26.9053 8.05106 26.8214 7.7469 26.9223 7.47701L27.9186 4.81231L26.6643 4.08745L24.7528 6.25305C24.5771 6.45208 24.3001 6.52791 24.0475 6.44609C23.0338 6.1177 21.6068 5.71386 20.6673 5.56408C20.3078 5.50678 20.0616 5.1722 20.112 4.81332Z" fill="#1B284B"/>
<path id="Vector (Stroke)_4" fill-rule="evenodd" clip-rule="evenodd" d="M18.8957 10.8989C19.2639 10.8959 19.5647 11.192 19.5677 11.5602L19.6108 16.9396C19.6138 17.3077 19.3177 17.6086 18.9495 17.6116C18.5814 17.6145 18.2805 17.3184 18.2775 16.9503L18.2344 11.5709C18.2314 11.2027 18.5275 10.9018 18.8957 10.8989Z" fill="#38BB9F"/>
</g>
</svg>
