<svg width="54" height="46" viewBox="0 0 54 46" fill="none" xmlns="http://www.w3.org/2000/svg">
<g id="Layer_1" clip-path="url(#clip0_1274_616)">
<path id="Vector" d="M48.4705 22.464C48.4705 22.464 48.4652 22.4713 48.4631 22.4745C48.4441 22.4713 48.4241 22.4671 48.4041 22.464C48.3049 22.4471 48.1995 22.4324 48.094 22.4324H39.2135C38.5702 22.4324 37.9901 22.0747 37.7053 21.5065L35.2584 16.6352C34.9737 16.067 34.3936 15.7093 33.7502 15.7093C33.1069 15.7093 32.5268 16.067 32.242 16.6352L27.0846 26.9355L20.9463 13.321C20.6721 12.7108 20.0604 12.3215 19.3854 12.332C18.7104 12.3425 18.1092 12.7528 17.8561 13.3631L14.5022 21.3908C14.2385 22.0221 13.6268 22.4219 12.9412 22.4219H5.90648C5.77992 22.4219 5.65336 22.4324 5.53734 22.464H1.63184C2.22457 23.656 2.97234 24.7744 3.86039 25.7887L3.87094 25.7992H12.9307C14.9768 25.7992 16.8225 24.5682 17.603 22.6954L19.4592 18.2555L25.4498 31.5438C25.7135 32.133 26.3041 32.5223 26.958 32.5328C27.612 32.5433 28.2131 32.1856 28.4979 31.6069L33.7502 21.1488L34.6784 23.0111C35.5327 24.726 37.294 25.7992 39.203 25.7992H50.1401L50.1506 25.7887C51.0345 24.7744 51.7791 23.656 52.3707 22.464H48.4705Z" fill="#38BB9F"/>
<path id="Vector_2" d="M54 15.1623V15.5305C54 17.9609 53.4315 20.3303 52.3705 22.464H48.4703C49.8582 20.4355 50.625 18.0304 50.625 15.5305V15.1623C50.625 9.45976 46.5434 4.5779 40.9219 3.55734C36.8613 2.82085 32.7164 4.25174 29.9742 7.32395L29.5312 7.81845L28.2656 9.23882C27.9387 9.59654 27.4852 9.80696 27 9.80696C26.5148 9.80696 26.0508 9.59654 25.7344 9.23882L24.4688 7.81845L24.0258 7.32395C21.2836 4.25174 17.1387 2.82085 13.0781 3.55734C7.45664 4.5779 3.375 9.45976 3.375 15.1623V15.5305C3.375 18.0346 4.14492 20.444 5.53711 22.464H1.6316C0.568477 20.3303 0 17.9609 0 15.5305V15.1623C0 7.83949 5.25234 1.5583 12.477 0.243139C16.8012 -0.535434 21.1992 0.590341 24.5848 3.2417C25.2914 3.7888 25.9453 4.40956 26.557 5.09344L27 5.58794L27.4535 5.08292C27.8965 4.58842 28.3605 4.136 28.8563 3.70463C29.0461 3.53629 29.2359 3.37847 29.4258 3.23118C32.8113 0.579819 37.2094 -0.535434 41.523 0.243139C48.7477 1.5583 54 7.83949 54 15.1623Z" fill="#1B284B"/>
<path id="Vector_3" d="M7.36133 29.166L24.384 44.9795C25.0906 45.6423 26.0293 46 26.9996 46C27.8434 46 28.666 45.716 29.3305 45.2109C29.4254 45.1373 29.5203 45.0636 29.6047 44.9795L46.6379 29.166H41.6809L27.316 42.507C27.2316 42.5806 27.1156 42.6332 26.9996 42.6332C26.8836 42.6332 26.7676 42.5911 26.6832 42.507L12.3184 29.166H7.36133Z" fill="#1B284B"/>
</g>
<defs>
<clipPath id="clip0_1274_616">
<rect width="54" height="46" fill="white"/>
</clipPath>
</defs>
</svg>
