<svg width="60" height="60" viewBox="0 0 60 60" fill="none" xmlns="http://www.w3.org/2000/svg">
<g id="Icons">
<path id="Vector" d="M54.322 19.9525C55.3274 17.56 55.2102 14.874 53.9999 12.594C52.7944 10.314 50.647 8.71898 48.114 8.21993C46.7231 7.94594 45.2931 7.98997 44.0339 8.02911C43.2726 8.05358 42.5502 8.07804 41.8719 8.02911H39.9538C38.8313 8.02911 37.821 8.02911 36.8108 8.02911C33.6726 8.0389 30.9542 9.46756 29.3485 11.953C27.7526 14.4287 27.5622 17.4866 28.836 20.344C28.9629 20.6277 29.085 20.9164 29.207 21.2051C29.5779 22.0711 29.9586 22.9713 30.4515 23.7933C31.3544 25.3149 31.3397 26.3619 30.3929 27.3992C30.3148 27.4775 30.2758 27.5802 30.2465 27.6536C30.2075 27.7563 30.1587 27.8689 30.105 27.9765C29.9439 28.319 29.7585 28.7055 29.8951 29.0774C29.9781 29.3073 30.1684 29.4932 30.4613 29.6302C30.7687 29.7721 31.0371 29.7966 31.2714 29.7085C31.6521 29.5568 31.8278 29.1459 31.9791 28.7789C32.0181 28.686 32.0572 28.593 32.1011 28.5049C33.985 24.6104 38.0504 22.2717 42.2184 22.6778C46.684 23.1132 50.2907 26.0977 51.4035 30.281C52.5309 34.5131 50.9105 39.0339 47.3673 41.5341C46.9476 41.8325 46.5522 41.9598 46.0837 41.95C45.1759 41.9255 44.2535 41.9304 43.3653 41.9353C42.8431 41.9353 42.3257 41.9353 41.8035 41.9353C41.4765 41.9353 41.0275 41.9646 40.7542 42.2484C40.5785 42.4295 40.4955 42.6839 40.5053 43.0068C40.5346 44 41.4668 43.9902 41.784 43.9902H42.5112C43.7996 43.9755 45.132 43.9706 46.44 44C46.4595 44 46.479 44 46.5034 44C47.0696 44 47.5674 43.8434 48.1189 43.4961C53.7754 39.8999 55.5275 32.3114 52.0184 26.5821C51.6816 26.0341 51.667 25.6623 51.9598 25.0654C52.6968 23.5633 53.5509 21.7824 54.3269 19.9428L54.322 19.9525ZM34.0094 14.9669C34.5657 14.1009 35.5565 13.597 36.7229 13.5872C38.2896 13.5725 39.8562 13.5774 41.4228 13.5823H42.6478H42.7796L46.601 13.5921C47.5576 13.6459 48.4459 14.1596 48.973 14.9571C49.4757 15.7155 49.5928 16.6402 49.2951 17.4817C48.9437 18.4701 48.4849 19.4486 48.0408 20.3929C47.8065 20.8919 47.5723 21.391 47.3478 21.8998C47.2892 22.0368 47.2453 22.0662 47.2453 22.0662C47.2062 22.0662 47.0989 21.9879 47.0403 21.9488C46.9671 21.8949 46.8939 21.846 46.8256 21.8166C45.0539 20.9947 43.2677 20.5886 41.4619 20.5886C39.9197 20.5886 38.3677 20.8919 36.8205 21.4937C36.2398 21.7188 35.8884 21.8558 35.7322 21.7922C35.5711 21.7237 35.4101 21.3763 35.1368 20.7892C34.9806 20.4565 34.8244 20.1238 34.6682 19.7911C34.3949 19.2186 34.1265 18.6462 33.8727 18.064C33.3944 16.9729 33.4432 15.8476 34.0094 14.9718V14.9669ZM49.6709 21.7384C49.8856 21.2687 50.1004 20.799 50.32 20.3244C50.5347 19.8547 50.7495 19.385 50.9642 18.9153C51.8525 16.9974 51.6768 15.1871 50.442 13.5334C49.5245 12.3004 48.2799 11.6448 46.6303 11.5323C46.4546 11.5225 46.2789 11.5127 46.0935 11.5127C45.908 11.5127 45.7323 11.5176 45.5517 11.5323H40.3052C39.0509 11.5323 37.7966 11.5274 36.5423 11.542C34.7805 11.5665 33.2383 12.4032 32.3012 13.8367C31.3641 15.28 31.2226 17.0463 31.9156 18.6804C32.3988 19.8204 32.9454 21.117 33.5945 22.3108C33.9508 22.9713 33.8825 23.2942 33.3115 23.6367C33.1309 23.7444 32.9796 23.8862 32.8039 24.0428C32.7941 24.0526 32.7844 24.0575 32.7746 24.0673C32.5403 23.5584 32.3012 23.0594 32.0621 22.5603C31.4373 21.254 30.8468 20.0161 30.3783 18.7147C29.6755 16.7625 29.9586 14.644 31.1592 12.9071C32.3598 11.1702 34.3217 10.1134 36.4057 10.084C39.539 10.04 42.8431 10.04 46.4986 10.084C48.6606 10.1085 50.5982 11.1457 51.8183 12.9267C53.0189 14.6831 53.2825 16.8359 52.5406 18.8321C52.0574 20.1287 51.4474 21.4106 50.8568 22.6484C50.6177 23.1523 50.3786 23.6514 50.1492 24.1553C48.9681 23.2404 48.9925 23.1915 49.6611 21.7384H49.6709Z" fill="#38BB9F"/>
<path id="Vector_2" d="M39.064 34.2507C36.492 31.9114 33.3175 30.4568 29.8899 30.042C26.9078 29.6871 24.6345 31.6565 23.1815 33.171C22.7714 33.5959 22.5638 33.6259 22.0727 33.331C21.4702 32.9661 20.8373 32.6312 20.2247 32.3013C19.8146 32.0814 19.4045 31.8614 18.9944 31.6365C18.1742 31.1716 17.354 31.2366 16.5641 31.8314C15.749 32.4462 15.2427 33.281 15.0655 34.3257C14.8326 35.6753 15.2022 36.4 16.473 37.0948C16.7312 37.2348 16.9844 37.3797 17.2426 37.5247C17.8805 37.8846 18.5438 38.2595 19.2222 38.5694C19.6931 38.7893 19.7639 38.9643 19.5969 39.4991C19.1918 40.8137 19.0248 42.1283 19.1007 43.4129C19.3285 47.1518 20.9284 49.5311 23.9915 50.7007C24.9737 51.0756 26.0117 51.5404 27.2521 52.1752C28.3305 52.7251 29.419 53 30.5076 53C31.9505 53 33.3935 52.5151 34.8212 51.5504C38.5121 49.0562 40.7044 45.2873 40.9981 40.9237C41.0284 37.9246 40.7145 35.7602 39.0589 34.2557L39.064 34.2507ZM19.9817 36.63C19.1311 36.0801 18.2147 35.6203 17.4147 35.2304C17.0856 35.0704 17.0755 34.8905 17.2122 34.4356C17.3641 33.9258 17.5869 33.6209 17.921 33.4609L17.9818 33.4909C18.1185 33.5559 18.2451 33.6159 18.3666 33.6859L19.2171 34.1507C19.607 34.3657 19.9918 34.5756 20.3816 34.7855C20.8677 35.0455 21.1866 35.2204 21.2322 35.3554C21.2778 35.4803 21.131 35.7852 20.9082 36.2451L20.8424 36.38C20.7107 36.655 20.5993 36.8049 20.4981 36.8299C20.4019 36.8599 20.2297 36.7899 19.9867 36.63H19.9817ZM24.4371 48.5114C23.222 48.1865 22.3258 47.3467 21.7638 46.0121C21.136 44.5276 21.0145 42.9131 21.379 41.0836C22.0676 37.6647 23.6371 35.1204 26.1838 33.306C27.3635 32.4612 28.5026 32.0414 29.6165 32.0414C30.4063 32.0414 31.186 32.2513 31.9556 32.6762C25.8193 35.6703 23.3587 40.8587 24.4371 48.5064V48.5114ZM38.9476 40.1239C38.659 44.5276 36.7502 47.8766 33.2669 50.0759C31.7936 51.0056 30.1481 51.1656 28.7507 50.5108C27.3382 49.851 26.4116 48.4714 26.2041 46.7319C25.6826 42.3032 27.2268 38.6044 30.7962 35.7352C32.0417 34.7355 33.2315 34.2357 34.3959 34.2357C34.9782 34.2357 35.5604 34.3607 36.1376 34.6106C37.8388 35.3454 38.659 36.7349 38.8919 39.2642C38.9071 39.4241 38.9172 39.5841 38.9273 39.809L38.9476 40.1239Z" fill="#1B284B"/>
<path id="Vector_3" d="M18.7834 42.365C18.5298 42.2604 18.2274 42.2903 17.9104 42.4397C17.7738 42.5045 17.6275 42.5642 17.4812 42.6141C15.2524 43.426 13.1991 42.5294 12.253 40.3277C11.9018 39.5158 11.7067 38.6093 11.6726 37.633C11.6726 37.5632 11.6677 37.4985 11.6628 37.4487C11.6433 36.6318 11.7116 35.8149 11.853 35.0627C11.8823 34.993 11.9067 34.9183 11.9262 34.8336C11.9457 34.7589 11.9603 34.6842 11.9799 34.6045C11.9994 34.5198 12.0189 34.4401 12.0384 34.3554C12.131 34.0067 12.2432 33.6481 12.3651 33.2994C12.4432 33.1002 12.5115 32.9159 12.5651 32.7615C13.1699 31.2372 14.0234 29.8824 15.1061 28.7367C16.1693 27.616 17.2715 26.8937 18.4713 26.5301C19.71 26.1565 20.8659 26.2761 21.8169 26.8738C22.8997 27.5562 23.6556 28.8364 23.9482 30.4901C24.0019 30.7939 24.1726 31.7254 25.1383 31.571C25.4358 31.5212 25.6601 31.3917 25.8064 31.1825C25.982 30.9334 26.0405 30.5847 25.9722 30.1464C25.5772 27.6459 24.3238 25.8328 22.2461 24.7519C20.9147 24.0595 19.4613 23.3771 17.6665 22.5951C15.6133 21.6985 13.5698 21.818 11.7555 22.9338C7.09788 25.8178 4.82515 30.1564 5.01048 35.8348C5.10803 38.8035 6.35656 40.9902 8.61466 42.1658C10.2582 43.0225 11.9506 43.7896 13.5405 44.5019C14.2818 44.8356 15.0427 45 15.8376 45C16.7496 45 17.7056 44.7808 18.72 44.3475C19.3296 44.0835 19.5735 43.5555 19.354 42.9926C19.2321 42.6838 19.0321 42.4696 18.7834 42.37V42.365ZM9.72176 38.7338L9.73639 38.7886C9.83881 39.4162 10.0095 40.0339 10.19 40.6166C8.42933 39.8695 7.44903 38.674 7.20518 36.9804C6.48824 32.0541 8.17084 28.0593 12.1993 25.1105C13.0918 24.458 14.0136 24.1292 14.9793 24.1292C15.7596 24.1292 16.5692 24.3434 17.4178 24.7718C17.1935 24.8764 16.9935 24.9661 16.7935 25.0657C13.2479 26.8389 11.0191 29.8625 9.97049 34.3056C9.94123 34.4301 9.25843 37.3142 9.72176 38.7338Z" fill="#1B284B"/>
<path id="Vector_4" d="M42.231 36.8943C41.6351 36.9638 40.7308 37.0681 40.849 38.0763C40.9415 38.8609 41.5477 39 42.0409 39C42.2105 39 42.3646 38.9851 42.4828 38.9702C45.4165 38.6573 47.6771 36.3728 47.9751 33.4179C48.2423 30.7709 46.331 28.0643 43.6234 27.2647C40.8284 26.4353 37.7817 27.6074 36.3791 30.0458C36.1582 30.4332 35.9064 30.8702 36.0349 31.3072C36.1068 31.5556 36.2969 31.7592 36.5949 31.9131C37.4837 32.3849 37.8845 31.6946 38.1516 31.2427L38.2338 31.1086C38.984 29.867 40.1297 29.132 41.373 29.0923C43.8649 29.0923 45.6631 30.5822 45.8378 32.7922C46.0022 34.7985 44.3838 36.641 42.231 36.8993V36.8943Z" fill="#38BB9F"/>
</g>
</svg>
