<svg width="77" height="78" viewBox="0 0 77 78" fill="none" xmlns="http://www.w3.org/2000/svg">
<path fill-rule="evenodd" clip-rule="evenodd" d="M19.8944 23.7756C20.477 24.226 20.5841 25.0634 20.1337 25.646L14.729 32.6365C14.4759 32.9639 14.0851 33.1552 13.6713 33.1543C13.2575 33.1534 12.8676 32.9605 12.6158 32.632L9.96204 29.1691C9.51411 28.5846 9.62482 27.7477 10.2093 27.2998C10.7938 26.8519 11.6307 26.9626 12.0786 27.5471L13.6788 29.6351L18.024 24.0149C18.4744 23.4324 19.3118 23.3252 19.8944 23.7756ZM23.7328 29.0054C23.7328 28.269 24.3297 27.672 25.0661 27.672H42.4129C43.1493 27.672 43.7463 28.269 43.7463 29.0054C43.7463 29.7417 43.1493 30.3387 42.4129 30.3387H25.0661C24.3297 30.3387 23.7328 29.7417 23.7328 29.0054ZM19.8944 34.7792C20.477 35.2296 20.5841 36.067 20.1337 36.6496L14.729 43.6401C14.4759 43.9675 14.0851 44.1588 13.6713 44.1579C13.2575 44.157 12.8676 43.9641 12.6158 43.6356L9.96204 40.1727C9.51411 39.5882 9.62482 38.7513 10.2093 38.3034C10.7938 37.8555 11.6307 37.9662 12.0786 38.5506L13.6788 40.6387L18.024 35.0185C18.4744 34.4359 19.3118 34.3288 19.8944 34.7792ZM23.7328 40.0089C23.7328 39.2726 24.3297 38.6756 25.0661 38.6756H38.497C39.2333 38.6756 39.8303 39.2726 39.8303 40.0089C39.8303 40.7453 39.2333 41.3423 38.497 41.3423H25.0661C24.3297 41.3423 23.7328 40.7453 23.7328 40.0089ZM19.7973 45.7181C20.3799 46.1685 20.487 47.0059 20.0366 47.5885L14.6319 54.579C14.3788 54.9064 13.988 55.0977 13.5742 55.0968C13.1604 55.0959 12.7705 54.9029 12.5188 54.5745L9.86494 51.1116C9.41702 50.5271 9.52773 49.6902 10.1122 49.2422C10.6967 48.7943 11.5336 48.905 11.9815 49.4895L13.5817 51.5775L17.9269 45.9574C18.3773 45.3748 19.2147 45.2677 19.7973 45.7181ZM23.6357 50.9478C23.6357 50.2114 24.2326 49.6145 24.969 49.6145H42.3158C43.0522 49.6145 43.6492 50.2114 43.6492 50.9478C43.6492 51.6842 43.0522 52.2811 42.3158 52.2811H24.969C24.2326 52.2811 23.6357 51.6842 23.6357 50.9478Z" fill="#38BB9F"/>
<path fill-rule="evenodd" clip-rule="evenodd" d="M35.9407 1.48864C35.7005 1.13775 35.297 0.90751 34.8396 0.90751H34.8172C34.8104 0.907458 34.8036 0.907458 34.7968 0.90751H4.32085C2.16048 0.90751 0.398438 2.66955 0.398438 4.82992V67.6475C0.398438 69.8079 2.16048 71.5699 4.32085 71.5699H48.5865L53.9538 75.0452C59.5886 78.687 66.097 77.2673 70.5731 73.6252C75.0351 69.9946 77.7871 63.9066 75.6793 57.8558L71.0525 44.59C71.0522 44.5892 71.0519 44.5883 71.0516 44.5874C70.1279 41.9191 66.9745 41.0178 64.5649 42.0103C63.7413 42.3411 63.0555 42.8624 62.5358 43.4991C61.1973 42.6364 59.4425 42.4561 57.8567 43.1143L57.8427 43.1202C57.0319 43.4677 56.352 43.9929 55.8348 44.6308C55.0041 44.0958 54.0132 43.8236 53.002 43.8515V19.0699C53.002 18.6125 52.7718 18.209 52.4209 17.9688L35.9407 1.48864ZM33.4739 3.57418H4.32085C3.63324 3.57418 3.0651 4.14231 3.0651 4.82992V67.6475C3.0651 68.3351 3.63324 68.9032 4.32085 68.9032H44.468L36.5102 63.7506C34.1823 62.2443 33.7268 59.1978 35.311 56.9975C35.4543 56.7986 35.6497 56.6429 35.8757 56.5478C37.044 56.0558 38.643 55.8738 40.1098 55.9305C41.3925 55.9801 42.8141 56.2212 43.9038 56.7832L37.4725 42.0393C37.4718 42.0378 37.4711 42.0362 37.4704 42.0347C36.3588 39.5262 37.763 36.6925 40.2134 35.6858L40.2307 35.6772C40.259 35.663 40.2878 35.6499 40.3171 35.6378C42.8377 34.5948 45.6807 35.7087 46.7644 38.0951C46.7651 38.0966 46.7659 38.0982 46.7666 38.0998L49.9353 44.9652C50.0818 44.851 50.2353 44.744 50.395 44.6444C50.3562 44.5194 50.3353 44.3865 50.3353 44.2487V20.4032H37.3964C35.236 20.4032 33.4739 18.6412 33.4739 16.4808V3.57418ZM48.4174 17.7365L36.1406 5.45979V16.4808C36.1406 17.1684 36.7087 17.7365 37.3964 17.7365H48.4174ZM52.1893 46.7061C51.5134 47.0015 51.0759 47.4692 50.8645 47.9881C50.6642 48.4799 50.191 48.8059 49.6601 48.818C49.1292 48.8301 48.6417 48.526 48.4191 48.0438L44.3373 39.1998C43.871 38.17 42.5962 37.6042 41.3762 38.0858L41.3584 38.0948C41.3241 38.1119 41.2892 38.1275 41.2537 38.1416C39.9867 38.644 39.4799 39.9901 39.9093 40.9563L39.913 40.9647L48.101 59.7355C48.3362 60.2747 48.1902 60.9043 47.7418 61.285C47.2934 61.6658 46.6484 61.7076 46.1545 61.388L42.8535 59.252C42.3275 58.9117 41.2796 58.6444 40.0067 58.5952C38.9598 58.5547 37.9714 58.6697 37.2802 58.8751C36.788 59.8446 37.0836 60.9453 37.9589 61.5117L49.4355 68.9428C49.7263 69.0152 49.9794 69.1832 50.1594 69.4115L55.4022 72.8062C59.8324 75.6694 65.073 74.6626 68.89 71.5568C72.721 68.4397 74.8073 63.4597 73.1613 58.7335C73.1612 58.7334 73.1613 58.7337 73.1613 58.7335L68.5333 45.4645L68.532 45.4608C68.2256 44.5739 66.9198 43.9218 65.577 44.4774L65.5624 44.4835C64.8339 44.7748 64.3387 45.3743 64.1528 46.0559C64.0122 46.5712 63.5778 46.9529 63.0486 47.0259C62.5195 47.0989 61.9979 46.849 61.7231 46.391C61.2138 45.5422 60.0316 45.1025 58.886 45.5744C58.1334 45.8994 57.6379 46.5127 57.4535 47.1886C57.313 47.7039 56.8785 48.0856 56.3494 48.1586C55.8203 48.2316 55.2987 47.9818 55.0239 47.5238C54.5149 46.6755 53.3341 46.2359 52.1893 46.7061ZM8.5864 13.9564C8.5864 13.2201 9.18336 12.6231 9.91974 12.6231H27.2989C28.0353 12.6231 28.6323 13.2201 28.6323 13.9564C28.6323 14.6928 28.0353 15.2898 27.2989 15.2898H9.91974C9.18336 15.2898 8.5864 14.6928 8.5864 13.9564Z" fill="#1B284B"/>
</svg>
