<svg width="81" height="81" viewBox="0 0 81 81" fill="none" xmlns="http://www.w3.org/2000/svg">
<path d="M38.4161 23.3602L37.7266 18.6092M41.8639 23.47L45.4771 14.7644" stroke="#1B284B" stroke-width="2" stroke-linecap="round" stroke-linejoin="round"/>
<path d="M47.0485 42.2821C45.2005 41.6779 43.5731 41.1012 41.8906 40.909C32.954 39.8929 31.7955 48.9006 41.3114 48.8731C50.5514 48.8731 49.6964 57.8534 40.7322 56.8372C39.0772 56.645 37.4223 56.0683 35.6019 55.4641M41.2838 57.5513V61.5333M41.2838 36.2129V40.195" stroke="#38BB9F" stroke-width="2" stroke-linecap="round" stroke-linejoin="round"/>
<path d="M46.6167 22.4066L46.7613 22.3204C47.8886 20.1941 51.4439 16.2862 52.4555 13.1541C55.8085 2.89588 37.5405 12.2633 27.048 10.1083C26.0363 9.90711 31.8463 16.6023 34.3321 22.4354M34.1297 23.4124H47.3394C51.7329 23.4124 58.0053 28.4696 63.1504 34.5326C70.6079 43.2679 79.3083 64.6177 65.2316 71.6289C60.2888 74.1001 52.5423 73.5254 41.4138 73.5254C29.5628 73.5254 21.8162 74.0139 17.0469 71.3703C4.18412 64.2154 11.6705 42.6645 19.0124 33.9292C23.8396 28.1823 29.7362 23.4124 34.1587 23.4124H34.1297Z" stroke="#1B284B" stroke-width="2" stroke-linecap="round" stroke-linejoin="round"/>
</svg>
