<svg width="81" height="81" viewBox="0 0 81 81" fill="none" xmlns="http://www.w3.org/2000/svg">
<path fill-rule="evenodd" clip-rule="evenodd" d="M2.06641 7.23641C2.06641 6.59954 2.58269 6.08325 3.21957 6.08325H78.4075C79.0443 6.08325 79.5606 6.59954 79.5606 7.23641V46.4446C79.5606 47.0814 79.0443 47.5977 78.4075 47.5977H3.21957C2.58269 47.5977 2.06641 47.0814 2.06641 46.4446V7.23641ZM4.37273 8.38957V19.8986C4.57585 19.7199 4.84238 19.6115 5.13422 19.6115C11.0161 19.6115 15.7702 14.8581 15.7702 8.97852C15.7702 8.76335 15.8291 8.56195 15.9317 8.38957H4.37273ZM17.915 8.38957C18.0176 8.56195 18.0765 8.76335 18.0765 8.97852C18.0765 16.1324 12.2893 21.9178 5.13422 21.9178C4.84238 21.9178 4.57585 21.8094 4.37273 21.6306V32.0504C4.57585 31.8716 4.84238 31.7632 5.13422 31.7632C12.2893 31.7632 18.0765 37.5485 18.0765 44.7025C18.0765 44.9176 18.0176 45.119 17.915 45.2914H63.7336C63.631 45.119 63.5721 44.9176 63.5721 44.7025C63.5721 37.5472 69.3822 31.7632 76.5143 31.7632C76.796 31.7632 77.0541 31.8642 77.2543 32.0319V21.6306C77.0512 21.8094 76.7847 21.9178 76.4928 21.9178C69.3607 21.9178 63.5505 16.1338 63.5505 8.97852C63.5505 8.76335 63.6095 8.56195 63.7121 8.38957H17.915ZM65.6953 8.38957C65.7979 8.56195 65.8569 8.76335 65.8569 8.97852C65.8569 14.8568 70.6311 19.6115 76.4928 19.6115C76.7847 19.6115 77.0512 19.7199 77.2543 19.8986V8.38957H65.6953ZM77.2543 33.8008C77.0541 33.9685 76.796 34.0695 76.5143 34.0695C70.6526 34.0695 65.8784 38.8242 65.8784 44.7025C65.8784 44.9176 65.8194 45.119 65.7168 45.2914H77.2543V33.8008ZM15.9317 45.2914C15.8291 45.119 15.7702 44.9176 15.7702 44.7025C15.7702 38.8228 11.0161 34.0695 5.13422 34.0695C4.84238 34.0695 4.57585 33.9611 4.37273 33.7823V45.2914H15.9317ZM33.1309 17.1365C35.0273 14.6105 37.7352 12.9441 40.8243 12.9441C43.9134 12.9441 46.6212 14.6105 48.5177 17.1365C50.4136 19.6618 51.5507 23.099 51.5507 26.8512C51.5507 30.6035 50.4136 34.0407 48.5177 36.566C46.6212 39.092 43.9134 40.7583 40.8243 40.7583C37.7352 40.7583 35.0273 39.092 33.1309 36.566C31.235 34.0407 30.0978 30.6035 30.0978 26.8512C30.0978 23.099 31.235 19.6618 33.1309 17.1365ZM34.9752 18.5212C33.4076 20.6093 32.4042 23.549 32.4042 26.8512C32.4042 30.1535 33.4076 33.0932 34.9752 35.1813C36.5424 37.2686 38.6212 38.452 40.8243 38.452C43.0274 38.452 45.1062 37.2686 46.6733 35.1813C48.241 33.0932 49.2444 30.1535 49.2444 26.8512C49.2444 23.549 48.241 20.6093 46.6733 18.5212C45.1062 16.4338 43.0274 15.2505 40.8243 15.2505C38.6212 15.2505 36.5424 16.4338 34.9752 18.5212ZM18.029 26.8512C18.029 24.8657 19.6363 23.2247 21.6562 23.2247C23.6761 23.2247 25.2834 24.8657 25.2834 26.8512C25.2834 28.8368 23.6761 30.4778 21.6562 30.4778C19.6643 30.4778 18.029 28.8434 18.029 26.8512ZM21.6562 25.531C20.9225 25.531 20.3354 26.1269 20.3354 26.8512C20.3354 27.5691 20.9375 28.1714 21.6562 28.1714C22.3899 28.1714 22.977 27.5756 22.977 26.8512C22.977 26.1269 22.3899 25.531 21.6562 25.531ZM56.3222 26.8512C56.3222 24.8591 57.9574 23.2247 59.9493 23.2247C61.9412 23.2247 63.5765 24.8591 63.5765 26.8512C63.5765 28.8434 61.9412 30.4778 59.9493 30.4778C57.9574 30.4778 56.3222 28.8434 56.3222 26.8512ZM59.9493 25.531C59.2306 25.531 58.6285 26.1334 58.6285 26.8512C58.6285 27.5691 59.2306 28.1714 59.9493 28.1714C60.6681 28.1714 61.2702 27.5691 61.2702 26.8512C61.2702 26.1334 60.6681 25.531 59.9493 25.531Z" fill="#1B284B"/>
<path fill-rule="evenodd" clip-rule="evenodd" d="M78.1286 56.7167H3.5V54.4104H78.1286V56.7167ZM78.1286 65.5348H3.5V63.2285H78.1286V65.5348ZM78.1286 74.3529H3.5V72.0465H78.1286V74.3529Z" fill="#38BB9F"/>
</svg>
