<svg width="50" height="50" viewBox="0 0 50 50" fill="none" xmlns="http://www.w3.org/2000/svg">
<g id="Icons">
<path id="Vector (Stroke)" fill-rule="evenodd" clip-rule="evenodd" d="M24.5999 5.96443C24.8485 5.82891 25.149 5.82891 25.3976 5.96443L42.7018 15.3966C43.0363 15.579 43.2045 15.9649 43.1104 16.3341C43.0164 16.7033 42.6839 16.9617 42.3029 16.9617H7.69457C7.31359 16.9617 6.98113 16.7033 6.88705 16.3341C6.79297 15.9649 6.96123 15.579 7.29574 15.3966L24.5999 5.96443ZM24.9987 7.64522L10.9646 15.295H39.0329L24.9987 7.64522ZM6.47994 19.0845C6.47994 18.6243 6.85304 18.2512 7.31327 18.2512H42.673C43.1332 18.2512 43.5063 18.6243 43.5063 19.0845C43.5063 19.5448 43.1332 19.9179 42.673 19.9179H7.31327C6.85304 19.9179 6.47994 19.5448 6.47994 19.0845ZM7.42197 37.4428C7.42197 36.9826 7.79506 36.6095 8.2553 36.6095H41.7422C42.2024 36.6095 42.5755 36.9826 42.5755 37.4428C42.5755 37.9031 42.2024 38.2762 41.7422 38.2762H8.2553C7.79506 38.2762 7.42197 37.9031 7.42197 37.4428ZM5.49305 40.7901C5.49305 40.3299 5.86615 39.9568 6.32639 39.9568H43.6711C44.1313 39.9568 44.5044 40.3299 44.5044 40.7901C44.5044 41.2503 44.1313 41.6234 43.6711 41.6234H6.32639C5.86615 41.6234 5.49305 41.2503 5.49305 40.7901ZM3.33984 44.1374C3.33984 43.6771 3.71294 43.3041 4.17318 43.3041H45.8243C46.2845 43.3041 46.6576 43.6771 46.6576 44.1374C46.6576 44.5976 46.2845 44.9707 45.8243 44.9707H4.17318C3.71294 44.9707 3.33984 44.5976 3.33984 44.1374Z" fill="#1B284B"/>
<path id="Vector (Stroke)_2" fill-rule="evenodd" clip-rule="evenodd" d="M9.87891 37.4543V19.1765H11.5456V37.4543H9.87891ZM14.1853 37.4543V19.1765H15.852V37.4543H14.1853ZM21.6879 37.4543V19.1765H23.3546V37.4543H21.6879ZM25.9943 37.4543V19.1765H27.661V37.4543H25.9943ZM33.4969 37.4543V19.1765H35.1636V37.4543H33.4969ZM37.8033 37.4543V19.1765H39.47V37.4543H37.8033Z" fill="#38BB9F"/>
</g>
</svg>
