<svg width="60" height="60" viewBox="0 0 60 60" fill="none" xmlns="http://www.w3.org/2000/svg">
<g id="Icons">
<path id="Vector" d="M28.6385 48.5768C28.6428 47.9732 28.4209 47.5855 27.7741 47.442C27.7741 44.7906 27.7927 42.1803 27.7698 39.57C27.7426 36.5976 26.4388 34.3153 23.8742 32.7844C21.4427 31.3344 18.9826 29.9284 16.5439 28.4869C16.3522 28.3733 16.1704 28.156 16.0974 27.9473C14.8595 24.4352 13.6344 20.9174 12.4151 17.3982C11.8412 15.738 10.2183 14.724 8.52814 14.991C6.89807 15.248 5.7274 16.6824 5.69305 18.4377C5.68876 18.6053 5.6172 18.834 5.49412 18.9277C4.10449 19.9815 3.72953 21.3306 4.18177 22.9852C5.37105 27.3309 6.5503 31.6781 7.69521 36.0352C7.99718 37.1827 8.56105 38.1029 9.45837 38.8755C11.2401 40.4093 12.9833 41.9886 14.7507 43.5408C15.3389 44.0578 15.731 44.6727 15.764 45.4623C15.7912 46.1184 15.7697 46.7746 15.7697 47.4207C15.0355 47.709 14.9182 47.8709 14.9167 48.6066C14.9153 50.7028 14.9153 52.7975 14.9182 54.8937C14.9182 55.699 15.2087 55.9972 16.003 55.9972C19.8427 56 23.6824 56 27.5222 55.9972C28.3308 55.9972 28.6285 55.7075 28.6299 54.9164C28.6342 52.8032 28.6213 50.69 28.6385 48.5768ZM8.76284 16.6867C9.61866 16.5347 10.4874 17.0758 10.7979 17.9662C11.3918 19.6719 11.9786 21.3804 12.5711 23.086C13.1292 24.6922 13.6931 26.2956 14.2656 27.9373C13.9021 28.0481 13.5514 28.1546 13.1579 28.2739C13.102 28.139 13.0348 28.0026 12.989 27.8606C12.2906 25.7218 11.5493 23.5972 10.9153 21.4414C10.39 19.6591 9.35676 18.5329 7.44906 18.344C7.44906 17.5132 8.00577 16.8216 8.76284 16.6867ZM15.8384 42.22C14.0509 40.6649 12.2935 39.0758 10.5088 37.5178C9.95212 37.0321 9.59147 36.4626 9.3997 35.7469C8.21758 31.3259 7.01113 26.9119 5.83044 22.4923C5.73312 22.1274 5.69735 21.7113 5.76747 21.3448C5.90915 20.6035 6.5775 20.0965 7.2902 20.0809C8.12026 20.0624 8.81293 20.5652 9.08771 21.4073C9.67877 23.2095 10.2612 25.016 10.8466 26.8211C10.994 27.2769 11.1142 27.7442 11.2945 28.1858C11.6065 28.957 11.6981 29.6657 11.3875 30.5135C10.8895 31.8712 11.5078 33.4064 12.7643 34.1747C14.4201 35.1887 16.1175 36.1346 17.8048 37.0932C18.2785 37.3616 18.7679 37.2139 19.0041 36.7836C19.2431 36.3519 19.1143 35.896 18.6234 35.6091C17.0534 34.6917 15.4734 33.797 13.9006 32.8838C13.0806 32.408 12.7715 31.6355 13.0491 30.8075C13.3983 29.7679 14.5776 29.3447 15.5951 29.9284C17.5572 31.0546 19.5064 32.2021 21.4613 33.3411C22.0467 33.6819 22.642 34.0057 23.2102 34.3721C25.0549 35.5622 26.0224 37.2665 26.0524 39.4479C26.0868 41.9871 26.0596 44.5264 26.061 47.0671V47.4491H17.4885C17.4885 46.9222 17.4785 46.3968 17.4899 45.8727C17.5228 44.3915 16.9604 43.1943 15.8384 42.22ZM26.8939 54.266H16.6742V49.2158H26.8939V54.266Z" fill="#1B284B"/>
<path id="Vector_2" d="M53.5501 18.9788C53.4099 18.8695 53.2925 18.6436 53.2868 18.4675C53.231 16.6554 52.0732 15.2338 50.4274 14.9881C48.7 14.7296 47.1429 15.7394 46.5461 17.4663C45.3354 20.9685 44.1132 24.4664 42.8753 27.9586C42.7966 28.1801 42.5891 28.4031 42.383 28.5252C39.9758 29.9468 37.5486 31.3358 35.1443 32.7616C32.5382 34.3068 31.2258 36.6075 31.2058 39.6254C31.1943 41.3821 31.2029 43.1403 31.2029 44.8971V47.442C30.5589 47.584 30.3342 47.9689 30.34 48.5725C30.3571 50.6843 30.3442 52.7975 30.3471 54.9093C30.3485 55.7074 30.6405 55.9972 31.4476 55.9972C35.286 56 39.1243 56 42.9611 55.9972C43.7654 55.9972 44.0588 55.706 44.0603 54.9065C44.0631 52.7947 44.0502 50.6814 44.0674 48.5696C44.0717 47.9632 43.8413 47.5826 43.203 47.442C43.203 46.9506 43.2302 46.5061 43.1987 46.0659C43.1157 44.9226 43.5808 44.0705 44.4467 43.332C46.2342 41.8067 47.973 40.2247 49.739 38.6738C50.383 38.1072 50.8882 37.4468 51.1129 36.6203C52.3766 31.9663 53.6389 27.3124 54.8668 22.65C55.2589 21.163 54.7695 19.9317 53.5501 18.9788ZM45.8478 24.6964C46.6349 22.4398 47.4177 20.1803 48.2091 17.9236C48.5183 17.0431 49.3555 16.5347 50.2084 16.6866C50.9669 16.823 51.5208 17.5047 51.5294 18.2062C50.8596 18.486 50.1927 18.6863 49.6073 19.0271C48.8932 19.4446 48.4939 20.1462 48.242 20.933C47.495 23.2592 46.7351 25.5826 45.978 27.906C45.9408 28.0225 45.8935 28.1361 45.8406 28.2767C45.4456 28.1603 45.1064 28.0623 44.7114 27.9458C45.0935 26.8537 45.4714 25.7758 45.8478 24.6964ZM42.3229 54.266H32.1031V49.2158H42.3229V54.266ZM53.1695 22.3901C51.9616 26.8949 50.7637 31.4039 49.5086 35.896C49.3512 36.4569 48.9633 37.0264 48.5283 37.4283C46.7651 39.0615 44.9519 40.6422 43.1357 42.2186C42.0123 43.1928 41.4542 44.3929 41.4885 45.8727C41.5 46.384 41.4899 46.8967 41.4899 47.4491H32.9174V46.9066C32.9174 44.4909 32.9146 42.0766 32.9189 39.6609C32.9217 37.2579 33.955 35.4301 36.0402 34.2074C38.4846 32.7758 40.9332 31.3528 43.3819 29.9284C44.0259 29.5549 44.6756 29.5478 45.2968 29.9738C45.8864 30.3786 46.0853 30.9637 45.9937 31.6511C45.9107 32.2688 45.5057 32.6509 44.9876 32.9477C43.4864 33.804 41.9837 34.6576 40.4953 35.5338C40.2635 35.6702 39.9686 35.8988 39.9357 36.1189C39.8928 36.4058 40.0058 36.7907 40.1933 37.0151C40.4581 37.3318 40.8588 37.2792 41.2209 37.069C42.8567 36.126 44.5211 35.2271 46.1182 34.2244C46.6334 33.9006 47.0699 33.3595 47.3791 32.8241C47.8928 31.9294 47.8642 30.9395 47.442 30.0022C47.2889 29.6614 47.2875 29.3816 47.3977 29.0436C48.2306 26.5171 49.0492 23.9864 49.875 21.457C50.207 20.4416 51.1544 19.8678 52.056 20.1292C53.0034 20.4061 53.46 21.3107 53.1695 22.3901Z" fill="#1B284B"/>
<path id="Vector_3" d="M44.0732 12.6832C43.6997 7.96676 38.9798 4.31122 34.2857 5.10936C32.4538 5.42038 30.8667 6.19296 29.4956 7.50804C29.321 7.35466 29.188 7.23821 29.0549 7.12175C26.453 4.84663 22.6348 4.37371 19.5478 5.94443C14.3929 8.56892 13.2379 15.3659 17.2995 19.4872C21.0247 23.2663 24.8158 26.9815 28.5783 30.7237C29.3325 31.4735 29.6473 31.475 30.3987 30.7279C34.0739 27.0738 37.7433 23.4155 41.4242 19.767C43.402 17.8058 44.2936 15.461 44.0732 12.6832ZM40.5383 18.1991C36.9447 21.8561 33.2796 25.442 29.6459 29.0578C29.6087 29.0947 29.5615 29.1203 29.4756 29.1814C29.3726 29.0876 29.2924 29.0181 29.218 28.9442C25.6831 25.4307 22.1353 21.9285 18.6176 18.3965C15.4261 15.1912 16.0473 10.0516 19.877 7.71681C22.4988 6.11911 25.8949 6.47983 28.1404 8.5959C28.3994 8.84017 28.6384 9.10716 28.9089 9.33865C29.2853 9.66245 29.6917 9.66103 30.0695 9.33865C30.3515 9.0958 30.6033 8.81603 30.8767 8.56181C33.5787 6.0552 37.7977 6.13047 40.4066 8.7294C43.0113 11.3255 43.1172 15.5747 40.5383 18.1991Z" fill="#38BB9F"/>
<path id="Vector_4" d="M33.1724 14.227C32.806 14.2312 32.4411 14.227 32.0604 14.227C32.0604 13.3763 32.0647 12.6137 32.0589 11.851C32.0532 11.1225 31.7484 10.8214 31.0128 10.8171C30.0124 10.8129 29.0135 10.8143 28.0145 10.8171C27.2088 10.82 26.9226 11.1069 26.9183 11.9093C26.9154 12.6662 26.9183 13.4232 26.9183 14.227C26.0796 14.227 25.2982 14.2213 24.5168 14.2284C23.8099 14.2341 23.4964 14.5366 23.4907 15.2268C23.4836 16.2564 23.4836 17.2846 23.4907 18.3143C23.495 19.0357 23.8056 19.3339 24.5455 19.3396C25.3111 19.3453 26.0768 19.341 26.9183 19.341C26.9183 20.1846 26.9126 20.9629 26.9197 21.7397C26.9269 22.4342 27.236 22.7438 27.9373 22.7481C28.9362 22.7566 29.9351 22.7523 30.9355 22.7495C31.7741 22.7481 32.0561 22.4654 32.0604 21.6318C32.0632 20.8763 32.0604 20.1207 32.0604 19.341C32.8847 19.341 33.6332 19.3439 34.3802 19.3396C35.1888 19.3368 35.4836 19.0485 35.4879 18.2589C35.4922 17.6908 35.4836 17.1227 35.4908 16.5547C35.518 14.1333 35.5924 14.1957 33.1724 14.2256V14.227ZM33.742 17.6383C32.9663 17.6383 32.2035 17.6354 31.4421 17.6383C30.6392 17.6425 30.3516 17.928 30.3473 18.729C30.343 19.4731 30.3459 20.2173 30.3459 21.0041H28.6314C28.6314 20.2656 28.6342 19.51 28.6314 18.7559C28.6285 17.9223 28.3451 17.6411 27.5079 17.6383C26.7623 17.6354 26.0152 17.6383 25.2267 17.6383V15.9326C26.011 15.9326 26.7723 15.9355 27.5337 15.9326C28.3365 15.9284 28.6271 15.6401 28.6314 14.8419C28.6342 14.0978 28.6314 13.3536 28.6314 12.5668H30.3459C30.3459 13.3067 30.3444 14.0622 30.3473 14.8164C30.3502 15.65 30.6321 15.9298 31.4707 15.9326C32.2178 15.9355 32.9634 15.9326 33.742 15.9326V17.6383Z" fill="#38BB9F"/>
</g>
</svg>
