<svg width="60" height="49" viewBox="0 0 60 49" fill="none" xmlns="http://www.w3.org/2000/svg">
<g id="Layer_1" clip-path="url(#clip0_319_636)">
<path id="Vector" d="M49.5549 45.4326H31.5542V11.9278C33.7857 11.3417 35.5203 9.49439 35.9499 7.18525L48.5309 2.94439C49.3181 2.67949 49.7407 1.8285 49.4783 1.03144C49.2159 0.246095 48.373 -0.189947 47.5835 0.0749603L35.7339 4.06966C34.9212 1.7066 32.6897 -5.75725e-05 30.0658 -5.75725e-05C26.7568 -5.75725e-05 24.0655 2.717 24.0655 6.05763C24.0655 6.70232 24.1584 7.32591 24.3465 7.90261L11.5867 12.1997C10.7995 12.4646 10.3769 13.3156 10.6393 14.1127C10.9017 14.9074 11.7446 15.3341 12.5341 15.0692L26.0068 10.5353C26.7197 11.1893 27.5904 11.6816 28.5564 11.9254V46.9471C28.5564 47.7793 29.2321 48.4615 30.0565 48.4615H49.5572C50.3816 48.4615 51.0573 47.7793 51.0573 46.9471C51.0573 46.1148 50.3816 45.4326 49.5572 45.4326H49.5549ZM27.0657 6.05998C27.0657 4.38849 28.4101 3.03113 30.0658 3.03113C31.7214 3.03113 33.0659 4.38849 33.0659 6.05998C33.0659 7.73147 31.7214 9.08883 30.0658 9.08883C28.4101 9.08883 27.0657 7.73147 27.0657 6.05998Z" fill="#1B284B"/>
<path id="Vector_2" d="M58.9012 23.1805L50.2771 8.87087C49.7987 8.06677 48.9279 7.57446 47.9991 7.57446C47.0703 7.57446 46.1995 8.06677 45.7212 8.86149L37.097 23.1711C36.3748 24.355 36.001 25.7171 36.001 27.1096V27.262C36.001 32.2788 41.3719 36.3485 48.0014 36.3485C54.631 36.3485 60.0019 32.2788 60.0019 27.262V27.119C60.0019 25.7288 59.6164 24.3644 58.9059 23.1805H58.9012ZM47.9991 10.9151L56.0335 24.2308H39.9648L47.9991 10.9151ZM54.6844 31.2637C53.0821 32.4757 50.7276 33.3173 47.9991 33.3173C45.2707 33.3173 42.9184 32.4757 41.3139 31.2637C39.7116 30.0517 38.9988 28.6053 38.9988 27.2596H56.9995C56.9995 28.6029 56.2866 30.0517 54.6844 31.2637Z" fill="#38BB9F"/>
<path id="Vector_3" d="M22.9026 35.2865L14.2784 20.9768C13.8001 20.1727 12.9293 19.6804 12.0005 19.6804C11.0716 19.6804 10.2101 20.1727 9.72251 20.9768L1.09602 35.2865C0.373853 36.4704 0 37.8324 0 39.2249V39.3773C0 44.3941 5.37095 48.4638 12.0005 48.4638C18.63 48.4638 24.0009 44.3941 24.0009 39.3773V39.2249C24.0009 37.8347 23.6155 36.4704 22.9049 35.2865H22.9026ZM12.0005 23.0304L20.0348 36.3461H3.9661L12.0005 23.0304ZM18.6857 43.379C17.0835 44.591 14.7289 45.4326 12.0005 45.4326C9.27203 45.4326 6.91977 44.591 5.31522 43.379C3.71299 42.167 3.00012 40.7206 3.00012 39.375H21.0008C21.0008 40.7182 20.2879 42.167 18.6857 43.379Z" fill="#38BB9F"/>
</g>
<defs>
<clipPath id="clip0_319_636">
<rect width="60" height="48.4615" fill="white"/>
</clipPath>
</defs>
</svg>
