<svg width="55" height="55" viewBox="0 0 55 55" fill="none" xmlns="http://www.w3.org/2000/svg">
<g id="Group 1407">
<path id="Vector (Stroke)" fill-rule="evenodd" clip-rule="evenodd" d="M21.7256 15.5788C14.9087 18.988 12.1462 27.2778 15.5554 34.0946C18.9646 40.9114 27.2544 43.6739 34.0712 40.2648C40.888 36.8556 43.6505 28.5658 40.2414 21.749C36.8322 14.9321 28.5424 12.1696 21.7256 15.5788ZM13.7666 34.9892C9.8634 27.1844 13.0262 17.6932 20.831 13.79C28.6357 9.8868 38.1269 13.0496 42.0301 20.8544C45.9334 28.6591 42.7705 38.1503 34.9658 42.0535C27.161 45.9568 17.6698 42.7939 13.7666 34.9892Z" fill="#1B284B"/>
<path id="Vector (Stroke)_2" fill-rule="evenodd" clip-rule="evenodd" d="M23.96 27.9371C23.96 25.7667 25.7238 24.0029 27.8942 24.0029C30.0646 24.0029 31.8284 25.7667 31.8284 27.9371C31.8284 28.6927 31.6146 29.3989 31.2444 29.9986L34.7977 33.1911C35.2085 33.5602 35.2423 34.1925 34.8732 34.6033C34.5041 35.0142 33.8718 35.048 33.461 34.6788L29.7925 31.3828C29.2294 31.6941 28.5822 31.8713 27.8942 31.8713C25.7238 31.8713 23.96 30.1075 23.96 27.9371ZM27.8942 26.0029C26.8283 26.0029 25.96 26.8713 25.96 27.9371C25.96 29.003 26.8283 29.8713 27.8942 29.8713C28.96 29.8713 29.8284 29.003 29.8284 27.9371C29.8284 26.8713 28.96 26.0029 27.8942 26.0029Z" fill="#38BB9F"/>
<path id="Vector (Stroke)_3" fill-rule="evenodd" clip-rule="evenodd" d="M25.0372 1.60911C25.1326 1.14397 25.5419 0.810059 26.0168 0.810059H29.8571C30.3457 0.810059 30.7627 1.1631 30.8434 1.64497L31.5742 6.01128C32.83 6.26876 34.3326 6.68801 35.5578 7.06788L38.5357 3.69415C38.8507 3.33727 39.3736 3.25191 39.7858 3.4901L43.1083 5.41028C43.5312 5.65467 43.7157 6.16879 43.5446 6.62629L42.001 10.7551C42.9767 11.6112 44.0779 12.7415 44.9546 13.6865L49.2148 12.2538C49.6658 12.1022 50.1613 12.2893 50.3994 12.7013L52.3195 16.0239C52.5635 16.446 52.4675 16.9825 52.0922 17.2938L48.7046 20.1044C49.1156 21.3257 49.5102 22.8598 49.7917 24.1305L54.1965 25.0152C54.6635 25.1091 54.9996 25.5193 54.9996 25.9957V29.836C54.9996 30.3246 54.6465 30.7416 54.1647 30.8223L49.8298 31.5479C49.5733 32.8133 49.1481 34.3388 48.7633 35.5798L52.1371 38.5577C52.4939 38.8728 52.5793 39.3957 52.3411 39.8078L50.4209 43.1304C50.1765 43.5533 49.6624 43.7377 49.2049 43.5667L45.0761 42.023C44.22 42.9988 43.0897 44.1 42.1447 44.9767L43.5774 49.2369C43.729 49.6879 43.5419 50.1833 43.1299 50.4214L39.8074 52.3416C39.3843 52.5861 38.8466 52.4891 38.5357 52.1122L35.7249 48.7058C34.5039 49.1165 32.9708 49.5109 31.7007 49.7921L30.816 54.197C30.7222 54.664 30.3119 55.0001 29.8355 55.0001H25.9952C25.5066 55.0001 25.0896 54.647 25.0089 54.1651L24.2835 49.8315C23.0214 49.5791 21.4972 49.1649 20.2471 48.7687L17.2735 52.1375C16.9584 52.4944 16.4355 52.5798 16.0234 52.3416L12.7008 50.4214C12.2779 50.177 12.0935 49.6629 12.2645 49.2054L13.8082 45.0766C12.8324 44.2205 11.7312 43.0902 10.8545 42.1452L6.59435 43.5779C6.14332 43.7295 5.64789 43.5424 5.40979 43.1304L3.48961 39.8078C3.24566 39.3857 3.34168 38.8492 3.71691 38.5379L7.10452 35.7273C6.69355 34.506 6.29893 32.9719 6.01749 31.7012L1.61265 30.8164C1.1456 30.7226 0.80957 30.3124 0.80957 29.836V25.9957C0.80957 25.5071 1.16261 25.09 1.64448 25.0094L5.97934 24.2838C6.23588 23.0184 6.66106 21.4929 7.04582 20.2519L3.67209 17.2739C3.3152 16.9589 3.22985 16.436 3.46804 16.0239L5.38822 12.7013C5.63261 12.2784 6.14673 12.094 6.60423 12.265L10.7331 13.8087C11.5903 12.8319 12.7238 11.7298 13.6843 10.8499L12.2533 6.59483C12.1017 6.14381 12.2888 5.64838 12.7008 5.41028L16.0234 3.4901C16.4455 3.24614 16.982 3.34217 17.2933 3.71739L20.104 7.10501C21.3261 6.69373 22.8616 6.29882 24.1329 6.01734L25.0372 1.60911ZM29.665 6.72001L29.0106 2.81006H26.8325L25.9608 7.05956C25.8804 7.4514 25.5742 7.75764 25.1824 7.83815C23.6259 8.15799 21.4665 8.70594 20.1406 9.21591C19.7401 9.36995 19.2859 9.25132 19.012 8.92109L16.2932 5.64414L14.4097 6.73263L15.7887 10.8333C15.9163 11.2126 15.8054 11.6315 15.5069 11.898C14.3063 12.97 12.719 14.4991 11.8246 15.6171C11.5546 15.9546 11.0983 16.0804 10.6935 15.9291L6.69643 14.4347L5.60914 16.3161L8.85754 19.1834C9.15609 19.4469 9.26983 19.8624 9.14711 20.2413C8.65452 21.7619 8.04875 23.9024 7.82408 25.3117C7.75645 25.7359 7.42537 26.0696 7.00164 26.1405L2.80957 26.8422V29.0169L7.05505 29.8696C7.44868 29.9487 7.75685 30.2555 7.83766 30.6488C8.15751 32.2053 8.70545 34.3647 9.21543 35.6907C9.36946 36.0911 9.25083 36.5453 8.9206 36.8192L5.64366 39.538L6.73214 41.4215L10.8328 40.0425C11.209 39.916 11.6245 40.0239 11.8915 40.3176C12.9688 41.5026 14.4976 43.0898 15.6166 43.9851C15.9541 44.2551 16.0799 44.7113 15.9286 45.1161L14.4342 49.1132L16.3156 50.2005L19.1829 46.9521C19.4495 46.6501 19.8712 46.5375 20.2528 46.6665C21.7547 47.1742 23.8976 47.7602 25.3112 47.9855C25.7355 48.0532 26.0691 48.3843 26.14 48.808L26.8417 53.0001H29.0164L29.8691 48.7546C29.9482 48.361 30.255 48.0528 30.6483 47.972C32.2049 47.6521 34.3642 47.1042 35.6902 46.5942C36.0916 46.4398 36.5467 46.5594 36.8205 46.8911L39.5395 50.1864L41.421 49.0991L40.042 44.9984C39.9155 44.6222 40.0234 44.2067 40.3172 43.9397C41.5021 42.8624 43.0894 41.3336 43.9846 40.2146C44.2546 39.8771 44.7108 39.7513 45.1157 39.9026L49.1127 41.397L50.2 39.5156L46.9516 36.6483C46.6531 36.3848 46.5393 35.9693 46.662 35.5904C47.1546 34.0698 47.7604 31.9293 47.9851 30.52C48.0527 30.0957 48.3838 29.7621 48.8075 29.6912L52.9996 28.9895V26.8148L48.7541 25.9621C48.3605 25.883 48.0523 25.5762 47.9715 25.1829C47.6516 23.6264 47.1037 21.467 46.5937 20.141C46.4397 19.7406 46.5583 19.2864 46.8885 19.0125L50.1655 16.2937L49.077 14.4102L44.9763 15.7892C44.6001 15.9157 44.1847 15.8078 43.9176 15.5141C42.8404 14.3291 41.3116 12.7418 40.1925 11.8466C39.855 11.5766 39.7292 11.1204 39.8806 10.7155L41.375 6.71849L39.4936 5.6312L36.6263 8.8796C36.3627 9.17815 35.9472 9.29189 35.5684 9.16917C34.0478 8.67659 31.9072 8.07082 30.498 7.84615C29.9588 7.7602 29.5895 7.25833 29.665 6.72001Z" fill="#1B284B"/>
<path id="Vector (Stroke)_4" fill-rule="evenodd" clip-rule="evenodd" d="M27.8426 15.8484C28.3948 15.844 28.8461 16.2881 28.8506 16.8404L28.9153 24.9094C28.9197 25.4617 28.4756 25.913 27.9233 25.9174C27.3711 25.9218 26.9198 25.4777 26.9153 24.9255L26.8506 16.8564C26.8462 16.3041 27.2903 15.8529 27.8426 15.8484Z" fill="#38BB9F"/>
</g>
</svg>
