<svg width="55" height="51" viewBox="0 0 55 51" fill="none" xmlns="http://www.w3.org/2000/svg">
<g id="Layer_1" clip-path="url(#clip0_1274_444)">
<path id="Vector" d="M47.243 29.3766L50.605 25.9482C56.406 20.0325 53.5495 12.0554 48.8691 6.92401C47.3309 5.24343 45.573 3.76452 43.7492 2.73376C41.3761 1.36689 33.927 -0.604989 29.0489 4.21267L18.941 14.4754C16.2163 17.2316 23.094 19.9205 26.5878 16.4249L29.1368 13.8704C32.8943 10.3972 37.6186 17.366 43.5075 12.6156" stroke="#38BB9F" stroke-width="2" stroke-miterlimit="10"/>
<path id="Vector_2" d="M29.3567 40.6253L32.7186 44.0761C35.4214 46.8547 40.695 42.8885 37.3111 39.2585M31.4002 32.8499L38.1022 39.8859C40.7829 42.7093 46.2324 38.5414 42.8265 34.9562L36.2783 28.0546M34.5205 16.3802L47.5508 30.2954C50.2096 33.1412 46.2544 38.5414 42.8485 34.9562L36.7398 28.5476M7.88841 27.8081L4.52645 24.3797C-6.70208 12.9518 12.7226 -6.65498 24.105 4.63852L26.3682 6.94651" stroke="#1B284B" stroke-width="2" stroke-linecap="round" stroke-linejoin="round"/>
<path id="Vector_3" d="M29.9065 40.8941L30.258 41.2526C31.4666 42.4851 31.4666 44.5018 30.258 45.7342L27.1598 48.8937C25.9512 50.1261 23.9736 50.1261 22.765 48.8937L22.4134 48.5351C21.2049 47.3027 21.2049 45.286 22.4134 44.0536L25.5117 40.8941C26.7203 39.6617 28.6979 39.6617 29.9065 40.8941ZM26.6544 34.1942L27.0059 34.5527C28.2145 35.7851 28.2145 37.8018 27.0059 39.0343L21.952 44.188C20.7435 45.4205 18.7658 45.4205 17.5573 44.188L17.2057 43.8295C15.9972 42.5971 15.9972 40.5804 17.2057 39.348L22.2596 34.1942C23.4682 32.9618 25.4458 32.9618 26.6544 34.1942ZM23.644 27.1582L23.9956 27.5167C25.2041 28.7491 25.2041 30.7658 23.9956 31.9982L16.6124 39.5272C15.4039 40.7597 13.4262 40.7597 12.2177 39.5272L11.8661 39.1687C10.6576 37.9363 10.6576 35.9196 11.8661 34.6872L19.2492 27.1582C20.4578 25.9257 22.4354 25.9257 23.644 27.1582ZM15.8653 24.9846L16.2169 25.3431C17.4254 26.5756 17.4254 28.5923 16.2169 29.8247L11.5805 34.5527C10.3719 35.7851 8.39427 35.7851 7.18572 34.5527L6.83415 34.1942C5.6256 32.9618 5.6256 30.9451 6.83415 29.7127L11.4706 24.9846C12.6791 23.7522 14.6568 23.7522 15.8653 24.9846Z" stroke="#38BB9F" stroke-width="2" stroke-miterlimit="10"/>
</g>
<defs>
<clipPath id="clip0_1274_444">
<rect width="55" height="51" fill="white"/>
</clipPath>
</defs>
</svg>
