<svg width="461" height="285" viewBox="0 0 461 285" fill="none" xmlns="http://www.w3.org/2000/svg">
<g clip-path="url(#clip0_252_1176)">
<path fill-rule="evenodd" clip-rule="evenodd" d="M279.526 106.96L289.979 137.075H326.347L315.424 106.966L279.526 106.96Z" fill="#E3E1FF"/>
<path fill-rule="evenodd" clip-rule="evenodd" d="M204.888 206.125L216.498 239.553H252.866L240.792 206.125H204.888Z" fill="#E3E1FF"/>
<path fill-rule="evenodd" clip-rule="evenodd" d="M98.0935 106.96L108.603 136.888L144.599 137.07L133.59 106.96H98.0935Z" fill="#E3E1FF"/>
<path fill-rule="evenodd" clip-rule="evenodd" d="M244.245 171.181H265.421L277.335 205.464H241.071L235.614 190.088C240.134 184.674 243.115 178.143 244.245 171.181Z" fill="#38BB9F"/>
<path fill-rule="evenodd" clip-rule="evenodd" d="M244.245 171.181H265.421L277.335 205.464H241.071L235.614 190.088C240.134 184.674 243.115 178.143 244.245 171.181Z" stroke="#653494" stroke-width="2" stroke-linecap="round" stroke-linejoin="round"/>
<path d="M362.83 136.902H232.849" stroke="#653494" stroke-width="2" stroke-linecap="round" stroke-linejoin="round"/>
<path d="M175.264 136.902H108.607" stroke="#653494" stroke-width="2" stroke-linecap="round" stroke-linejoin="round"/>
<path d="M374.716 171.184H244.245" stroke="#653494" stroke-width="2" stroke-linecap="round" stroke-linejoin="round"/>
<path d="M160.497 171.184H120.646" stroke="#653494" stroke-width="2" stroke-linecap="round" stroke-linejoin="round"/>
<path d="M359.792 205.466H209.708" stroke="#653494" stroke-width="2" stroke-linecap="round" stroke-linejoin="round"/>
<path d="M189.861 205.466H132.684" stroke="#653494" stroke-width="2" stroke-linecap="round" stroke-linejoin="round"/>
<path d="M326.94 239.749H144.723" stroke="#653494" stroke-width="2" stroke-linecap="round" stroke-linejoin="round"/>
<path d="M376.521 239.749H372.25" stroke="#653494" stroke-width="2" stroke-linecap="round" stroke-linejoin="round"/>
<path d="M133.56 106.96L192.227 274.031" stroke="#653494" stroke-width="2" stroke-linecap="round" stroke-linejoin="round"/>
<path d="M174.636 120.176L179.516 134.072" stroke="#653494" stroke-width="2" stroke-linecap="round" stroke-linejoin="round"/>
<path d="M205.026 206.718L228.663 274.031" stroke="#653494" stroke-width="2" stroke-linecap="round" stroke-linejoin="round"/>
<path d="M206.433 106.96L213.356 126.677" stroke="#653494" stroke-width="2" stroke-linecap="round" stroke-linejoin="round"/>
<path d="M235.622 190.083L265.1 274.03" stroke="#653494" stroke-width="2" stroke-linecap="round" stroke-linejoin="round"/>
<path d="M242.869 106.96L300.238 270.332" stroke="#653494" stroke-width="2" stroke-linecap="round" stroke-linejoin="round"/>
<path d="M279.306 106.96L303.97 177.197" stroke="#653494" stroke-width="2" stroke-linecap="round" stroke-linejoin="round"/>
<path d="M310.087 194.614L326.265 240.684" stroke="#653494" stroke-width="2" stroke-linecap="round" stroke-linejoin="round"/>
<path d="M315.744 106.96L341.928 181.528" stroke="#653494" stroke-width="2" stroke-linecap="round" stroke-linejoin="round"/>
<path d="M348.996 201.654L352.907 212.79" stroke="#653494" stroke-width="2" stroke-linecap="round" stroke-linejoin="round"/>
<path d="M366.074 250.29L374.411 274.031" stroke="#653494" stroke-width="2" stroke-linecap="round" stroke-linejoin="round"/>
<path fill-rule="evenodd" clip-rule="evenodd" d="M34.4409 154.17C34.4405 153.143 34.0325 152.159 33.3066 151.433C32.5808 150.707 31.5963 150.299 30.5698 150.299H3.87241C2.84584 150.299 1.86143 150.707 1.13554 151.433C0.409648 152.159 0.00169392 153.143 0.00134277 154.17V191.652C0.00134277 192.678 0.409182 193.663 1.13515 194.389C1.86111 195.115 2.84573 195.523 3.87241 195.523H21.2604L34.6197 157.253C34.6197 157.253 34.4409 155.337 34.4409 154.17Z" fill="#F2F4FF"/>
<path fill-rule="evenodd" clip-rule="evenodd" d="M120.855 59.4371C120.965 59.2689 113.402 59.4689 110.366 59.3206C105.807 68.0004 115.315 67.8428 120.855 59.4371Z" fill="#E3E1FF"/>
<path d="M386.227 169.476L347.633 59.5684H167.113" stroke="#1B284B" stroke-width="2" stroke-linecap="round" stroke-linejoin="round"/>
<path d="M137.637 62.4325C137.637 62.4325 138.047 65.7802 138.157 66.6824C138.175 66.83 138.179 66.979 138.171 67.1275C138.121 68.0058 137.936 71.2714 137.83 73.1274C137.823 73.2486 137.783 73.3656 137.713 73.4651C137.643 73.5646 137.547 73.6426 137.436 73.6903C137.324 73.738 137.201 73.7534 137.081 73.735C136.961 73.7165 136.849 73.6648 136.756 73.5857C136.549 73.4083 136.379 73.1906 136.258 72.9458C136.137 72.7011 136.067 72.4343 136.052 72.1616L135.878 69.0365L133.166 62.826C133.099 62.6717 132.981 62.5454 132.831 62.4683L126.635 59.2729L126.648 59.3233L110.267 59.4399" stroke="#1B284B" stroke-width="2" stroke-linecap="round" stroke-linejoin="round"/>
<path d="M69.4924 57.1147L125.581 219.292" stroke="#1B284B" stroke-width="2" stroke-linecap="round" stroke-linejoin="round"/>
<path d="M112.819 264.857L77.2783 240.52L24.4399 280.945L69.1983 57.5439" stroke="#1B284B" stroke-width="2" stroke-linecap="round" stroke-linejoin="round"/>
<path d="M375.982 174.355L352.311 106.96L186.874 107.053" stroke="#1B284B" stroke-width="2" stroke-linecap="round" stroke-linejoin="round"/>
<path d="M164.161 107.047L98.0935 106.96L156.762 274.031H294.012" stroke="#1B284B" stroke-width="2" stroke-linecap="round" stroke-linejoin="round"/>
<path d="M156.761 274.031H294.005" stroke="#1B284B" stroke-width="2" stroke-linecap="round" stroke-linejoin="round"/>
<path d="M346.398 274.031H405.499" stroke="#1B284B" stroke-width="2" stroke-linecap="round" stroke-linejoin="round"/>
<path d="M96.105 110.507L132.93 215.377" stroke="#653494" stroke-width="2" stroke-linecap="round" stroke-linejoin="round"/>
<path fill-rule="evenodd" clip-rule="evenodd" d="M180.005 239.75C181.523 245.842 181.393 252.228 179.628 258.253C177.862 264.277 174.525 269.724 169.959 274.032H156.761L144.871 240.174L180.005 239.75ZM287.578 77.9177C288.359 77.9424 289.113 78.2071 289.737 78.6758C290.362 79.1445 290.826 79.7943 291.068 80.5368C291.174 80.8502 291.201 81.1853 291.145 81.5116C291.09 81.8379 290.953 82.1451 290.748 82.4053C290.544 82.6655 290.277 82.8704 289.973 83.0015C289.669 83.1326 289.338 83.1856 289.008 83.1559C288.227 83.1312 287.474 82.8665 286.849 82.3978C286.225 81.9291 285.76 81.2793 285.518 80.5368C285.412 80.2236 285.385 79.8888 285.441 79.5627C285.496 79.2367 285.633 78.9297 285.837 78.6695C286.041 78.4094 286.307 78.2044 286.611 78.0731C286.915 77.9418 287.246 77.8884 287.576 77.9177H287.578Z" fill="#653494"/>
<path fill-rule="evenodd" clip-rule="evenodd" d="M287.574 77.9177C288.355 77.9424 289.108 78.2072 289.732 78.6759C290.357 79.1446 290.821 79.7944 291.063 80.5368C291.169 80.8502 291.196 81.1853 291.14 81.5116C291.084 81.8379 290.948 82.1451 290.743 82.4053C290.539 82.6655 290.272 82.8704 289.968 83.0015C289.664 83.1326 289.332 83.1856 289.003 83.1559C288.222 83.1312 287.469 82.8664 286.844 82.3977C286.22 81.929 285.756 81.2791 285.514 80.5368C285.408 80.2234 285.381 79.8883 285.437 79.562C285.493 79.2357 285.629 78.9285 285.834 78.6683C286.038 78.4081 286.305 78.2032 286.609 78.0721C286.913 77.941 287.245 77.8879 287.574 77.9177Z" stroke="#653494" stroke-width="2" stroke-linecap="round" stroke-linejoin="round"/>
<path d="M262.394 59.5272C262.197 58.2961 262.098 57.0513 262.098 55.8046C262.098 42.1595 273.835 31.0725 288.29 31.0725C302.745 31.0725 314.48 42.1542 314.48 55.8046C314.48 69.455 302.743 80.5367 288.29 80.5367" stroke="#1B284B" stroke-width="2" stroke-linecap="round" stroke-linejoin="round"/>
<path fill-rule="evenodd" clip-rule="evenodd" d="M184.182 78.1588C184.926 78.1973 185.64 78.4674 186.223 78.9312C186.806 79.3951 187.23 80.0296 187.435 80.746C187.542 81.0461 187.573 81.3679 187.526 81.6829C187.479 81.9979 187.355 82.2965 187.165 82.5522C186.975 82.808 186.726 83.013 186.438 83.1492C186.15 83.2855 185.833 83.3487 185.514 83.3333C184.77 83.2948 184.057 83.0247 183.473 82.5608C182.89 82.097 182.466 81.4625 182.261 80.746C182.154 80.4459 182.123 80.1242 182.17 79.8091C182.217 79.4941 182.341 79.1956 182.531 78.9398C182.721 78.6841 182.971 78.479 183.259 78.3428C183.546 78.2066 183.864 78.1434 184.182 78.1588Z" fill="#653494"/>
<path fill-rule="evenodd" clip-rule="evenodd" d="M184.182 78.1588C184.926 78.1973 185.64 78.4674 186.223 78.9312C186.806 79.3951 187.23 80.0296 187.435 80.746C187.542 81.0461 187.573 81.3679 187.526 81.6829C187.479 81.9979 187.355 82.2965 187.165 82.5522C186.975 82.808 186.726 83.013 186.438 83.1492C186.15 83.2855 185.833 83.3487 185.514 83.3333C184.77 83.2948 184.057 83.0247 183.473 82.5608C182.89 82.097 182.466 81.4625 182.261 80.746C182.154 80.4459 182.123 80.1242 182.17 79.8091C182.217 79.4941 182.341 79.1956 182.531 78.9398C182.721 78.6841 182.971 78.479 183.259 78.3428C183.546 78.2066 183.864 78.1434 184.182 78.1588Z" stroke="#653494" stroke-width="2" stroke-linecap="round" stroke-linejoin="round"/>
<path d="M108.369 89.9822H155.518" stroke="#1B284B" stroke-width="2" stroke-linecap="round" stroke-linejoin="round"/>
<path d="M177.878 89.9822H202.345" stroke="#1B284B" stroke-width="2" stroke-linecap="round" stroke-linejoin="round"/>
<path fill-rule="evenodd" clip-rule="evenodd" d="M91.4152 87.6851C91.6807 86.9378 92.171 86.291 92.8188 85.8335C93.4666 85.3759 94.2401 85.1301 95.0332 85.1296H121.72C122.599 85.1296 123.466 85.3406 124.246 85.7449C125.027 86.1492 125.7 86.735 126.207 87.4531C126.714 88.1711 127.042 89.0005 127.162 89.8714C127.283 90.7424 127.192 91.6295 126.899 92.4583C126.633 93.2058 126.143 93.8529 125.495 94.3107C124.847 94.7685 124.074 95.0145 123.281 95.0151H96.5938C95.7146 95.0151 94.8482 94.8041 94.0674 94.3998C93.2866 93.9955 92.6143 93.4097 92.1069 92.6916C91.5995 91.9736 91.2718 91.1442 91.1514 90.2733C91.0311 89.4023 91.1215 88.5152 91.4152 87.6865V87.6851Z" stroke="#1B284B" stroke-width="2" stroke-linecap="round" stroke-linejoin="round"/>
<path d="M340.393 73.0054H170.425" stroke="#1B284B" stroke-width="2" stroke-linecap="round" stroke-linejoin="round"/>
<path d="M132.862 73.0054H86.1689" stroke="#1B284B" stroke-width="2" stroke-linecap="round" stroke-linejoin="round"/>
<path fill-rule="evenodd" clip-rule="evenodd" d="M254.033 197.604L263.854 181.663L260.249 179.058L252.392 191.811L245.603 186.909L243.639 190.098L254.033 197.604Z" fill="white"/>
<path fill-rule="evenodd" clip-rule="evenodd" d="M362.341 205.501C346.002 218.518 327.101 240.385 308.451 261.362C311.487 269.389 316.356 273.043 322.056 274.708L323.433 273.346H326.024L331.323 269.557L331.804 267.999L329.221 265.07L362.341 205.501Z" fill="#E3E1FF"/>
<path fill-rule="evenodd" clip-rule="evenodd" d="M307.55 190.311C307.55 190.311 316.219 191.822 316.47 191.817C317.76 199.302 311.209 198.862 307.55 190.311Z" fill="#653494"/>
<path fill-rule="evenodd" clip-rule="evenodd" d="M307.55 190.311C307.55 190.311 316.219 191.822 316.47 191.817C317.76 199.302 311.209 198.862 307.55 190.311Z" stroke="#1B284B" stroke-width="2" stroke-linecap="round" stroke-linejoin="round"/>
<path fill-rule="evenodd" clip-rule="evenodd" d="M450.84 263.184L449.983 249.238C460.547 245.919 464.366 258.652 450.84 263.184Z" fill="#653494"/>
<path fill-rule="evenodd" clip-rule="evenodd" d="M450.84 263.184L449.983 249.238C460.547 245.919 464.366 258.652 450.84 263.184Z" stroke="#1B284B" stroke-width="2" stroke-linecap="round" stroke-linejoin="round"/>
<path fill-rule="evenodd" clip-rule="evenodd" d="M398.483 200.069L395.98 211.812L406.067 221.181L401.897 199.057L398.483 200.069Z" fill="#653494"/>
<path d="M449.984 249.527C449.984 249.527 450.416 256.333 450.893 263.853C451.053 266.378 450.696 268.91 449.844 271.293C448.991 273.676 447.661 275.86 445.935 277.711C444.209 279.562 442.124 281.041 439.806 282.058C437.489 283.075 434.988 283.608 432.457 283.625L426.394 283.666C424.624 283.677 422.863 283.408 421.176 282.871C409.535 279.18 391.633 264.025 379.893 245.531C376.201 239.712 374.28 232.329 371.037 227.333" stroke="#1B284B" stroke-width="2" stroke-linecap="round" stroke-linejoin="round"/>
<path d="M374.073 233.253C369.891 250.184 359.89 256.107 348.886 269.552C343.069 268.256 334.487 272.009 329.147 265.323L362.929 204.461C363.902 202.708 365.254 201.195 366.887 200.032C368.519 198.869 370.391 198.086 372.366 197.739C374.34 197.393 376.367 197.492 378.298 198.03C380.23 198.568 382.016 199.531 383.527 200.848C401.425 216.317 418.829 232.093 433.563 251.882" stroke="#1B284B" stroke-width="2" stroke-linecap="round" stroke-linejoin="round"/>
<path d="M426.578 242.825C433.002 249.792 440.744 252.142 449.984 249.238C460.548 245.919 464.366 258.652 450.84 263.184M424.742 247.949C423.994 250.476 423.754 253.127 424.036 255.747C424.317 258.368 425.115 260.907 426.382 263.218" stroke="#1B284B" stroke-width="2" stroke-linecap="round" stroke-linejoin="round"/>
<path d="M401.894 199.35L406.065 221.179" stroke="#1B284B" stroke-width="2" stroke-linecap="round" stroke-linejoin="round"/>
<path d="M412.894 194.957C404.244 198.667 395.187 201.344 385.91 202.933" stroke="#1B284B" stroke-width="2" stroke-linecap="round" stroke-linejoin="round"/>
<path d="M362.341 205.501C361.25 205.555 360.157 205.603 359.061 205.644C357.553 205.7 356.066 205.275 354.816 204.428C353.567 203.582 352.62 202.36 352.113 200.938C351.516 199.263 351.562 197.425 352.242 195.781C352.922 194.137 354.187 192.804 355.794 192.04L409.17 166.639C412.441 165.083 416.16 164.744 419.659 165.682C423.157 166.62 426.207 168.774 428.262 171.758C444.766 195.776 454.157 220.63 459.48 253.192" stroke="#1B284B" stroke-width="2" stroke-linecap="round" stroke-linejoin="round"/>
<path d="M421.925 166.47L418.247 159.613L393.076 174.292" stroke="#1B284B" stroke-width="2" stroke-linecap="round" stroke-linejoin="round"/>
<path d="M362.341 205.501C346.002 218.518 327.101 240.385 308.451 261.362C311.487 269.389 316.356 273.043 322.056 274.708" stroke="#1B284B" stroke-width="2" stroke-linecap="round" stroke-linejoin="round"/>
<path d="M347.843 281.115L310.87 281.492" stroke="#1B284B" stroke-width="2" stroke-linecap="round" stroke-linejoin="round"/>
<path d="M307.465 281.115L281.368 281.492" stroke="#1B284B" stroke-width="2" stroke-linecap="round" stroke-linejoin="round"/>
<path fill-rule="evenodd" clip-rule="evenodd" d="M347.632 283.675C348.391 278.851 348.506 275.392 345.165 273.243C344.943 273.1 344.691 273.011 344.428 272.984C344.166 272.956 343.901 272.992 343.655 273.086C342.717 273.43 341.059 274.068 339.712 274.586C338.333 275.115 336.815 275.162 335.406 274.719L332.094 273.68L330.844 269.552C329.23 270.612 327.756 271.871 326.457 273.298C325.398 274.535 324.238 275.681 322.988 276.724C322.344 277.294 321.58 277.71 320.753 277.943C318.748 278.521 314.635 279.681 312.51 280.28C311.648 280.523 310.904 281.072 310.418 281.823C310.297 282.004 310.228 282.214 310.218 282.431C310.208 282.648 310.258 282.863 310.361 283.054C310.465 283.245 310.618 283.404 310.805 283.514C310.993 283.624 311.206 283.681 311.423 283.678L347.632 283.675Z" stroke="#1B284B" stroke-width="2" stroke-linecap="round" stroke-linejoin="round"/>
<path d="M316.856 278.992C316.998 276.963 317.088 276.012 315.559 274.63C315.364 274.447 315.127 274.313 314.87 274.24C314.612 274.167 314.341 274.156 314.078 274.209C313.018 274.413 311.107 274.798 309.724 275.076C308.645 275.293 307.528 275.235 306.478 274.905L302.588 273.687L301.338 269.559C299.724 270.618 298.25 271.877 296.951 273.305C295.892 274.542 294.732 275.688 293.482 276.731C292.838 277.3 292.074 277.716 291.247 277.95C289.242 278.527 285.129 279.688 283.004 280.287C282.142 280.53 281.398 281.078 280.912 281.83C280.791 282.01 280.722 282.221 280.712 282.437C280.702 282.654 280.752 282.87 280.855 283.061C280.959 283.252 281.112 283.411 281.299 283.52C281.487 283.63 281.7 283.687 281.917 283.685H307.986M326.635 273.086C323.198 271.872 322.153 274.798 325.755 276.624" stroke="#1B284B" stroke-width="2" stroke-linecap="round" stroke-linejoin="round"/>
<path d="M297.131 273.078C293.695 271.864 292.65 274.79 296.251 276.616M323.43 274.839C320.437 273.779 319.526 276.331 322.663 277.92M293.928 274.839C290.934 273.779 290.024 276.331 293.161 277.92" stroke="#1B284B" stroke-width="2" stroke-linecap="round" stroke-linejoin="round"/>
<path d="M309.204 263.185L301.613 270.467" stroke="#1B284B" stroke-width="2" stroke-linecap="round" stroke-linejoin="round"/>
<path d="M316.856 272.409L314.857 274.28" stroke="#1B284B" stroke-width="2" stroke-linecap="round" stroke-linejoin="round"/>
<path d="M331.322 269.555L332.282 267.997" stroke="#1B284B" stroke-width="2" stroke-linecap="round" stroke-linejoin="round"/>
<path d="M344.183 272.975L346.826 269.556" stroke="#1B284B" stroke-width="2" stroke-linecap="round" stroke-linejoin="round"/>
<path d="M401.735 169.25L355.58 183.109L309.61 177.81" stroke="#1B284B" stroke-width="2" stroke-linecap="round" stroke-linejoin="round"/>
<path d="M314.2 197.124C326.591 199.952 339.248 201.448 351.957 201.586" stroke="#1B284B" stroke-width="2" stroke-linecap="round" stroke-linejoin="round"/>
<path d="M309.619 177.8C323.927 198.187 312.78 202.531 307.552 190.31M401.636 160.544C384.123 164.485 382.327 152.233 395.156 132.077" stroke="#1B284B" stroke-width="2" stroke-linecap="round" stroke-linejoin="round"/>
<path fill-rule="evenodd" clip-rule="evenodd" d="M417.907 158.42C415.374 152.542 407.857 153.142 408.074 147.971L412.759 146.382C413.36 146.177 413.857 145.744 414.142 145.176C414.427 144.608 414.478 143.951 414.282 143.347C414.181 143.034 414.018 142.745 413.803 142.497C413.588 142.249 413.325 142.047 413.03 141.903C412.736 141.759 412.415 141.676 412.087 141.659C411.759 141.642 411.431 141.691 411.123 141.803L405.382 143.898L401.522 149.507L401.046 141.208C396.992 139.11 394.095 136.136 393.556 131.38C393.556 131.38 391.986 125.694 391.989 125.694C402.346 127.557 408.955 124.229 416.003 129.036C419.416 131.365 421.892 134.827 422.992 138.809C424.092 142.79 423.744 147.033 422.011 150.783C420.788 153.404 419.418 155.953 417.907 158.42Z" fill="#1B284B"/>
<path d="M390.832 139.702L384.319 143.339C384.849 145.611 386.484 147.019 387.521 147.048" stroke="#1B284B" stroke-width="2" stroke-linecap="round" stroke-linejoin="round"/>
<path d="M412.235 144.214L407.567 145.646" stroke="#1B284B" stroke-width="2" stroke-linecap="round" stroke-linejoin="round"/>
<path d="M401.108 156.41L402.55 167.791" stroke="#1B284B" stroke-width="2" stroke-linecap="round" stroke-linejoin="round"/>
<path d="M309.834 178.82L297.461 175.882C297.389 175.864 297.315 175.856 297.241 175.858L274.762 176.316C274.609 176.319 274.459 176.363 274.328 176.442C274.197 176.521 274.089 176.634 274.015 176.768C273.941 176.902 273.903 177.053 273.906 177.206C273.908 177.359 273.951 177.509 274.03 177.641L274.053 177.679C274.122 177.792 274.214 177.889 274.325 177.961C274.435 178.033 274.561 178.08 274.692 178.097L289.265 179.963" stroke="#1B284B" stroke-width="2" stroke-linecap="round" stroke-linejoin="round"/>
<path d="M286.968 179.592L284.772 183.302C284.635 183.534 284.588 183.809 284.64 184.073C284.693 184.338 284.841 184.574 285.057 184.736C286.262 185.666 287.657 186.319 289.143 186.648" stroke="#1B284B" stroke-width="2" stroke-linecap="round" stroke-linejoin="round"/>
<path d="M286.246 185.36L285.857 186.78C285.788 187.035 285.813 187.306 285.928 187.544C286.042 187.781 286.238 187.97 286.48 188.075L287.711 188.605" stroke="#1B284B" stroke-width="2" stroke-linecap="round" stroke-linejoin="round"/>
<path d="M289.411 183.202L292.648 184.817" stroke="#1B284B" stroke-width="2" stroke-linecap="round" stroke-linejoin="round"/>
<path d="M297.884 180.437L298.448 181.383C298.583 181.61 298.668 181.863 298.697 182.125C298.726 182.387 298.699 182.652 298.617 182.903C298.536 183.154 298.402 183.384 298.224 183.579C298.046 183.774 297.829 183.929 297.587 184.033L291.261 186.75L288.496 188.632C288.304 188.763 288.14 188.931 288.014 189.126C287.888 189.322 287.802 189.54 287.762 189.769C287.721 189.998 287.727 190.233 287.778 190.459C287.83 190.686 287.926 190.9 288.062 191.089C288.266 191.37 288.549 191.583 288.875 191.702C289.202 191.82 289.556 191.837 289.893 191.751L292.913 190.988L296.755 189.703M295.313 190.185C297.504 192.454 301.574 191.498 304.421 189.76L316.323 191.803M201.533 126.094C211.354 125.054 221.205 127.76 229.116 133.671C237.027 139.583 242.414 148.264 244.199 157.977C245.984 167.69 244.036 177.719 238.743 186.057C233.451 194.394 225.205 200.426 215.656 202.945C206.106 205.464 195.958 204.285 187.241 199.642C178.525 195 171.883 187.237 168.644 177.907C165.406 168.578 165.81 158.369 169.775 149.325C173.741 140.28 180.976 133.067 190.032 129.128" stroke="#1B284B" stroke-width="2" stroke-linecap="round" stroke-linejoin="round"/>
<path d="M198.993 178.82C201.93 181.354 206.189 183.001 212.705 180.173C218.779 177.536 221.79 172.681 219.733 167.94C215.122 157.316 196.57 168.55 192.549 159.286C191.006 155.731 193.098 151.327 198.896 148.811C204.364 146.439 208.011 148.039 209.822 149.341" stroke="#1B284B" stroke-width="2" stroke-linecap="round" stroke-linejoin="round"/>
<path d="M195.906 147.284L211.613 183.474" stroke="#1B284B" stroke-width="2" stroke-linecap="round" stroke-linejoin="round"/>
<path d="M199.492 145.727L215.199 181.917" stroke="#1B284B" stroke-width="2" stroke-linecap="round" stroke-linejoin="round"/>
<path d="M146.386 64.4539C152.47 86.2662 162.564 106.726 173.558 120.772C179.455 116.849 186.674 113.542 186.879 106.96M217.432 202.316C209.839 206.688 200.846 207.329 193.834 206.276C187.655 205.357 181.785 202.971 176.718 199.317C171.65 195.663 167.532 190.848 164.708 185.275C164.363 184.592 164.036 183.895 163.727 183.184C159.607 173.661 159.436 162.893 163.252 153.245C167.067 143.596 174.557 135.857 184.076 131.728L190.029 129.145M163.194 45.1865C165.194 41.1654 168.285 37.7874 172.112 35.4378C175.94 33.0882 180.35 31.8615 184.841 31.8978C188.064 31.874 191.26 32.4882 194.244 33.705C197.228 34.9218 199.942 36.7171 202.229 38.9875C204.516 41.2578 206.331 43.9583 207.57 46.9334C208.809 49.9084 209.447 53.0992 209.447 56.3218C209.447 59.5445 208.809 62.7353 207.57 65.7103C206.331 68.6854 204.516 71.3859 202.229 73.6562C199.942 75.9266 197.228 77.7219 194.244 78.9386C191.26 80.1554 188.064 80.7697 184.841 80.7459" stroke="#1B284B" stroke-width="2" stroke-linecap="round" stroke-linejoin="round"/>
<path d="M156.92 37.3096C160.011 39.6919 162.231 43.0265 163.237 46.7976C166.664 59.2967 172.015 78.8119 172.015 78.8119L189.93 112.952C191.254 115.476 193.204 117.616 195.594 119.168L196.983 120.07C197.625 120.488 198.161 121.05 198.548 121.711L201.742 127.162C202.053 127.692 202.262 128.277 202.358 128.884C202.643 130.71 203.273 134.754 203.541 136.47C203.553 136.55 203.545 136.632 203.515 136.708C203.486 136.784 203.437 136.851 203.374 136.902C203.31 136.953 203.235 136.986 203.154 136.999C203.074 137.011 202.992 137.003 202.916 136.973L202.46 136.797" stroke="#1B284B" stroke-width="2" stroke-linecap="round" stroke-linejoin="round"/>
<path d="M200.607 130.075L201.829 134.92C201.864 135.058 201.887 135.199 201.898 135.341C201.959 136.154 202.183 139.097 202.316 140.841C202.325 140.962 202.3 141.083 202.243 141.19C202.187 141.297 202.102 141.387 201.997 141.447C201.892 141.508 201.773 141.539 201.652 141.535C201.531 141.531 201.413 141.493 201.313 141.426C201.09 141.276 200.9 141.083 200.753 140.858C200.607 140.632 200.508 140.38 200.462 140.116C200.261 138.96 199.923 137.017 199.923 137.017M141.467 59.4371L143.577 63.9692C143.636 64.0973 143.685 64.2302 143.722 64.3666L145.162 69.6908C145.194 69.8077 145.192 69.9311 145.157 70.047C145.121 70.1628 145.054 70.2663 144.963 70.3458C144.872 70.4252 144.76 70.4774 144.64 70.4963C144.521 70.5152 144.398 70.5 144.287 70.4526C144.039 70.3474 143.816 70.1932 143.63 69.9992C143.444 69.8052 143.299 69.5754 143.204 69.3239L142.095 66.3816M139.504 61.3475L141.82 65.7523C141.892 65.8904 141.952 66.035 141.997 66.1842L143.749 71.9204C143.783 72.036 143.784 72.1588 143.753 72.2751C143.721 72.3915 143.658 72.4967 143.57 72.5792C143.482 72.6616 143.373 72.718 143.255 72.742C143.137 72.766 143.014 72.7568 142.901 72.7153C142.644 72.6207 142.41 72.475 142.211 72.2872C142.013 72.0993 141.854 71.8732 141.746 71.6224L140.502 68.7503L137.957 64.1003M198.319 131.572L199.768 136.333C199.813 136.482 199.845 136.635 199.862 136.79C199.959 137.682 200.309 140.913 200.509 142.752C200.521 142.872 200.5 142.994 200.448 143.103C200.395 143.212 200.313 143.305 200.211 143.37C200.109 143.435 199.991 143.47 199.87 143.472C199.749 143.474 199.629 143.442 199.526 143.38C199.292 143.238 199.089 143.051 198.93 142.83C198.77 142.608 198.658 142.356 198.598 142.089L197.913 139.035L196.285 133.991M196.285 132.278C196.285 132.278 196.06 135.643 196 136.551C195.99 136.698 195.967 136.845 195.931 136.989C195.717 137.842 194.923 141.015 194.474 142.818C194.445 142.936 194.383 143.043 194.296 143.127C194.208 143.212 194.099 143.27 193.981 143.296C193.862 143.322 193.739 143.314 193.625 143.274C193.51 143.233 193.409 143.162 193.333 143.067C193.163 142.854 193.037 142.608 192.963 142.345C192.89 142.082 192.871 141.807 192.907 141.536L193.321 138.433L191.795 131.711C191.774 131.619 191.736 131.532 191.681 131.454L190.357 129.554M180.397 116.344L185.769 124.352C186.142 124.908 186.396 125.536 186.515 126.195L187.12 129.556M162.406 21.0242C154.474 39.9246 142.99 46.8479 138.053 35.3317" stroke="#1B284B" stroke-width="2" stroke-linecap="round" stroke-linejoin="round"/>
<path d="M153.581 35.7847V35.7919" stroke="#1B284B" stroke-width="2" stroke-linecap="round" stroke-linejoin="round"/>
<path d="M140.759 32.7722L132.863 37.6858" stroke="#1B284B" stroke-width="2" stroke-linecap="round" stroke-linejoin="round"/>
<path d="M144.157 16.4922L145.8 19.918" stroke="#1B284B" stroke-width="2" stroke-linecap="round" stroke-linejoin="round"/>
<path fill-rule="evenodd" clip-rule="evenodd" d="M117.165 19.9099C124.824 18.8011 132.027 -0.397449 149.396 -1.83471e-05C151.564 0.0498962 153.701 0.527899 155.684 1.4065C157.666 2.2851 159.456 3.54697 160.949 5.11953C162.442 6.69209 163.61 8.54431 164.384 10.5697C165.159 12.5951 165.526 14.7536 165.464 16.9212C165.376 19.9457 165.313 22.1673 165.313 22.1673C157.035 25.103 154.449 17.7095 149.316 20.2729L147.074 15.6004C146.748 14.9236 146.167 14.4039 145.458 14.1554C144.75 13.907 143.971 13.9503 143.294 14.2757C142.618 14.6013 142.098 15.1824 141.849 15.8911C141.601 16.5999 141.644 17.3784 141.97 18.0552L144.271 22.8549C137.428 26.4609 135.193 18.6792 129.648 22.8549C128.205 23.9425 126.034 25.0619 124.47 26.1138L124.276 25.8091C122.716 23.0314 120.183 20.9298 117.165 19.9099ZM70.739 31.2327C71.4185 26.4239 73.8114 22.0222 77.4775 18.8369C81.1436 15.6515 85.8365 13.8969 90.6931 13.8955C96.9449 13.8955 100.148 17.6128 109.348 19.6171C108.994 19.6966 108.641 19.7894 108.288 19.8953L70.739 31.2327Z" fill="#653494"/>
<path d="M133.904 43.8606L124.917 27.1526C123.295 24.1371 120.697 21.7619 117.549 20.4166C114.4 19.0713 110.888 18.8357 107.588 19.7485C90.7422 24.4408 74.1292 29.6012 57.7494 35.2297C55.8669 35.8877 54.2363 37.1162 53.0846 38.7442C51.9329 40.3721 51.3174 42.3186 51.3237 44.3128C51.3299 46.3069 51.9577 48.2495 53.1196 49.8702C54.2815 51.4909 55.9197 52.7091 57.8063 53.3552C74.8287 59.2915 90.4123 63.7308 111.175 65.5365" stroke="#1B284B" stroke-width="2" stroke-linecap="round" stroke-linejoin="round"/>
<path d="M105.926 37.9573L101.285 42.3661" stroke="#1B284B" stroke-width="2" stroke-linecap="round" stroke-linejoin="round"/>
<path d="M87.197 37.9573L138.189 53.5299C139.767 54.0125 141.173 54.9408 142.237 56.2033L144.092 58.4077L146.1 63.2246L146.265 67.7288L145.886 69.2894" stroke="#1B284B" stroke-width="2" stroke-linecap="round" stroke-linejoin="round"/>
<path d="M119.837 47.9407C99.2315 66.8213 113.521 70.5624 120.855 59.4357M142.922 56.3477C144.425 56.3048 145.909 56.005 147.311 55.4614C147.424 55.4084 147.549 55.3863 147.673 55.3975C147.797 55.4087 147.916 55.4527 148.017 55.525C148.049 55.5448 148.08 55.566 148.11 55.5886C148.236 55.6781 148.328 55.8066 148.374 55.954C148.419 56.1015 148.415 56.2598 148.362 56.4046C147.941 57.0365 147.4 57.5794 146.77 58.0022C146.14 58.425 145.432 58.7194 144.688 58.8687M145.716 212.988C152.705 212.99 159.537 215.063 165.348 218.947C171.158 222.831 175.687 228.35 178.36 234.807C181.034 241.265 181.733 248.37 180.369 255.224C179.005 262.079 175.639 268.375 170.696 273.316C165.754 278.258 159.457 281.623 152.602 282.986C145.747 284.349 138.642 283.649 132.185 280.974C125.728 278.3 120.209 273.771 116.326 267.96C112.443 262.149 110.371 255.317 110.37 248.328C110.375 238.956 114.101 229.969 120.728 223.343C127.356 216.716 136.344 212.991 145.716 212.988Z" stroke="#1B284B" stroke-width="2" stroke-linecap="round" stroke-linejoin="round"/>
<path d="M78.6442 240.528H111.348" stroke="#1B284B" stroke-width="2" stroke-linecap="round" stroke-linejoin="round"/>
<path fill-rule="evenodd" clip-rule="evenodd" d="M384.171 37.4911C384.17 36.4647 383.762 35.4805 383.036 34.7547C382.31 34.0289 381.326 33.6208 380.3 33.6201H368.725C367.698 33.6205 366.714 34.0284 365.988 34.7543C365.262 35.4802 364.854 36.4646 364.854 37.4911V55.1105C364.854 56.1371 365.262 57.1217 365.988 57.8477C366.714 58.5736 367.698 58.9815 368.725 58.9815H380.3C381.326 58.9808 382.31 58.5727 383.036 57.8469C383.762 57.1211 384.17 56.1369 384.171 55.1105V37.4911Z" fill="#F2F4FF"/>
</g>
<defs>
<clipPath id="clip0_252_1176">
<rect width="461" height="285" fill="white"/>
</clipPath>
</defs>
</svg>
