<svg width="177" height="43" viewBox="0 0 177 43" fill="none" xmlns="http://www.w3.org/2000/svg">
<g clip-path="url(#clip0_266_739)">
<path d="M171.85 3.89054H172.129C172.249 3.89054 172.315 3.81991 172.315 3.70038V1.34229H173.107C173.228 1.34229 173.299 1.27709 173.299 1.15756V0.994554C173.299 0.87502 173.228 0.815253 173.107 0.815253H170.871C170.751 0.815253 170.686 0.87502 170.686 0.994554V1.15756C170.686 1.27709 170.751 1.34229 170.871 1.34229H171.67V3.69494C171.67 3.81448 171.73 3.88511 171.85 3.88511V3.89054ZM177 3.70581L176.612 0.951087C176.595 0.84242 176.524 0.788086 176.426 0.788086H176.387C176.289 0.788086 176.223 0.84242 176.174 0.951087L175.256 3.04837L174.305 0.951087C174.255 0.847853 174.195 0.788086 174.097 0.788086H174.059C173.955 0.788086 173.889 0.84242 173.873 0.951087L173.474 3.70581C173.457 3.82534 173.523 3.89054 173.638 3.89054H173.911C174.031 3.89054 174.086 3.82534 174.102 3.70581L174.305 2.03233L175.015 3.73841C175.064 3.85251 175.136 3.91228 175.245 3.91228H175.283C175.387 3.91228 175.458 3.85251 175.513 3.73841L176.218 2.03233L176.42 3.70581C176.437 3.82534 176.486 3.89054 176.606 3.89054H176.847C176.967 3.89054 177.033 3.82534 177.011 3.70581H177Z" fill="#1B284B"/>
<path d="M70.9983 1.14062C68.2375 1.14062 65.854 2.20557 64.039 3.88448V3.02601C64.039 2.04257 63.465 1.47206 62.4755 1.47206H60.9502C59.9607 1.47206 59.3867 2.04257 59.3867 3.02601V28.3564C59.3867 29.3398 59.9607 29.9104 60.9502 29.9104H63.3392C64.3287 29.9104 64.8645 29.3398 64.8645 28.3564V20.6193C66.51 21.8853 68.6093 22.6677 70.9983 22.6677C77.0501 22.6677 81.3744 17.8809 81.3744 11.9041C81.3744 5.92743 77.0501 1.14062 70.9983 1.14062ZM70.1728 17.9189C67.0458 17.9189 64.531 15.751 64.531 11.9041C64.531 8.05731 67.084 5.84593 70.1728 5.84593C73.6333 5.84593 75.8966 8.54632 75.8966 11.9041C75.8966 15.262 73.6333 17.9189 70.1728 17.9189ZM104.598 1.34709H103.072C102.083 1.34709 101.509 1.92303 101.509 2.90104V3.84101C99.6992 2.20557 97.3102 1.14062 94.5495 1.14062C88.4977 1.14062 84.2117 5.84593 84.2117 11.9041C84.2117 17.9624 88.4922 22.6677 94.5495 22.6677C97.5125 22.6677 99.8195 21.4397 101.509 19.5978V20.5378C101.509 21.5212 102.088 22.1352 103.072 22.1352H104.598C105.587 22.1352 106.161 21.5212 106.161 20.5378V2.90104C106.161 1.9176 105.587 1.34709 104.598 1.34709ZM95.375 17.9243C91.9144 17.9243 89.6512 15.262 89.6512 11.9096C89.6512 8.55718 91.9144 5.85136 95.375 5.85136C98.4637 5.85136 101.017 8.01928 101.017 11.9096C101.017 15.7999 98.4637 17.9243 95.375 17.9243ZM129.308 1.47206H127.165C126.175 1.47206 125.639 2.04257 125.268 3.02601L120.369 15.3435L115.471 3.02601C115.099 2.04257 114.564 1.47206 113.536 1.47206H110.857C109.868 1.47206 109.294 2.1295 109.704 3.02601L117.691 20.6627L116.291 23.7326C115.548 25.368 114.684 25.656 113.738 25.656C113.246 25.656 112.71 25.5311 112.295 25.3681C111.267 24.9986 110.731 25.2865 110.485 26.0635L110.032 27.6609C109.742 28.5629 110.321 28.9704 110.857 29.2583C111.683 29.6659 112.792 29.9158 113.984 29.9158C116.827 29.9158 119.216 28.7693 120.982 24.678L130.456 3.02601C130.866 2.12407 130.292 1.47206 129.302 1.47206H129.308ZM146.687 1.51553C145.861 1.27103 145.123 1.14606 144.09 1.14606C141.745 1.14606 139.891 2.33053 138.574 4.29742V3.03144C138.574 2.048 138 1.47749 137.01 1.47749H135.447C134.457 1.47749 133.883 2.048 133.883 3.03144V20.5486C133.883 21.5321 134.457 22.1461 135.447 22.1461H137.836C138.825 22.1461 139.361 21.5321 139.361 20.5486V10.8066C139.361 7.86171 140.886 5.81333 143.603 5.81333C144.183 5.81333 144.839 5.9383 145.418 6.13933C146.118 6.3458 146.78 6.22083 147.064 5.19936L147.6 3.15097C147.889 2.048 147.31 1.71656 146.692 1.51553H146.687ZM159.616 22.6731C166.121 22.6731 170.856 18.0493 170.856 11.9096C170.856 5.76986 166.121 1.14606 159.616 1.14606C153.11 1.14606 148.332 5.76986 148.332 11.9096C148.332 18.0493 153.11 22.6731 159.616 22.6731ZM159.616 17.9243C156.199 17.9243 153.766 15.3869 153.766 11.9096C153.766 8.43222 156.237 5.85136 159.616 5.85136C162.994 5.85136 165.422 8.43222 165.422 11.9096C165.422 15.3869 162.994 17.9243 159.616 17.9243Z" fill="#1B284B"/>
<path d="M8.80723 6.28111C9.8678 2.94502 13.0112 0.5 16.7178 0.5H30.6691C39.0771 0.5 46.4519 6.79728 46.9549 15.1321C47.5016 24.1895 40.2744 31.7039 31.2814 31.7039H20.714C20.6758 31.7039 20.6484 31.7256 20.6375 31.7582L3.7832 21.4783L8.80723 6.28111Z" fill="#653494"/>
<path d="M8.83989 6.18359C8.58841 6.97143 8.42441 7.90054 8.42441 8.76988C8.42441 13.3231 12.1364 17.0286 16.7231 17.0286L22.4414 17.0558C23.8081 17.0558 24.7921 18.3652 24.3985 19.6692L18.9207 36.9963C17.8875 40.2563 14.8479 42.4785 11.4093 42.484H8.2932C3.71199 42.4894 0 38.7839 0 34.2307C0 33.3613 0.169472 32.4322 0.41548 31.6444L8.83989 6.18359Z" fill="#B97EB7"/>
</g>
<defs>
<clipPath id="clip0_266_739">
<rect width="177" height="42" fill="white" transform="translate(0 0.5)"/>
</clipPath>
</defs>
</svg>
