<svg width="60" height="60" viewBox="0 0 60 60" fill="none" xmlns="http://www.w3.org/2000/svg">
<g id="Icons">
<path id="Vector" d="M41.9802 16.4157C41.9261 14.4734 40.5177 12.7854 38.5995 12.4565C37.8323 12.3255 37.0328 12.3692 36.2488 12.3538C34.4838 12.3191 33.0497 11.6267 31.9593 10.2367C31.622 9.80763 31.3027 9.36443 30.9693 8.9328C29.9226 7.58009 28.5799 6.66801 26.9205 6.23509C26.5819 6.14645 26.2382 6.07708 25.8957 6H17.8972C17.8239 6.02698 17.7518 6.0668 17.6758 6.07965C13.9218 6.68727 11.3535 9.68045 11.3419 13.4727C11.3368 15.3033 11.3419 17.1338 11.3406 18.9644C11.3368 23.0149 10.8141 26.9946 9.68121 30.8883C8.61526 34.5559 7.06655 38.0167 5.18955 41.3375C4.83681 41.9631 4.99001 42.581 5.53586 42.8739C6.06497 43.1591 6.63399 42.9522 6.98287 42.3382C10.6274 35.9292 12.937 29.1078 13.3052 21.6968C13.3477 20.8438 13.3103 19.987 13.3103 19.1314C13.3657 19.1263 13.4223 19.1212 13.4777 19.1147C13.5472 19.2522 13.6206 19.3871 13.6875 19.5245C14.5591 21.3294 15.4242 23.1382 16.3022 24.9392C16.8879 26.1365 17.9912 26.7236 19.2091 26.5103C20.3651 26.3074 21.1994 25.3927 21.3345 24.0914C21.5573 21.9371 21.7413 19.7776 21.9448 17.6207C22.2331 14.5363 22.5266 11.4532 22.8086 8.36756C22.8318 8.11706 22.9283 8.03998 23.1665 8.04384C23.7934 8.05412 24.4191 8.03742 25.046 8.04898C26.8265 8.08495 28.2709 8.80177 29.36 10.2161C29.6935 10.6491 30.0127 11.0923 30.3487 11.5226C31.4147 12.8843 32.7755 13.8426 34.4735 14.1702C35.5176 14.3706 36.608 14.3501 37.6791 14.3937C38.6768 14.4361 39.5393 14.8755 39.7505 15.7452C40.2139 17.649 40.0684 19.1584 38.1979 20.0024C35.5987 21.1753 33.0831 22.5357 30.529 23.8075C29.3227 24.4087 28.5245 25.3375 28.2117 26.6542C28.0611 27.2837 28.3482 27.8091 28.8863 27.9607C29.4669 28.1238 30.0115 27.8284 30.1775 27.195C30.3809 26.4165 30.8624 25.9258 31.5653 25.5777C34.2534 24.2481 36.935 22.9057 39.614 21.5581C40.9593 20.8811 41.7459 19.775 41.9454 18.2913C42.0278 17.6747 41.9969 17.0401 41.9802 16.4157ZM20.3626 12.5182C20.0562 15.776 19.7472 19.0338 19.4395 22.2903C19.3945 22.7695 19.352 23.2487 19.3082 23.7278C19.2786 24.0426 19.2335 24.3457 18.8319 24.3997C18.4534 24.4498 18.2474 24.2661 18.0904 23.9347C17.2948 22.2544 16.4824 20.5831 15.6752 18.9079C15.0779 17.667 14.532 16.3952 13.8626 15.1941C13.2254 14.0533 13.2704 12.9074 13.6631 11.7615C14.393 9.62393 15.9147 8.36885 18.1689 8.10935C19.0057 8.01301 19.8631 8.09394 20.7745 8.09394C20.6368 9.5841 20.5016 11.0511 20.3626 12.5182Z" fill="#1B284B"/>
<path id="Vector_2" d="M53.909 37.1559C53.0261 31.6621 46.3091 29.1195 41.7856 32.5758C41.324 32.9283 40.9196 33.3508 40.445 33.7796C40.4112 33.7283 40.3839 33.6683 40.3423 33.6221C38.4934 31.5846 36.1764 30.7358 33.3926 31.0895C29.3787 31.5996 26.4194 35.4934 27.0968 39.341C27.3985 41.0497 28.124 42.5898 29.0849 44.0285C32.0078 48.4099 35.9293 51.8599 40.1798 55H40.7636C41.8532 54.17 42.9753 53.3775 44.0246 52.5012C46.759 50.2187 49.3022 47.7561 51.3592 44.8673C52.6022 43.1198 53.6229 41.2722 53.9441 39.1359C53.948 39.1097 53.9805 39.0872 54 39.0622V37.4684C53.9688 37.3647 53.9259 37.2622 53.909 37.1559ZM51.7116 39.7235C51.3098 41.1922 50.5362 42.4873 49.6533 43.7285C47.6809 46.5036 43.3901 50.7199 40.4919 52.7275C38.1813 50.9662 36.0334 49.0686 34.0674 46.9836C32.5604 45.3861 31.1237 43.726 30.1485 41.7673C29.7194 40.906 29.3579 39.9772 29.1811 39.0422C28.7013 36.4959 30.3227 34.0496 32.905 33.2471C35.4105 32.4683 38.1735 33.5721 39.3958 35.8334C39.5219 36.0646 39.6467 36.3246 39.8456 36.4859C40.4008 36.9334 41.1784 36.7059 41.5255 36.0171C42.2719 34.5371 43.4694 33.5683 45.1168 33.1671C49.2151 32.1696 52.8038 35.7459 51.7116 39.7235Z" fill="#38BB9F"/>
</g>
</svg>
