<svg width="60" height="60" viewBox="0 0 60 60" fill="none" xmlns="http://www.w3.org/2000/svg">
<g id="Icons">
<path id="Vector" d="M53 32V51.2887C53 52.2183 52.2211 53 51.2947 53H8.70526C7.77895 53 7 52.2394 7 51.2887V32.2958" stroke="#1B284B" stroke-width="2" stroke-linecap="round" stroke-linejoin="round"/>
<path id="Vector_2" d="M22 15V10.5385C22 9.13462 23.2312 8 24.7086 8H34.2709C35.7688 8 37 9.17308 37 10.5385V15" stroke="#38BB9F" stroke-width="2" stroke-miterlimit="10"/>
<path id="Vector_3" d="M24.7957 36C17.6182 35.6458 10.4197 34.2083 4 31.125V17.6875C4.02105 16.75 4.79984 16 5.74701 16H53.2951C54.2423 16 55 16.75 55 17.6875V30.7708C48.5592 34.1458 41.2134 35.625 33.9517 36" stroke="#1B284B" stroke-width="2" stroke-linecap="round" stroke-linejoin="round"/>
<path id="Vector_4" d="M26.9312 33.0208H33.0476C33.5767 33.0208 34 33.4375 34 33.9583V38.0833C34 38.6042 33.5767 39 33.0688 39H26.9524C26.4233 39 26 38.5833 26 38.0625V33.9375C26 33.4167 26.4233 33 26.9524 33L26.9312 33.0208Z" stroke="#38BB9F" stroke-width="2" stroke-miterlimit="10"/>
</g>
</svg>
