<svg width="39" height="39" viewBox="0 0 39 39" fill="none" xmlns="http://www.w3.org/2000/svg">
<g id="Group 1406">
<path id="Vector (Stroke)" fill-rule="evenodd" clip-rule="evenodd" d="M10.0781 11.7628C10.3693 11.988 10.4229 12.4067 10.1977 12.698L7.49535 16.1933C7.36879 16.3569 7.17341 16.4526 6.96651 16.4522C6.75961 16.4517 6.56464 16.3552 6.43878 16.191L5.11188 14.4596C4.88792 14.1673 4.94327 13.7489 5.23551 13.5249C5.52775 13.3009 5.94622 13.3563 6.17018 13.6485L6.97026 14.6925L9.14287 11.8825C9.36807 11.5912 9.78677 11.5376 10.0781 11.7628ZM11.9972 14.3777C11.9972 14.0095 12.2957 13.711 12.6639 13.711H21.3373C21.7055 13.711 22.004 14.0095 22.004 14.3777C22.004 14.7459 21.7055 15.0443 21.3373 15.0443H12.6639C12.2957 15.0443 11.9972 14.7459 11.9972 14.3777ZM10.0781 17.2646C10.3693 17.4898 10.4229 17.9085 10.1977 18.1998L7.49535 21.6951C7.36879 21.8587 7.17341 21.9544 6.96651 21.954C6.75961 21.9535 6.56464 21.857 6.43878 21.6928L5.11188 19.9614C4.88792 19.6691 4.94327 19.2507 5.23551 19.0267C5.52775 18.8027 5.94622 18.8581 6.17018 19.1503L6.97026 20.1943L9.14287 17.3843C9.36807 17.093 9.78677 17.0394 10.0781 17.2646ZM11.9972 19.8795C11.9972 19.5113 12.2957 19.2128 12.6639 19.2128H19.3793C19.7475 19.2128 20.046 19.5113 20.046 19.8795C20.046 20.2477 19.7475 20.5461 19.3793 20.5461H12.6639C12.2957 20.5461 11.9972 20.2477 11.9972 19.8795ZM10.0295 22.734C10.3208 22.9593 10.3744 23.3779 10.1492 23.6692L7.4468 27.1645C7.32025 27.3282 7.12487 27.4238 6.91796 27.4234C6.71106 27.4229 6.51609 27.3265 6.39023 27.1622L5.06333 25.4308C4.83937 25.1385 4.89472 24.7201 5.18696 24.4961C5.47921 24.2722 5.89767 24.3275 6.12163 24.6198L6.92172 25.6638L9.09432 22.8537C9.31953 22.5624 9.73823 22.5088 10.0295 22.734ZM11.9487 25.3489C11.9487 24.9807 12.2472 24.6822 12.6154 24.6822H21.2888C21.657 24.6822 21.9555 24.9807 21.9555 25.3489C21.9555 25.7171 21.657 26.0156 21.2888 26.0156H12.6154C12.2472 26.0156 11.9487 25.7171 11.9487 25.3489Z" fill="#38BB9F"/>
<path id="Vector (Stroke)_2" fill-rule="evenodd" clip-rule="evenodd" d="M18.1032 0.619318C17.9831 0.443874 17.7813 0.328755 17.5526 0.328755H17.5414C17.538 0.328729 17.5346 0.328729 17.5312 0.328755H2.29324C1.21305 0.328755 0.332031 1.20977 0.332031 2.28996V33.6987C0.332031 34.7789 1.21305 35.66 2.29324 35.66H24.426L27.1097 37.3976C29.9271 39.2185 33.1813 38.5086 35.4193 36.6876C37.6504 34.8723 39.0264 31.8283 37.9725 28.8029L35.659 22.17C35.6589 22.1696 35.6588 22.1691 35.6586 22.1687C35.1968 20.8346 33.6201 20.3839 32.4153 20.8801C32.0035 21.0455 31.6606 21.3062 31.4007 21.6246C30.7314 21.1932 29.8541 21.103 29.0612 21.4322L29.0542 21.4351C28.6487 21.6089 28.3088 21.8715 28.0502 22.1904C27.6348 21.9229 27.1394 21.7868 26.6338 21.8007V9.40993C26.6338 9.18127 26.5187 8.9795 26.3432 8.85941L18.1032 0.619318ZM16.8698 1.66209H2.29324C1.94943 1.66209 1.66536 1.94615 1.66536 2.28996V33.6987C1.66536 34.0426 1.94943 34.3266 2.29324 34.3266H22.3668L18.3879 31.7503C17.224 30.9971 16.9962 29.4739 17.7883 28.3738C17.86 28.2743 17.9577 28.1965 18.0707 28.1489C18.6548 27.9029 19.4543 27.8119 20.1877 27.8403C20.8291 27.8651 21.5399 27.9856 22.0847 28.2666L18.8691 20.8946C18.8687 20.8939 18.8684 20.8931 18.868 20.8923C18.3122 19.6381 19.0143 18.2212 20.2395 17.7179L20.2482 17.7136C20.2623 17.7065 20.2767 17.6999 20.2914 17.6939C21.5517 17.1724 22.9732 17.7294 23.515 18.9225C23.5154 18.9233 23.5157 18.9241 23.5161 18.9249L25.1005 22.3576C25.1737 22.3005 25.2505 22.247 25.3303 22.1972C25.3109 22.1347 25.3005 22.0682 25.3005 21.9993V10.0766H18.831C17.7508 10.0766 16.8698 9.19558 16.8698 8.11539V1.66209ZM24.3415 8.74327L18.2031 2.6049V8.11539C18.2031 8.4592 18.4872 8.74327 18.831 8.74327H24.3415ZM26.2274 23.228C25.8895 23.3758 25.6708 23.6096 25.5651 23.869C25.4649 24.115 25.2283 24.278 24.9629 24.284C24.6974 24.2901 24.4537 24.138 24.3424 23.8969L22.3015 19.4749C22.0683 18.96 21.4309 18.6771 20.8209 18.9179L20.812 18.9224C20.7949 18.9309 20.7774 18.9387 20.7596 18.9458C20.1262 19.197 19.8728 19.8701 20.0875 20.3531L20.0893 20.3573L24.1833 29.7428C24.3009 30.0124 24.2279 30.3272 24.0037 30.5175C23.7795 30.7079 23.457 30.7288 23.2101 30.569L21.5595 29.501C21.2965 29.3309 20.7726 29.1972 20.1362 29.1726C19.6127 29.1523 19.1185 29.2099 18.7729 29.3125C18.5268 29.7973 18.6746 30.3477 19.1122 30.6309L24.8505 34.3464C24.996 34.3826 25.1225 34.4666 25.2125 34.5808L27.8339 36.2781C30.049 37.7097 32.6693 37.2063 34.5778 35.6534C36.4933 34.0949 37.5365 31.6048 36.7134 29.2418C36.7134 29.2417 36.7135 29.2418 36.7134 29.2418L34.3994 22.6072L34.3988 22.6054C34.2456 22.162 33.5927 21.8359 32.9213 22.1137L32.914 22.1167C32.5498 22.2624 32.3021 22.5622 32.2092 22.9029C32.1389 23.1606 31.9217 23.3514 31.6571 23.3879C31.3926 23.4244 31.1318 23.2995 30.9944 23.0705C30.7397 22.6461 30.1486 22.4263 29.5758 22.6622C29.1995 22.8247 28.9517 23.1313 28.8596 23.4693C28.7893 23.7269 28.5721 23.9178 28.3075 23.9543C28.043 23.9908 27.7821 23.8659 27.6447 23.6369C27.3903 23.2128 26.7999 22.993 26.2274 23.228ZM4.42601 6.85322C4.42601 6.48503 4.72449 6.18655 5.09268 6.18655H13.7823C14.1505 6.18655 14.449 6.48503 14.449 6.85322C14.449 7.22141 14.1505 7.51988 13.7823 7.51988H5.09268C4.72449 7.51988 4.42601 7.22141 4.42601 6.85322Z" fill="#1B284B"/>
</g>
</svg>
