<svg width="32" height="32" viewBox="0 0 32 32" fill="none" xmlns="http://www.w3.org/2000/svg">
<g clip-path="url(#clip0_351_2555)">
<path d="M28.9595 21.8667V14.2629L28.7835 14.0575L24.4635 8.92421L24.2523 8.66672H20.3195V4.26672H4.47949V8.66672H5.91949V5.73339H18.8795V21.8667H12.8731C12.2779 20.1556 10.6811 18.9334 8.79949 18.9334C7.69229 18.9334 6.68429 19.3538 5.91949 20.0513V17.4667H4.47949V23.3334C4.47949 25.7615 6.41549 27.7334 8.79949 27.7334C11.1835 27.7334 13.1195 25.7615 13.1195 23.3334H18.8795C18.8795 25.7615 20.8155 27.7334 23.1995 27.7334C25.5835 27.7334 27.5195 25.7615 27.5195 23.3334H30.3995V21.8667H28.9595ZM8.79949 26.2667C7.20909 26.2667 5.91949 24.9532 5.91949 23.3334C5.91949 21.7135 7.20909 20.4001 8.79949 20.4001C10.3899 20.4001 11.6795 21.7135 11.6795 23.3334C11.6795 24.9532 10.3899 26.2667 8.79949 26.2667ZM20.3195 10.1334H23.5867L27.2891 14.5334H20.3195V10.1334ZM23.1995 26.2667C21.6091 26.2667 20.3195 24.9532 20.3195 23.3334C20.3195 21.7135 21.6091 20.4001 23.1995 20.4001C24.7899 20.4001 26.0795 21.7135 26.0795 23.3334C26.0795 24.9532 24.7899 26.2667 23.1995 26.2667ZM27.5195 21.8667H27.2731C26.6779 20.1556 25.0811 18.9334 23.1995 18.9334C22.0923 18.9334 21.0843 19.3538 20.3195 20.0513V16.0001H27.5195V21.8667Z" fill="white"/>
<path d="M13.1196 8.66675H1.59961V10.1334H13.1196V8.66675Z" fill="#38BB9F"/>
<path d="M3.76004 11.6001H3.04004V13.0668H3.76004H13.84H14.56V11.6001H13.84H3.76004Z" fill="#38BB9F"/>
<path d="M2.31961 14.5334H1.59961V16.0001H2.31961H12.3996H13.1196V14.5334H12.3996H2.31961Z" fill="#38BB9F"/>
</g>
<defs>
<clipPath id="clip0_351_2555">
<rect width="28.8" height="23.4667" fill="white" transform="translate(1.59961 4.26672)"/>
</clipPath>
</defs>
</svg>
