<svg width="32" height="32" viewBox="0 0 32 32" fill="none" xmlns="http://www.w3.org/2000/svg">
<g clip-path="url(#clip0_351_2625)">
<path d="M27.4503 15.7141C27.4503 15.7141 27.4475 15.7181 27.4464 15.7197C27.4363 15.7181 27.4256 15.7158 27.4149 15.7141C27.362 15.7052 27.3058 15.6973 27.2495 15.6973H22.5133C22.1702 15.6973 21.8608 15.5065 21.7089 15.2035L20.4039 12.6055C20.252 12.3024 19.9427 12.1117 19.5995 12.1117C19.2564 12.1117 18.947 12.3024 18.7952 12.6055L16.0445 18.099L12.7708 10.8379C12.6245 10.5124 12.2983 10.3048 11.9383 10.3104C11.5783 10.316 11.2577 10.5349 11.1227 10.8603L9.33391 15.1418C9.19329 15.4785 8.86704 15.6917 8.50141 15.6917H4.74954C4.68204 15.6917 4.61454 15.6973 4.55266 15.7141H2.46973C2.78585 16.3499 3.18466 16.9464 3.65829 17.4873L3.66391 17.4929H8.49579C9.58704 17.4929 10.5714 16.8364 10.9877 15.8376L11.9777 13.4696L15.1727 20.5567C15.3133 20.871 15.6283 21.0786 15.977 21.0842C16.3258 21.0898 16.6464 20.899 16.7983 20.5904L19.5995 15.0127L20.0945 16.0059C20.5502 16.9206 21.4895 17.4929 22.5077 17.4929H28.3408L28.3464 17.4873C28.8178 16.9464 29.2149 16.3499 29.5305 15.7141H27.4503Z" fill="#38BB9F"/>
<path d="M30.3996 11.8198V12.0162C30.3996 13.3124 30.0964 14.5761 29.5305 15.7141H27.4504C28.1907 14.6322 28.5996 13.3495 28.5996 12.0162V11.8198C28.5996 8.77849 26.4227 6.17483 23.4246 5.63053C21.259 5.23773 19.0484 6.00087 17.5859 7.63939L17.3496 7.90312L16.6746 8.66065C16.5002 8.85143 16.2584 8.96366 15.9996 8.96366C15.7409 8.96366 15.4934 8.85143 15.3246 8.66065L14.6496 7.90312L14.4134 7.63939C12.9509 6.00087 10.7402 5.23773 8.57461 5.63053C5.57648 6.17483 3.39961 8.77849 3.39961 11.8198V12.0162C3.39961 13.3517 3.81023 14.6367 4.55273 15.7141H2.4698C1.9028 14.5761 1.59961 13.3124 1.59961 12.0162V11.8198C1.59961 7.91434 4.40086 4.56437 8.25398 3.86295C10.5602 3.44772 12.9059 4.04813 14.7115 5.46219C15.0884 5.75398 15.4371 6.08504 15.7634 6.44978L15.9996 6.71351L16.2415 6.44417C16.4777 6.18044 16.7252 5.93915 16.9896 5.70908C17.0909 5.6193 17.1921 5.53513 17.2934 5.45657C19.099 4.04252 21.4446 3.44772 23.7452 3.86295C27.5984 4.56437 30.3996 7.91434 30.3996 11.8198Z" fill="white"/>
<path d="M5.52539 19.2885L14.6041 27.7224C14.981 28.0759 15.4816 28.2667 15.9991 28.2667C16.4491 28.2667 16.8879 28.1151 17.2423 27.8458C17.2929 27.8065 17.3435 27.7672 17.3885 27.7224L26.4729 19.2885H23.8291L16.1679 26.4037C16.1229 26.443 16.061 26.471 15.9991 26.471C15.9373 26.471 15.8754 26.4486 15.8304 26.4037L8.16914 19.2885H5.52539Z" fill="white"/>
</g>
<defs>
<clipPath id="clip0_351_2625">
<rect width="28.8" height="24.5333" fill="white" transform="translate(1.59961 3.73334)"/>
</clipPath>
</defs>
</svg>
