<svg width="32" height="32" viewBox="0 0 32 32" fill="none" xmlns="http://www.w3.org/2000/svg">
<path d="M15.2743 25.9075C15.2766 25.5856 15.1583 25.3788 14.8133 25.3023C14.8133 23.8882 14.8232 22.496 14.811 21.1039C14.7965 19.5186 14.1012 18.3014 12.7334 17.4849C11.4366 16.7116 10.1245 15.9617 8.82389 15.1929C8.72161 15.1323 8.62467 15.0164 8.58575 14.9051C7.92552 13.032 7.27215 11.1558 6.62184 9.27891C6.31577 8.39348 5.45022 7.85267 4.54879 7.99507C3.67943 8.13216 3.05507 8.89717 3.03675 9.83335C3.03446 9.92273 2.9963 10.0447 2.93066 10.0947C2.18952 10.6567 1.98954 11.3762 2.23073 12.2586C2.86501 14.5764 3.49395 16.8949 4.10457 19.2186C4.26562 19.8306 4.56635 20.3215 5.04492 20.7335C5.9952 21.5515 6.92486 22.3938 7.86751 23.2216C8.18121 23.4974 8.39035 23.8253 8.4079 24.2464C8.42241 24.5964 8.41096 24.9463 8.41096 25.2909C8.0194 25.4447 7.95681 25.531 7.95605 25.9234C7.95528 27.0414 7.95528 28.1586 7.95681 29.2765C7.95681 29.706 8.11175 29.8651 8.53537 29.8651C10.5832 29.8666 12.6311 29.8666 14.679 29.8651C15.1102 29.8651 15.269 29.7105 15.2697 29.2887C15.272 28.1616 15.2652 27.0345 15.2743 25.9075ZM4.67397 8.89944C5.13041 8.81839 5.59372 9.10698 5.75935 9.58188C6.0761 10.4916 6.38905 11.4027 6.70504 12.3124C7.00272 13.1691 7.30345 14.0242 7.60876 14.8998C7.41489 14.9589 7.22788 15.0157 7.01798 15.0793C6.98822 15.0073 6.95234 14.9346 6.92792 14.8589C6.55544 13.7182 6.16006 12.5851 5.82193 11.4353C5.54181 10.4847 4.99073 9.8841 3.97329 9.78336C3.97329 9.34026 4.2702 8.9714 4.67397 8.89944ZM8.44759 22.5172C7.49427 21.6879 6.55697 20.8403 5.60516 20.0094C5.30825 19.7504 5.11591 19.4466 5.01363 19.0649C4.38316 16.707 3.73973 14.3529 3.11002 11.9958C3.05812 11.8011 3.03904 11.5792 3.07644 11.3838C3.152 10.9884 3.50845 10.718 3.88856 10.7097C4.33126 10.6998 4.70069 10.968 4.84723 11.4171C5.16247 12.3783 5.47312 13.3418 5.7853 14.3044C5.86391 14.5476 5.92803 14.7968 6.0242 15.0323C6.1906 15.4436 6.23944 15.8216 6.07381 16.2738C5.8082 16.9979 6.13793 17.8166 6.80808 18.2264C7.69119 18.7672 8.59643 19.2717 9.49633 19.7829C9.74897 19.9261 10.01 19.8473 10.136 19.6178C10.2634 19.3875 10.1947 19.1444 9.93292 18.9914C9.09561 18.5021 8.25296 18.0249 7.41412 17.5379C6.97677 17.2842 6.8119 16.8721 6.95997 16.4305C7.14621 15.8761 7.77515 15.6504 8.31784 15.9617C9.36428 16.5623 10.4039 17.1743 11.4465 17.7818C11.7587 17.9636 12.0762 18.1363 12.3792 18.3317C13.3631 18.9664 13.879 19.8753 13.8951 21.0387C13.9134 22.393 13.8989 23.7473 13.8997 25.1023V25.3061H9.32765C9.32765 25.0251 9.32231 24.7448 9.32841 24.4653C9.34597 23.6753 9.046 23.0368 8.44759 22.5172ZM14.3439 28.9417H8.89335V26.2483H14.3439V28.9417Z" fill="white"/>
<path d="M28.5605 10.1219C28.4857 10.0636 28.4231 9.94318 28.42 9.84926C28.3903 8.88278 27.7728 8.1246 26.895 7.99356C25.9737 7.85571 25.1433 8.39424 24.825 9.31527C24.1793 11.1831 23.5274 13.0486 22.8672 14.9112C22.8252 15.0293 22.7146 15.1482 22.6046 15.2134C21.3208 15.9716 20.0263 16.7123 18.744 17.4728C17.3541 18.2969 16.6542 19.5239 16.6435 21.1334C16.6374 22.0704 16.642 23.0081 16.642 23.945V25.3023C16.2985 25.3781 16.1786 25.5833 16.1817 25.9052C16.1909 27.0315 16.184 28.1586 16.1855 29.2849C16.1863 29.7105 16.342 29.8651 16.7725 29.8651C18.8196 29.8666 20.8667 29.8666 22.913 29.8651C23.342 29.8651 23.4984 29.7098 23.4992 29.2834C23.5007 28.1571 23.4939 27.03 23.503 25.9037C23.5053 25.5803 23.3824 25.3773 23.042 25.3023C23.042 25.0402 23.0565 24.8032 23.0397 24.5684C22.9954 23.9586 23.2435 23.5042 23.7053 23.1103C24.6586 22.2968 25.586 21.4531 26.5279 20.6259C26.8713 20.3237 27.1408 19.9715 27.2606 19.5307C27.9346 17.0486 28.6078 14.5665 29.2627 12.0799C29.4718 11.2869 29.2108 10.6302 28.5605 10.1219ZM24.4525 13.1713C24.8723 11.9678 25.2898 10.7627 25.7119 9.55917C25.8768 9.08956 26.3233 8.8184 26.7782 8.89945C27.1828 8.97216 27.4781 9.33572 27.4827 9.70989C27.1255 9.85911 26.7698 9.9659 26.4576 10.1477C26.0768 10.3704 25.8638 10.7445 25.7295 11.1642C25.3311 12.4048 24.9258 13.644 24.522 14.8831C24.5021 14.9452 24.4769 15.0058 24.4487 15.0808C24.238 15.0187 24.0572 14.9664 23.8465 14.9043C24.0503 14.3219 24.2518 13.747 24.4525 13.1713ZM22.5726 28.9418H17.122V26.2483H22.5726V28.9418ZM28.3574 11.9413C27.7132 14.3438 27.0744 16.7487 26.405 19.1444C26.321 19.4436 26.1142 19.7473 25.8821 19.9617C24.9418 20.8327 23.9747 21.6757 23.0061 22.5165C22.407 23.0361 22.1093 23.6761 22.1276 24.4653C22.1337 24.738 22.1284 25.0115 22.1284 25.3061H17.5564V25.0168C17.5564 23.7284 17.5548 22.4407 17.5571 21.1524C17.5586 19.8708 18.1097 18.896 19.2218 18.2438C20.5255 17.4803 21.8314 16.7214 23.1374 15.9617C23.4809 15.7625 23.8274 15.7587 24.1587 15.9859C24.4731 16.2018 24.5792 16.5139 24.5304 16.8805C24.4861 17.2099 24.2701 17.4137 23.9938 17.572C23.1931 18.0287 22.3917 18.4839 21.5979 18.9513C21.4742 19.024 21.317 19.1459 21.2994 19.2633C21.2765 19.4163 21.3368 19.6216 21.4368 19.7413C21.578 19.9102 21.7918 19.8822 21.9849 19.7701C22.8573 19.2671 23.745 18.7877 24.5968 18.2529C24.8716 18.0802 25.1044 17.7917 25.2692 17.5061C25.5432 17.0289 25.528 16.501 25.3028 16.0011C25.2211 15.8193 25.2204 15.6701 25.2792 15.4898C25.7234 14.1424 26.16 12.7926 26.6004 11.4436C26.7775 10.9021 27.2827 10.5961 27.7636 10.7355C28.2689 10.8831 28.5124 11.3656 28.3574 11.9413Z" fill="white"/>
<path d="M23.5053 6.76446C23.3061 4.24904 20.7888 2.29942 18.2853 2.72509C17.3083 2.89097 16.4618 3.30301 15.7306 4.00439C15.6375 3.92258 15.5665 3.86048 15.4955 3.79837C14.1079 2.58497 12.0715 2.33274 10.4251 3.17046C7.6758 4.57019 7.05984 8.19524 9.22601 10.3933C11.2128 12.4088 13.2347 14.3902 15.2414 16.3861C15.6436 16.786 15.8115 16.7867 16.2122 16.3883C18.1723 14.4395 20.1294 12.4883 22.0925 10.5425C23.1473 9.4965 23.6229 8.24598 23.5053 6.76446ZM21.62 9.70631C19.7035 11.6567 17.7487 13.5692 15.8108 15.4976C15.7909 15.5173 15.7657 15.5309 15.7199 15.5635C15.665 15.5135 15.6222 15.4764 15.5825 15.437C13.6973 13.5631 11.8051 11.6953 9.92898 9.81159C8.22688 8.10207 8.55814 5.36094 10.6007 4.11573C11.999 3.26362 13.8102 3.45601 15.0078 4.58458C15.146 4.71485 15.2734 4.85725 15.4177 4.98071C15.6184 5.15341 15.8352 5.15265 16.0367 4.98071C16.1871 4.85119 16.3214 4.70198 16.4672 4.5664C17.9082 3.22954 20.1584 3.26968 21.5498 4.65578C22.939 6.04035 22.9955 8.30658 21.62 9.70631Z" fill="#38BB9F"/>
<path d="M17.6918 7.5876C17.4964 7.58987 17.3018 7.5876 17.0987 7.5876C17.0987 7.1339 17.101 6.72716 17.098 6.32042C17.0949 5.93186 16.9323 5.77128 16.54 5.76901C16.0065 5.76674 15.4737 5.7675 14.941 5.76901C14.5112 5.77053 14.3586 5.92353 14.3563 6.35147C14.3548 6.75518 14.3563 7.15889 14.3563 7.5876C13.909 7.5876 13.4923 7.58457 13.0755 7.58835C12.6985 7.59138 12.5313 7.75272 12.5283 8.12083C12.5244 8.66996 12.5244 9.21834 12.5283 9.76748C12.5305 10.1522 12.6962 10.3113 13.0908 10.3143C13.4991 10.3174 13.9075 10.3151 14.3563 10.3151C14.3563 10.765 14.3532 11.1801 14.3571 11.5944C14.3609 11.9648 14.5257 12.1299 14.8997 12.1322C15.4325 12.1367 15.9653 12.1344 16.4988 12.1329C16.9461 12.1322 17.0964 11.9814 17.0987 11.5368C17.1003 11.1339 17.0987 10.7309 17.0987 10.3151C17.5384 10.3151 17.9376 10.3166 18.336 10.3143C18.7672 10.3128 18.9245 10.1591 18.9268 9.73794C18.9291 9.43496 18.9245 9.13199 18.9283 8.82902C18.9428 7.53761 18.9825 7.57093 17.6918 7.58684V7.5876ZM17.9956 9.40694C17.5819 9.40694 17.1751 9.40542 16.769 9.40694C16.3408 9.40921 16.1874 9.56145 16.1851 9.98864C16.1828 10.3855 16.1843 10.7824 16.1843 11.202H15.2699C15.2699 10.8082 15.2715 10.4052 15.2699 10.003C15.2684 9.55843 15.1173 9.40845 14.6708 9.40694C14.2731 9.40542 13.8747 9.40694 13.4541 9.40694V8.49727C13.8724 8.49727 14.2784 8.49878 14.6845 8.49727C15.1127 8.495 15.2676 8.34124 15.2699 7.91556C15.2715 7.51867 15.2699 7.12178 15.2699 6.70216H16.1843C16.1843 7.09678 16.1836 7.49974 16.1851 7.90193C16.1866 8.34654 16.337 8.49575 16.7843 8.49727C17.1827 8.49878 17.5804 8.49727 17.9956 8.49727V9.40694Z" fill="#38BB9F"/>
</svg>
