<svg width="32" height="32" viewBox="0 0 32 32" fill="none" xmlns="http://www.w3.org/2000/svg">
<g clip-path="url(#clip0_351_2580)">
<path d="M10.7071 5.9353C10.9503 4.95434 11.8143 4.26672 12.8036 4.26672H13.8377C14.2342 4.26672 14.5577 4.59625 14.5577 5.00006C14.5577 5.40387 14.2342 5.73339 13.8377 5.73339H12.8036C12.4744 5.73339 12.1864 5.96196 12.106 6.28768L11.1616 10.1334H18.1596C18.5561 10.1334 18.8796 10.4629 18.8796 10.8667C18.8796 11.2705 18.5561 11.6001 18.1596 11.6001H2.31961C1.92314 11.6001 1.59961 11.2705 1.59961 10.8667C1.59961 10.4629 1.92314 10.1334 2.31961 10.1334H9.6767L10.7071 5.9353Z" fill="white"/>
<path d="M4.31348 25.7163L3.2793 13.0668H4.72304L5.74974 25.5925C5.78153 25.9734 6.09197 26.2668 6.466 26.2668H13.2995C13.4659 26.8115 13.7352 27.3068 14.0868 27.7334H6.46974C5.34392 27.7334 4.40886 26.8572 4.31909 25.7163H4.31535H4.31348Z" fill="white"/>
<path d="M29.5225 16.0782C28.4472 14.8915 26.1693 13.0573 22.4796 13.0573C18.7898 13.0573 16.5176 14.8953 15.4367 16.0782C14.7802 16.7925 14.5596 17.7277 14.5596 18.5849C14.5596 19.1753 15.0327 19.6573 15.6125 19.6573H29.3467C29.9264 19.6573 30.3996 19.1753 30.3996 18.5849C30.3996 17.7315 30.1789 16.7982 29.5225 16.0782ZM16.022 18.1906C16.0762 17.7411 16.2333 17.3563 16.4895 17.0725H16.4989C16.8729 16.6592 17.4209 16.1506 18.1689 15.6934C18.2045 16.0687 18.5112 16.3582 18.8852 16.3582C19.2816 16.3582 19.6052 16.0287 19.6052 15.6249C19.6052 15.4134 19.5192 15.2268 19.3808 15.0934C20.0877 14.8192 20.9068 14.6115 21.8512 14.5487C21.797 14.6496 21.7652 14.7677 21.7652 14.8915C21.7652 15.2953 22.0887 15.6249 22.4852 15.6249C22.8816 15.6249 23.2052 15.2953 23.2052 14.8915C23.2052 14.7677 23.1734 14.6477 23.1192 14.5487C24.0636 14.6134 24.8827 14.8153 25.5896 15.0934C25.4493 15.2268 25.3652 15.4134 25.3652 15.6249C25.3652 16.0287 25.6887 16.3582 26.0852 16.3582C26.4592 16.3582 26.764 16.0649 26.8014 15.6934C27.5439 16.1525 28.0974 16.6611 28.4715 17.0725C28.7277 17.3563 28.8848 17.7411 28.939 18.1906H16.022Z" fill="#38BB9F"/>
<path d="M14.5596 21.4915C14.5596 21.0877 14.8831 20.7582 15.2796 20.7582H29.6796C30.076 20.7582 30.3996 21.0877 30.3996 21.4915C30.3996 21.8953 30.076 22.2248 29.6796 22.2248H15.2796C14.8831 22.2248 14.5596 21.8953 14.5596 21.4915Z" fill="#38BB9F"/>
<path d="M28.7202 23.324H16.2389C15.3114 23.324 14.5596 24.0897 14.5596 25.0344C14.5596 26.5202 15.7434 27.724 17.2002 27.724H27.7571C29.2158 27.724 30.3977 26.5183 30.3977 25.0344C30.3977 24.0897 29.6459 23.324 28.7183 23.324H28.7202ZM27.7571 26.2573H17.2002C16.5344 26.2573 15.9996 25.7068 15.9996 25.0344C15.9996 24.9011 16.108 24.7906 16.2389 24.7906H28.7221C28.853 24.7906 28.9614 24.9011 28.9614 25.0344C28.9614 25.7125 28.421 26.2573 27.7608 26.2573H27.7571Z" fill="#38BB9F"/>
</g>
<defs>
<clipPath id="clip0_351_2580">
<rect width="28.8" height="23.4667" fill="white" transform="translate(1.59961 4.26672)"/>
</clipPath>
</defs>
</svg>
