<svg width="81" height="81" viewBox="0 0 81 81" fill="none" xmlns="http://www.w3.org/2000/svg">
<path d="M7.4707 48.3334L18.4906 43.8141C21.2996 42.6637 24.4597 42.965 25.6211 43.8141C27.6198 45.3205 29.5915 46.7995 31.5902 48.306C39.8821 54.5235 40.5573 52.9622 50.3077 53.5648C52.4685 53.7018 53.9 57.2077 50.3077 58.6045C41.2055 62.8226 35.5876 60.9327 27.2687 56.6325M42.8261 52.3049L51.8743 47.4295C54.008 46.2791 58.1675 44.5536 58.1675 48.8264L59.707 47.7582C64.0015 44.8001 67.2427 46.8817 65.6491 50.9902C73.2658 45.4027 75.9667 52.4692 72.5636 54.2222L55.7096 64.9863L48.5791 69.5604C43.5284 72.7924 36.857 72.8472 34.9664 71.6968C24.2976 68.9031 21.2455 66.2737 11.9273 67.4788" stroke="#1B284B" stroke-width="2" stroke-linecap="round" stroke-linejoin="round"/>
<path d="M45.4194 18.4237C43.9339 17.9307 42.5834 17.4651 41.2329 17.3008C33.9674 16.4791 33.022 23.9017 40.7737 23.8743C48.2824 23.8743 47.5801 31.2695 40.2876 30.4478C38.9371 30.2835 37.5866 29.8179 36.1011 29.3249M40.7197 31.023V34.3098M40.7197 12.6993V16.2052M40.7197 8.59082C49.0386 8.59082 55.791 15.4383 55.791 23.8743C55.791 32.3103 49.0386 39.1578 40.7197 39.1578C32.4008 39.1578 25.6484 32.3103 25.6484 23.8743C25.6484 15.4383 32.4278 8.59082 40.7467 8.59082H40.7197Z" stroke="#38BB9F" stroke-width="2" stroke-miterlimit="10"/>
</svg>
