<svg width="60" height="60" viewBox="0 0 60 60" fill="none" xmlns="http://www.w3.org/2000/svg">
<g id="Icons">
<path id="Vector" d="M48.4501 38.2119C46.9991 37.159 44.9088 37.2061 43.483 38.4798C42.0596 39.7511 40.7465 41.1477 39.3909 42.4961C39.2633 42.6225 39.1748 42.7869 39.0471 42.965C38.9379 42.8076 38.8965 42.7616 38.8712 42.7087C38.0664 41.0293 36.7142 40.235 34.8734 40.2316C33.5419 40.2281 32.2116 40.2224 30.8802 40.235C30.3812 40.2396 29.9753 40.0787 29.5809 39.766C28.8519 39.1879 28.1379 38.5602 27.325 38.1257C23.3272 35.9923 18.8614 36.7222 15.6753 39.9523C15.527 40.1028 15.2637 40.2155 15.0522 40.2189C13.5068 40.2408 11.9615 40.2293 10.4173 40.2304C9.25376 40.2316 8.7513 40.7408 8.7513 41.9156C8.75015 45.3272 8.76855 48.7389 8.7375 52.1494C8.72945 53.0023 8.96516 53.6334 9.75967 54.0001H38.3113C39.3058 53.8012 40.1808 53.3897 40.9086 52.6575C43.5624 49.9884 46.2402 47.3434 48.8779 44.6605C49.3171 44.2134 49.7149 43.6605 49.9437 43.0811C50.6612 41.2719 50.038 39.366 48.4501 38.2119ZM14.4071 51.2149H11.5315V42.9938H14.4071V51.2149ZM47.2061 42.4294C47.0968 42.5754 46.9635 42.7041 46.8335 42.834C44.2488 45.4203 41.6583 47.9998 39.0839 50.5953C38.6321 51.0505 38.1434 51.2563 37.4972 51.2551C30.9193 51.2402 24.3402 51.2459 17.7622 51.2459H17.1965V49.2711C17.1965 47.1296 17.1873 44.9881 17.208 42.8467C17.2103 42.5995 17.3115 42.3041 17.4679 42.1167C19.8629 39.2672 24.0642 38.8568 26.9824 41.1719C27.3779 41.4845 27.7596 41.8144 28.1529 42.1294C28.9129 42.7397 29.7925 42.988 30.756 42.9857C32.1944 42.9811 33.6328 42.9696 35.0712 42.9903C36.1485 43.0064 36.7993 44.0754 36.3095 44.9939C36.0301 45.518 35.5713 45.7399 34.9872 45.7387C33.166 45.7365 31.3458 45.7319 29.5246 45.741C28.192 45.7479 27.0916 46.2675 26.2454 47.3009C25.7142 47.9515 25.7533 48.7676 26.327 49.2757C26.9168 49.7976 27.7562 49.7332 28.3207 49.0906C28.6933 48.6676 29.1348 48.4849 29.6924 48.4883C31.9414 48.4987 34.1904 48.4826 36.4394 48.4987C37.0155 48.5032 37.4639 48.317 37.8686 47.9101C40.2303 45.5341 42.6057 43.172 44.972 40.7994C45.3986 40.3718 45.8665 40.1086 46.4897 40.2937C47.428 40.5718 47.7913 41.6477 47.2061 42.4294Z" fill="#1B284B"/>
<path id="Vector_2" d="M50.2911 31.9635C48.9114 21.7756 43.328 15.3742 33.4007 12.774C34.2205 10.6785 33.3294 8.78648 32.0359 7.81287C30.7447 6.83925 28.8992 6.68867 27.4298 7.64619C25.5062 8.90142 25.0854 10.7165 25.7649 12.7694C15.8204 15.4006 10.1128 21.7331 8.70317 31.975C8.26165 31.975 7.77298 31.952 7.28777 31.9796C6.55536 32.0232 6.00231 32.6267 6.00001 33.3417C5.99771 34.0567 6.54846 34.6521 7.27857 34.7142C7.46139 34.7303 7.64536 34.7222 7.82932 34.7222C22.2695 34.7222 36.7098 34.7176 51.15 34.7349C52.002 34.736 52.6332 34.5073 53 33.713V32.9785C52.4458 31.6681 51.2592 32.0209 50.2911 31.9635ZM29.5776 9.75664C30.3273 9.74974 30.9574 10.3693 30.9643 11.1188C30.9712 11.8671 30.3514 12.497 29.6018 12.5039C28.8533 12.5108 28.2232 11.8924 28.2163 11.1429C28.2094 10.3935 28.8291 9.76354 29.5776 9.75664ZM11.6236 31.9485C11.9743 24.2838 18.8179 15.7167 28.8487 15.2833C39.076 14.8408 46.8429 22.9929 47.4005 31.9485H11.6236Z" fill="#38BB9F"/>
</g>
</svg>
