<svg width="60" height="60" viewBox="0 0 60 60" fill="none" xmlns="http://www.w3.org/2000/svg">
<g id="Icons">
<path id="Vector" d="M8.89705 13.3981C8.95224 13.1969 8.99303 12.9897 9.06741 12.7957C9.6577 11.2375 9.65649 9.61218 9.59771 7.98451C9.58211 7.55813 9.70208 7.23116 10.0632 7H49.9372C50.3008 7.23116 50.4195 7.55933 50.4051 7.9869C50.3787 8.76421 50.4039 9.54391 50.3943 10.3224C50.3907 10.6554 50.4435 10.9716 50.5311 11.2926C51.3038 14.1335 52.0896 16.9708 52.8287 19.8202C53.4381 22.1677 52.2792 24.5774 50.0968 25.6278C47.9144 26.6782 45.335 26.0566 43.8557 24.1259C43.7705 24.0145 43.6829 23.9043 43.5785 23.7714C42.5371 25.4889 41.0794 26.4662 39.0854 26.5033C37.0962 26.5416 35.6073 25.6158 34.5179 23.9834C32.3979 27.3453 27.5917 27.3585 25.4909 24.0061C23.317 27.4363 18.3955 27.3082 16.4015 23.7869C16.3176 23.8983 16.242 24.0025 16.1604 24.1043C14.9762 25.5811 13.4381 26.3009 11.5545 26.0877C9.56291 25.8625 8.16279 24.7667 7.37815 22.9174C7.21738 22.5377 7.131 22.1281 7.00983 21.7317V20.3843C7.6385 18.056 8.26837 15.7264 8.89705 13.3981ZM44.29 21.6538C44.5875 23.4216 46.1124 24.6876 47.8832 24.6924C50.2708 24.6996 52.032 22.4635 51.4285 20.1196C50.7243 17.3864 49.9564 14.6701 49.227 11.9441C49.1646 11.7093 49.0566 11.6363 48.8239 11.6375C46.8802 11.6447 44.9366 11.6435 42.9918 11.6375C42.7447 11.6375 42.6583 11.683 42.7051 11.9669C43.2402 15.1947 43.7489 18.4272 44.29 21.6538ZM34.7087 12.0519C34.891 15.1432 35.0566 18.2344 35.2126 21.3269C35.3086 23.23 36.5347 24.7008 38.3308 25.0301C40.0212 25.338 41.7345 24.4061 42.4231 22.8036C42.7327 22.0814 42.7843 21.3341 42.6583 20.5627C42.1928 17.7314 41.7285 14.9 41.281 12.0663C41.2282 11.7357 41.1154 11.6243 40.7759 11.6327C39.8341 11.6567 38.891 11.6411 37.9492 11.6411C37.0074 11.6411 36.0644 11.6519 35.1214 11.6351C34.8035 11.6291 34.6859 11.6842 34.7087 12.0519ZM26.2996 21.9916C26.6571 23.9378 28.3668 25.223 30.4111 25.0601C32.2516 24.9152 33.7921 23.2576 33.7645 21.3628C33.7429 19.8681 33.6289 18.3745 33.5545 16.881H33.5425C33.4609 15.2977 33.371 13.7155 33.3062 12.1309C33.2906 11.7597 33.1898 11.6243 32.7855 11.6303C30.9162 11.6543 29.047 11.6483 27.1766 11.6339C26.8539 11.6315 26.7423 11.7117 26.7255 12.0483C26.6007 14.6329 26.4483 17.2152 26.32 19.7998C26.284 20.5292 26.164 21.2562 26.2996 21.9916ZM48.3608 10.2026C49.0446 10.2026 48.957 10.2745 48.9594 9.60619C48.9594 9.23491 49.0794 8.74026 48.8898 8.52467C48.6679 8.26956 48.1592 8.44083 47.7765 8.44083C41.8365 8.43604 35.8952 8.43724 29.9552 8.43724C24.0152 8.43724 17.6853 8.44083 11.5509 8.42885C11.1538 8.42766 10.9846 8.5079 11.0326 8.93428C11.077 9.33312 10.9102 9.86729 11.113 10.108C11.3506 10.3895 11.9012 10.1991 12.314 10.1991C24.3296 10.205 36.3452 10.205 48.3608 10.2026ZM20.4675 25.0445C22.4711 25.3272 24.3919 23.9846 24.6955 22.0323C24.9006 20.716 24.8755 19.377 24.9582 18.05C25.083 16.0486 25.167 14.0461 25.2894 12.0459C25.3086 11.7285 25.2414 11.6279 24.9162 11.6339C23.96 11.6531 23.0026 11.6411 22.0452 11.6411C21.0878 11.6411 20.1604 11.6531 19.2186 11.6339C18.9102 11.6279 18.7807 11.6998 18.7291 12.0303C18.266 14.9982 17.7597 17.9589 17.3122 20.9292C17.0182 22.8815 18.4975 24.7667 20.4675 25.0445ZM11.329 24.6086C13.4537 25.0481 15.3758 23.7007 15.7321 21.5137C16.248 18.3578 16.7507 15.1994 17.2834 12.0459C17.3506 11.6543 17.2186 11.6315 16.909 11.6363C15.9672 11.6495 15.0254 11.6411 14.0824 11.6411C13.1394 11.6411 12.1976 11.6483 11.2558 11.6363C10.9786 11.6327 10.8383 11.6962 10.7591 11.998C10.0512 14.6689 9.31336 17.3313 8.60431 20.0022C8.04282 22.1221 9.27377 24.1822 11.329 24.6086Z" fill="#38BB9F"/>
<path id="Vector_2" d="M7.00954 48.7698C7.26869 48.4117 7.61422 48.2776 8.05453 48.3183C8.35088 48.347 8.65201 48.3243 8.95195 48.3243C9.38626 48.3243 9.60342 48.1143 9.60342 47.6943V29.9528C9.60342 29.2198 9.59623 28.4856 9.60703 27.7526C9.61422 27.2891 9.90336 26.998 10.3173 26.998C10.7144 26.9992 10.9963 27.2747 11.0347 27.7107C11.0479 27.8592 11.0395 28.0101 11.0395 28.1598V44.3287C11.0395 45.4965 11.0539 46.6643 11.0311 47.832C11.0239 48.2057 11.0899 48.3722 11.511 48.3338C11.9861 48.2907 12.4709 48.2931 12.9472 48.3326C13.3755 48.3698 13.4583 48.2081 13.4571 47.8104C13.4451 42.2555 13.4487 36.7018 13.4499 31.1469C13.4499 30.3145 13.6538 30.1097 14.4792 30.1085H23.1007C23.9957 30.1085 24.1829 30.2953 24.1829 31.1828C24.1841 36.721 24.1889 42.2603 24.1721 47.7997C24.1709 48.244 24.2957 48.335 24.7192 48.3338C32.622 48.3207 40.5248 48.3207 48.4277 48.3338C48.85 48.335 48.9735 48.2488 48.9723 47.8045C48.9556 41.2315 48.9604 34.6597 48.9616 28.0868C48.9616 27.8796 48.9376 27.6688 49.0203 27.4663C49.1583 27.131 49.4103 26.9801 49.763 27.0148C50.1217 27.0495 50.3317 27.2651 50.3845 27.6161C50.4097 27.7777 50.3965 27.9454 50.3965 28.1095C50.3977 33.3794 50.3977 38.6493 50.3977 43.9191C50.3977 45.2366 50.4121 46.5541 50.3881 47.8715C50.3809 48.2584 50.5044 48.3602 50.868 48.3314C51.2543 48.3003 51.6454 48.3231 52.0341 48.3243C52.76 48.3279 52.9891 48.5602 52.9903 49.3004C52.9915 50.1843 52.9711 51.0682 52.9987 51.9497C53.0131 52.3892 52.9064 52.7378 52.5416 52.9917H50.2513C35.9574 52.9917 21.6634 52.9905 7.36947 53.0001C7.06113 53.0001 6.99514 52.9414 6.99994 52.6324C7.02274 51.3449 7.00954 50.0573 7.00954 48.7698ZM22.2045 31.5349C19.9154 31.5565 17.6262 31.5517 15.3371 31.5385C14.9927 31.5361 14.8764 31.6188 14.8776 31.9829C14.8896 37.2959 14.8872 42.61 14.88 47.923C14.88 48.2261 14.9484 48.3326 15.2723 48.3314C17.6358 48.3183 20.0005 48.3171 22.3653 48.3314C22.694 48.3338 22.754 48.2177 22.7528 47.9206C22.7432 45.2558 22.7468 42.5921 22.7468 39.9272C22.7468 37.2623 22.736 34.6885 22.7576 32.0703C22.7612 31.6236 22.6268 31.5313 22.2045 31.5349ZM8.52004 51.4742C8.76239 51.7245 9.28549 51.5509 9.68381 51.5509C16.4613 51.5557 23.2399 51.5545 30.0185 51.5545C36.7972 51.5545 44.0533 51.5509 51.0707 51.564C51.4571 51.564 51.6154 51.485 51.559 51.0778C51.5014 50.6538 51.7438 50.0825 51.4619 49.8358C51.2195 49.625 50.6652 49.7627 50.2489 49.7627C36.4984 49.7603 22.748 49.7627 8.99754 49.7507C8.55123 49.7495 8.37727 49.8453 8.43966 50.3077C8.49364 50.7029 8.28009 51.2263 8.52004 51.4742Z" fill="#1B284B"/>
<path id="Vector_3" d="M28.3646 30.1084H44.5181C45.3184 30.1084 45.5391 30.3264 45.5391 31.1121C45.5403 34.3435 45.5403 37.5749 45.5391 40.8062C45.5391 41.6291 45.328 41.8411 44.5073 41.8411C41.8295 41.8411 39.1528 41.8411 36.475 41.8411C33.7971 41.8411 31.0904 41.8411 28.3982 41.8411C27.5667 41.8411 27.3508 41.6327 27.3496 40.817C27.3484 37.5856 27.3484 34.3542 27.3496 31.1228C27.3496 30.3264 27.5703 30.1096 28.3646 30.1084ZM28.7773 39.975C28.7749 40.3451 28.9057 40.4134 29.2404 40.411C31.6339 40.399 34.0262 40.405 36.4198 40.405C38.8133 40.405 41.2644 40.3978 43.6879 40.4122C44.0238 40.4146 44.1126 40.3248 44.1114 39.9882C44.097 37.3114 44.0958 34.6333 44.1114 31.9564C44.1138 31.6079 44.0034 31.5373 43.6795 31.5385C38.8637 31.548 34.0478 31.5492 29.232 31.5373C28.8817 31.5373 28.7761 31.6307 28.7773 31.9876C28.7917 34.6501 28.7929 37.3126 28.7773 39.975Z" fill="#1B284B"/>
</g>
</svg>
