<svg width="50" height="50" viewBox="0 0 50 50" fill="none" xmlns="http://www.w3.org/2000/svg">
<g id="Icons">
<path id="Vector" d="M34.7883 42.1699H29.497M20.25 30.5347L16.3799 31.9084C9.41041 34.4241 8.00623 37.1053 9.99263 45.0001M20.25 30.5347C20.3698 30.4354 20.4726 30.3361 20.5753 30.2202C21.5343 29.1775 21.7569 27.87 21.6713 26.8935M20.25 30.5347L24.6337 40.2996L29.36 30.6505M39.4632 45.0001C41.1242 36.5923 39.2577 33.2159 29.36 30.6505M29.36 30.6505C29.1716 30.5181 29.0175 30.3692 28.8634 30.2202C28.0243 29.3099 27.8359 27.9031 27.9216 26.8769M22.2877 13.7025C24.0686 13.7025 28.3154 13.4046 29.5312 11.6667C30.884 13.0074 31.9628 17.112 31.9628 19.247C31.9628 23.3185 28.9832 27.6714 25.2159 27.6714C21.4486 27.6714 18.4006 24.3612 18.4006 20.2897C18.4006 16.2182 18.5375 13.7025 22.2877 13.7025Z" stroke="#1B284B" stroke-width="2" stroke-linecap="round" stroke-linejoin="round"/>
<path id="Vector_2" d="M36.2479 32.4999C38.5918 29.8107 36.9224 26.9388 36.9224 22.6726C36.9224 14.5384 36.7032 5.30871 25.1862 5.85652C13.6524 6.38772 13.332 12.4302 13.332 20.5643C13.332 25.6772 13.4163 29.5617 15.1026 31.7363" stroke="#38BB9F" stroke-width="2" stroke-linecap="round" stroke-linejoin="round"/>
</g>
</svg>
