<svg width="54" height="33" viewBox="0 0 54 33" fill="none" xmlns="http://www.w3.org/2000/svg">
<g id="Group 1410">
<path id="Vector" d="M15.3553 24.1057C15.3537 24.1195 15.3521 24.1324 15.3496 24.1454C15.3521 24.1324 15.3545 24.1195 15.3562 24.1057H15.3553Z" fill="white"/>
<path id="Vector_2" d="M35.3134 7.62964C35.1687 5.96823 34.5908 4.46635 33.5262 3.18003C32.4679 1.90149 31.1328 0.997249 29.532 0.464199C28.0318 -0.0346113 26.4443 -0.158341 24.9929 0.225299C23.4117 0.642401 21.9202 1.48127 20.7927 2.77538C19.4851 4.27648 18.7122 6.00403 18.6092 7.98448C18.36 12.7944 22.5539 16.8129 26.9743 16.6502C31.0361 16.8113 35.7985 13.1687 35.3134 7.62964ZM26.8933 14.2963C23.7129 14.2939 20.9672 11.6972 20.9971 8.38447C21.0285 4.9566 23.5878 2.45477 26.979 2.47189C30.503 2.48901 32.9326 5.13092 32.957 8.337C32.931 11.7625 30.3033 14.2986 26.8933 14.2963Z" fill="#38BB9F"/>
<path id="Vector_3" d="M40.1603 30.3246C40.1359 31.2935 39.8757 31.7643 39.2168 31.9829C38.587 32.1915 37.7882 31.7043 37.7905 31.0491C37.7944 29.8912 37.6765 28.7535 37.5137 27.6088C37.4485 27.152 37.2181 26.8104 37.0585 26.4338C35.9341 23.7747 33.856 22.2129 31.0617 21.5717C30.5144 21.4457 29.9342 21.385 29.3523 21.3935C27.8026 21.4153 26.2521 21.3787 24.7024 21.4052C21.0336 21.4667 18.45 23.1802 16.8908 26.4594C16.4592 27.3676 16.2571 28.3053 16.2477 29.3013C16.2421 29.9036 16.3121 30.5098 16.1407 31.1075C15.989 31.6374 15.4197 32.13 14.9605 32.0779C14.3866 32.0125 13.8881 31.4888 13.8771 30.9129C13.8519 29.6103 13.7906 28.2936 14.1412 27.0275C14.3693 26.2073 14.6736 25.3941 15.1044 24.644C15.1728 24.5249 15.2538 24.4121 15.3057 24.2868C15.3159 24.2642 15.3238 24.2409 15.3317 24.2175C15.3387 24.1934 15.345 24.1693 15.3497 24.1444C15.3521 24.1319 15.3537 24.1195 15.3552 24.1062C15.8695 23.4736 16.3837 22.8417 16.8979 22.209C18.5758 20.6286 20.499 19.543 22.8295 19.1936C25.0735 18.8574 27.3269 18.9905 29.5717 19.0318C32.1286 19.0792 34.4465 19.9212 36.4035 21.6021C36.6496 21.8137 36.8431 22.083 37.1576 22.2106C37.6309 22.8378 38.1034 23.465 38.5768 24.093C39.7106 26.019 40.2169 28.1006 40.1603 30.3246Z" fill="#38BB9F"/>
<path id="Vector_4" d="M43.3288 7.22141C40.4825 7.38094 37.5128 9.58473 37.7872 13.6382C37.8784 14.9829 38.4422 16.1448 39.3495 17.1556C40.5415 18.4824 42.1124 19.0684 43.8092 19.0606C46.8009 19.0466 49.7589 16.4879 49.6669 13.1184C49.788 10.0104 47.1265 7.00819 43.3288 7.22141ZM43.5545 16.6443C41.5849 16.7704 39.9494 14.5199 40.1271 12.9169C40.3402 10.9963 41.6391 9.59329 43.5946 9.57695C45.7945 9.55827 47.3002 11.0306 47.3112 13.2141C47.3199 14.8475 45.7025 16.8537 43.5545 16.6443Z" fill="#1B284B"/>
<path id="Vector_5" d="M16.2285 13.0461C16.12 9.79329 13.7825 7.46577 10.6241 7.21987C6.9121 6.93116 4.20106 9.99328 4.24666 12.9924C4.2215 14.972 5.03922 16.4895 6.39238 17.6606C7.75497 18.8404 9.42579 19.1042 11.2491 19.017C13.5497 18.9065 16.3205 15.8101 16.2285 13.0461ZM13.8069 13.3799C13.7471 14.8086 12.1227 16.7875 10.2647 16.6506C8.12216 16.8303 6.54727 14.6872 6.62432 13.0702C6.7171 11.1084 8.11351 9.57307 10.1869 9.56762C12.1297 9.56295 13.9051 11.0298 13.8069 13.3799Z" fill="#1B284B"/>
<path id="Vector_6" d="M16.8978 22.209C16.3836 22.8417 15.8694 23.4736 15.3552 24.1062C14.6656 23.8487 13.943 23.7646 13.2157 23.76C11.1439 23.7459 9.07056 23.7312 6.99954 23.7677C6.26281 23.781 5.48834 23.8183 4.8436 24.2362C3.7389 24.9521 3.05721 25.9171 3.09652 27.2991C3.12797 28.4251 3.11696 29.5535 3.09495 30.6803C3.0745 31.7222 2.07202 32.4747 1.24565 31.8732C0.886331 31.6117 0.6992 31.3129 0.694482 30.895C0.678757 29.4928 0.593054 28.0851 0.686619 26.689C0.759742 25.6011 1.17253 24.5716 1.89354 23.7047C2.71597 22.7149 3.6988 21.9608 4.98198 21.6316C5.49699 21.4994 6.01356 21.4068 6.54272 21.406C9.00687 21.399 11.4718 21.3896 13.936 21.4052C14.988 21.4122 15.9614 21.7569 16.8978 22.209Z" fill="#1B284B"/>
<path id="Vector_7" d="M53.3173 30.7702C53.2945 31.872 52.3455 32.3716 51.457 31.858C50.9916 31.588 50.9412 31.1281 50.9334 30.6737C50.9153 29.62 50.9546 28.5656 50.9216 27.5127C50.8736 26.0085 50.2415 24.8218 48.8474 24.1222C48.2554 23.8257 47.5839 23.7759 46.9391 23.7666C44.7549 23.7354 42.5691 23.7393 40.3848 23.7642C39.7731 23.7712 39.1567 23.8631 38.5764 24.0926C38.1031 23.4646 37.6306 22.8374 37.1572 22.2102C37.9317 21.7013 38.7919 21.4336 39.7118 21.4282C42.382 21.411 45.0553 21.3394 47.7199 21.4468C50.3885 21.5534 52.6514 23.4794 53.1522 26.1532C53.44 27.6894 53.3496 29.2325 53.3173 30.7702Z" fill="#1B284B"/>
</g>
</svg>
