<svg width="100" height="100" viewBox="0 0 100 100" fill="none" xmlns="http://www.w3.org/2000/svg">
<g id="Icons">
<g id="Group 1406">
<path id="Vector (Stroke)" fill-rule="evenodd" clip-rule="evenodd" d="M28.8933 32.6831C29.5475 33.1889 29.6679 34.1294 29.162 34.7837L23.092 42.6347C22.8078 43.0024 22.3689 43.2172 21.9042 43.2162C21.4394 43.2152 21.0015 42.9985 20.7188 42.6296L17.7383 38.7405C17.2353 38.084 17.3596 37.1441 18.016 36.641C18.6724 36.138 19.6124 36.2623 20.1155 36.9187L21.9126 39.2638L26.7927 32.9518C27.2985 32.2976 28.239 32.1772 28.8933 32.6831ZM33.2041 38.5566C33.2041 37.7295 33.8745 37.0591 34.7016 37.0591H54.1837C55.0107 37.0591 55.6811 37.7295 55.6811 38.5566C55.6811 39.3836 55.0107 40.054 54.1837 40.054H34.7016C33.8745 40.054 33.2041 39.3836 33.2041 38.5566ZM28.8933 45.0411C29.5475 45.547 29.6679 46.4875 29.162 47.1417L23.092 54.9927C22.8078 55.3604 22.3689 55.5752 21.9042 55.5743C21.4394 55.5733 21.0015 55.3565 20.7188 54.9877L17.7383 51.0985C17.2353 50.4421 17.3596 49.5021 18.016 48.9991C18.6724 48.496 19.6124 48.6204 20.1155 49.2768L21.9126 51.6218L26.7927 45.3099C27.2985 44.6556 28.239 44.5353 28.8933 45.0411ZM33.2041 50.9146C33.2041 50.0876 33.8745 49.4171 34.7016 49.4171H49.7856C50.6127 49.4171 51.2831 50.0876 51.2831 50.9146C51.2831 51.7416 50.6127 52.412 49.7856 52.412H34.7016C33.8745 52.412 33.2041 51.7416 33.2041 50.9146ZM28.7842 57.3265C29.4385 57.8323 29.5588 58.7728 29.053 59.4271L22.983 67.2781C22.6987 67.6457 22.2599 67.8606 21.7951 67.8596C21.3304 67.8586 20.8924 67.6419 20.6097 67.273L17.6293 63.3839C17.1262 62.7274 17.2506 61.7875 17.907 61.2844C18.5634 60.7814 19.5034 60.9057 20.0064 61.5621L21.8035 63.9072L26.6836 57.5952C27.1895 56.941 28.1299 56.8206 28.7842 57.3265ZM33.0951 63.1999C33.0951 62.3729 33.7655 61.7025 34.5925 61.7025H54.0746C54.9016 61.7025 55.5721 62.3729 55.5721 63.1999C55.5721 64.027 54.9016 64.6974 54.0746 64.6974H34.5925C33.7655 64.6974 33.0951 64.027 33.0951 63.1999Z" fill="#38BB9F"/>
<path id="Vector (Stroke)_2" fill-rule="evenodd" clip-rule="evenodd" d="M46.9172 7.6527C46.6475 7.25862 46.1942 7.00004 45.6806 7.00004H45.6554C45.6478 6.99999 45.6401 6.99999 45.6325 7.00004H11.4052C8.97893 7.00004 7 8.97898 7 11.4053V81.9552C7 84.3814 8.97893 86.3604 11.4052 86.3604H61.1196L67.1476 90.2635C73.476 94.3536 80.7854 92.759 85.8125 88.6687C90.8239 84.5912 93.9146 77.7538 91.5473 70.9582L86.351 56.0595C86.3506 56.0585 86.3503 56.0576 86.3499 56.0566C85.3126 53.0598 81.771 52.0476 79.0648 53.1622C78.1399 53.5338 77.3697 54.1192 76.7859 54.8344C75.2826 53.8654 73.3119 53.6629 71.5309 54.4021L71.5151 54.4088C70.6045 54.7991 69.841 55.3889 69.2601 56.1053C68.3271 55.5045 67.2143 55.1988 66.0786 55.23V27.398C66.0786 26.8844 65.82 26.4312 65.4259 26.1615L46.9172 7.6527ZM44.1468 9.99495H11.4052C10.633 9.99495 9.99491 10.633 9.99491 11.4053V81.9552C9.99491 82.7274 10.633 83.3655 11.4052 83.3655H56.4942L47.5568 77.5786C44.9424 75.8869 44.4308 72.4654 46.21 69.9943C46.371 69.7708 46.5904 69.596 46.8442 69.4892C48.1563 68.9367 49.9522 68.7322 51.5995 68.7959C53.0401 68.8517 54.6367 69.1224 55.8605 69.7536L48.6375 53.1948C48.6368 53.1931 48.636 53.1914 48.6353 53.1896C47.3868 50.3723 48.9638 47.1898 51.7158 46.0593L51.7353 46.0496C51.7671 46.0337 51.7994 46.0189 51.8323 46.0053C54.6631 44.8339 57.8562 46.085 59.0733 48.7651C59.0741 48.7668 59.0749 48.7686 59.0757 48.7704L62.6344 56.4809C62.799 56.3527 62.9713 56.2324 63.1508 56.1206C63.1072 55.9802 63.0837 55.8309 63.0837 55.6761V28.8955H48.5521C46.1258 28.8955 44.1468 26.9166 44.1468 24.4903V9.99495ZM60.9296 25.9006L47.1417 12.1127V24.4903C47.1417 25.2625 47.7798 25.9006 48.5521 25.9006H60.9296ZM65.1658 58.436C64.4068 58.7678 63.9155 59.2931 63.6781 59.8758C63.453 60.4282 62.9217 60.7943 62.3254 60.8079C61.7291 60.8215 61.1816 60.4799 60.9316 59.9384L56.3474 50.0058C55.8237 48.8492 54.392 48.2138 53.0218 48.7547L53.0017 48.7647C52.9633 48.784 52.9241 48.8015 52.8842 48.8173C51.4613 49.3816 50.8921 50.8934 51.3743 51.9785L51.3785 51.9879L60.5743 73.0693C60.8385 73.6748 60.6746 74.382 60.1709 74.8095C59.6673 75.2371 58.943 75.2841 58.3883 74.9252L54.6809 72.5263C54.0901 72.1441 52.9133 71.8439 51.4837 71.7886C50.3079 71.7431 49.1978 71.8723 48.4216 72.1029C47.8688 73.1918 48.2007 74.428 49.1838 75.0641L62.0731 83.4099C62.3997 83.4913 62.6839 83.68 62.8861 83.9363L68.7743 87.7489C73.7498 90.9645 79.6354 89.8337 83.9223 86.3456C88.2248 82.8449 90.568 77.2519 88.7193 71.944C88.7192 71.9438 88.7194 71.9442 88.7193 71.944L83.5216 57.0416L83.5202 57.0374C83.1761 56.0414 81.7096 55.309 80.2014 55.9331L80.1851 55.9398C79.3669 56.2671 78.8107 56.9404 78.602 57.7058C78.4441 58.2845 77.9562 58.7132 77.3619 58.7952C76.7677 58.8772 76.1818 58.5966 75.8732 58.0822C75.3012 57.1289 73.9735 56.6351 72.6869 57.165C71.8417 57.5301 71.2851 58.2188 71.0781 58.9779C70.9203 59.5567 70.4323 59.9854 69.838 60.0673C69.2438 60.1493 68.658 59.8687 68.3494 59.3544C67.7778 58.4017 66.4516 57.908 65.1658 58.436ZM16.1958 21.6552C16.1958 20.8282 16.8663 20.1577 17.6933 20.1577H37.2117C38.0387 20.1577 38.7092 20.8282 38.7092 21.6552C38.7092 22.4822 38.0387 23.1526 37.2117 23.1526H17.6933C16.8663 23.1526 16.1958 22.4822 16.1958 21.6552Z" fill="#1B284B"/>
</g>
</g>
</svg>
