<svg width="84" height="80" viewBox="0 0 84 80" fill="none" xmlns="http://www.w3.org/2000/svg">
<g id="Group 1403">
<path id="Vector (Stroke)" fill-rule="evenodd" clip-rule="evenodd" d="M4.62931 3.16385C3.8157 3.16385 3.15689 3.82548 3.15689 4.60367V75.1705C3.15689 75.9247 3.82712 76.6103 4.62931 76.6103H52.532C53.3342 76.6103 54.0044 75.9247 54.0044 75.1705V21.8267H39.4255C37.0466 21.8267 35.1283 19.8953 35.1283 17.562V3.16385H4.62931ZM37.9531 5.13412L51.9794 19.0019H39.4255C38.5991 19.0019 37.9531 18.3276 37.9531 17.562V5.13412ZM0.332031 4.60367C0.332031 2.21269 2.30876 0.338989 4.62931 0.338989H36.5407C36.9125 0.338989 37.2693 0.485604 37.5338 0.747023L56.4099 19.4099C56.6783 19.6752 56.8293 20.0369 56.8293 20.4143V75.1705C56.8293 77.515 54.864 79.4352 52.532 79.4352H4.62931C2.29734 79.4352 0.332031 77.515 0.332031 75.1705V4.60367Z" fill="#1B284B"/>
<path id="Vector (Stroke)_2" fill-rule="evenodd" clip-rule="evenodd" d="M63.9609 10.2258H65.3734V8.84906H77.0333V17.3549H83.6641V38.8884H80.8392V20.1798H77.0333V64.1915C77.0333 69.2409 74.8301 72.7996 71.7145 73.5323V78.0225H68.8897V73.4244C65.9819 72.4961 63.9609 69.0275 63.9609 64.1915V10.2258ZM74.2084 17.3549V11.6739H66.7858V17.3549H74.2084ZM66.7858 20.1798H74.2084V64.1915C74.2084 69.2639 71.8776 70.8471 70.4971 70.8471C69.1167 70.8471 66.7858 69.2639 66.7858 64.1915V20.1798Z" fill="#38BB9F"/>
<path id="Vector (Stroke)_3" fill-rule="evenodd" clip-rule="evenodd" d="M13.043 15.876C13.043 15.0959 13.6753 14.4636 14.4554 14.4636H29.2686C30.0487 14.4636 30.681 15.0959 30.681 15.876C30.681 16.6561 30.0487 17.2884 29.2686 17.2884H14.4554C13.6753 17.2884 13.043 16.6561 13.043 15.876ZM13.043 30.2539C13.043 29.4738 13.6753 28.8414 14.4554 28.8414H44.1165C44.8965 28.8414 45.5289 29.4738 45.5289 30.2539C45.5289 31.0339 44.8965 31.6663 44.1165 31.6663H14.4554C13.6753 31.6663 13.043 31.0339 13.043 30.2539ZM13.043 38.6321C13.043 37.852 13.6753 37.2197 14.4554 37.2197H44.1165C44.8965 37.2197 45.5289 37.852 45.5289 38.6321C45.5289 39.4122 44.8965 40.0445 44.1165 40.0445H14.4554C13.6753 40.0445 13.043 39.4122 13.043 38.6321ZM13.043 47.0458C13.043 46.2658 13.6753 45.6334 14.4554 45.6334H44.1165C44.8965 45.6334 45.5289 46.2658 45.5289 47.0458C45.5289 47.8259 44.8965 48.4583 44.1165 48.4583H14.4554C13.6753 48.4583 13.043 47.8259 13.043 47.0458ZM13.043 55.4241C13.043 54.644 13.6753 54.0116 14.4554 54.0116H29.2686C30.0487 54.0116 30.681 54.644 30.681 55.4241C30.681 56.2041 30.0487 56.8365 29.2686 56.8365H14.4554C13.6753 56.8365 13.043 56.2041 13.043 55.4241Z" fill="#1B284B"/>
</g>
</svg>
