<svg width="100" height="100" viewBox="0 0 100 100" fill="none" xmlns="http://www.w3.org/2000/svg">
<g id="Icons">
<path id="Vector" d="M8.42188 59.7918L22.1967 54.1427C25.7079 52.7047 29.6581 53.0813 31.1098 54.1427C33.6082 56.0257 36.0728 57.8746 38.5712 59.7576C48.9361 67.5294 49.7801 65.5779 61.9682 66.3311C64.6691 66.5023 66.4585 70.8847 61.9682 72.6308C50.5904 77.9033 43.568 75.5409 33.1693 70.1657M52.6161 64.7562L63.9264 58.662C66.5935 57.224 71.7929 55.0671 71.7929 60.4081L73.7173 59.0729C79.0854 55.3752 83.1368 57.9773 81.1449 63.1128C90.6657 56.1285 94.0419 64.9617 89.7879 67.1528L68.7205 80.6081L59.8074 86.3257C53.4939 90.3657 45.1548 90.4341 42.7914 88.9962C29.4555 85.504 25.6404 82.2172 13.9926 83.7236" stroke="#1B284B" stroke-width="3" stroke-linecap="round" stroke-linejoin="round"/>
<path id="Vector_2" d="M55.8582 22.4048C54.0013 21.7885 52.3132 21.2065 50.6251 21.0011C41.5432 19.974 40.3615 29.2522 50.0512 29.218C59.437 29.218 58.5592 38.462 49.4435 37.4349C47.7554 37.2295 46.0673 36.6475 44.2104 36.0312M49.9836 38.1539V42.2624M49.9836 15.2492V19.6316M49.9836 10.1136C60.3823 10.1136 68.8228 18.6729 68.8228 29.218C68.8228 39.7631 60.3823 48.3224 49.9836 48.3224C39.585 48.3224 31.1445 39.7631 31.1445 29.218C31.1445 18.6729 39.6188 10.1136 50.0174 10.1136H49.9836Z" stroke="#38BB9F" stroke-width="3" stroke-miterlimit="10"/>
</g>
</svg>
