<svg width="100" height="100" viewBox="0 0 100 100" fill="none" xmlns="http://www.w3.org/2000/svg">
<g id="Icons">
<path id="Vector" d="M47.1041 28.8876L46.2422 22.9488M51.4138 29.0249L55.9304 18.1429" stroke="#1B284B" stroke-width="3" stroke-linecap="round" stroke-linejoin="round"/>
<path id="Vector_2" d="M57.896 52.5401C55.586 51.7849 53.5518 51.064 51.4487 50.8237C40.2779 49.5536 38.8299 60.8132 50.7247 60.7789C62.2747 60.7789 61.2059 72.0042 50.0006 70.7341C47.932 70.4938 45.8633 69.7729 43.5878 69.0176M50.6902 71.6266V76.6042M50.6902 44.9536V49.9312" stroke="#38BB9F" stroke-width="3" stroke-linecap="round" stroke-linejoin="round"/>
<path id="Vector_3" d="M57.3559 27.6958L57.5365 27.5881C58.9456 24.9301 63.3898 20.0452 64.6544 16.1301C68.8456 3.30736 46.0106 15.0167 32.895 12.3228C31.6304 12.0714 38.8928 20.4403 42.0001 27.7317M41.7471 28.9529H58.2592C63.7511 28.9529 71.5916 35.2745 78.023 42.8533C87.3448 53.7724 98.2204 80.4596 80.6244 89.2237C74.446 92.3126 64.7628 91.5943 50.8522 91.5943C36.0384 91.5943 26.3552 92.2049 20.3935 88.9004C4.31512 79.9568 13.6731 53.0181 22.8505 42.099C28.8844 34.9154 36.2552 28.9529 41.7833 28.9529H41.7471Z" stroke="#1B284B" stroke-width="3" stroke-linecap="round" stroke-linejoin="round"/>
</g>
</svg>
